<?xml version="1.0" encoding="UTF-8" standalone="no"?>
<svg width="178px" height="173px" viewBox="0 0 178 173" version="1.1" xmlns="http://www.w3.org/2000/svg" xmlns:xlink="http://www.w3.org/1999/xlink">
    <!-- Generator: Sketch 3.8.3 (29802) - http://www.bohemiancoding.com/sketch -->
    <title>Page 1</title>
    <desc>Created with Sketch.</desc>
    <defs>
        <polygon id="path-1" points="0 172.895575 177.932813 172.895575 177.932813 0 0 0"></polygon>
    </defs>
    <g id="Welcome" stroke="none" stroke-width="1" fill="none" fill-rule="evenodd">
        <g id="Desktop-HD-Copy" transform="translate(-631.000000, -2931.000000)">
            <g id="Page-1" transform="translate(631.000000, 2931.000000)">
                <path d="M24.3809564,42.1886514 C25.294886,42.8501328 26.1812046,43.1277418 27.0395437,43.0214782 C27.898067,42.9153985 28.5929481,42.4958597 29.1249233,41.762678 C29.6368343,41.0576249 29.8120732,40.277746 29.6510081,39.4226738 C29.490127,38.568153 28.9456347,37.8046366 28.0178995,37.1332274 C27.1041539,36.471746 26.2259346,36.2051679 25.3830577,36.3331254 C24.5403648,36.4618183 23.8631549,36.8782317 23.3512438,37.5834687 C22.8395169,38.2887056 22.6547061,39.0674814 22.7969957,39.9188767 C22.9389171,40.7708236 23.4670267,41.52717 24.3809564,42.1886514 L24.3809564,42.1886514 Z M33.2616285,36.8475292 C33.6080567,37.0982965 33.9555892,37.3395037 34.3047785,37.5709671 C34.6541518,37.8031658 34.9425965,37.9800266 35.1706647,38.1026525 L33.2588674,40.7369957 C33.1278064,40.6845994 32.9444683,40.5884474 32.7075644,40.4487237 C32.4712128,40.3091838 32.2354134,40.1543847 31.9997981,39.9837747 C32.2306275,40.5099447 32.3064662,41.1184782 32.2273142,41.8093751 C32.1476099,42.5008236 31.8573245,43.1922721 31.3557216,43.8835367 C30.8237464,44.6167184 30.2019429,45.1895855 29.4904951,45.6025058 C28.7788633,46.0157938 28.0263669,46.2669288 27.2328219,46.35683 C26.4389088,46.4467311 25.6229067,46.3779724 24.7846316,46.1507375 C23.9463566,45.9238704 23.1395582,45.5297024 22.3640525,44.9682338 C21.6163421,44.4269883 21.0052149,43.8000701 20.5299346,43.0869277 C20.0546544,42.3739692 19.7338126,41.6301243 19.5672252,40.8557609 C19.4004538,40.0813974 19.3973245,39.2930616 19.556733,38.4909373 C19.7163255,37.6891807 20.0570474,36.9284219 20.5787144,36.2092125 C20.8999243,35.7668767 21.2198457,35.413339 21.5388467,35.1482317 C21.8574796,34.8836759 22.1645158,34.6786865 22.4599553,34.5338151 C22.7550267,34.3889437 23.0281932,34.2964687 23.2789026,34.25639 C23.529612,34.2164952 23.7492128,34.2122667 23.9378891,34.243153 L18.1019926,30.0187173 L20.0736141,27.3012752 L33.2616285,36.8475292 L33.2616285,36.8475292 Z" id="Fill-1" fill="#2A2A34"></path>
                <path d="M39.8310618,23.1869823 C39.6166151,22.9658143 39.3695872,22.7786581 39.089794,22.6251459 C38.8098168,22.4721852 38.5070143,22.3832033 38.1815706,22.3598547 C37.8557588,22.3363223 37.5130122,22.3844902 37.1527785,22.5036231 C36.7927289,22.6233074 36.4312066,22.8393276 36.0695003,23.1520513 C35.7331963,23.4427134 35.4861684,23.7578271 35.3282325,24.0973925 C35.1702966,24.4373255 35.0791797,24.7759716 35.055066,25.1129631 C35.0304,25.45069 35.0651901,25.7707676 35.1581477,26.0741151 C35.2516575,26.3774626 35.3865841,26.6445922 35.5640319,26.8749525 L39.8310618,23.1869823 Z M44.9383917,24.2270046 C45.1802656,24.7412245 45.3343359,25.2907431 45.4011549,25.8768473 C45.4679739,26.4627676 45.4376017,27.0481363 45.3105903,27.6320343 C45.1833948,28.2163 44.9475954,28.7987272 44.6024558,29.3789482 C44.2573162,29.9593531 43.7938168,30.5011502 43.2123255,31.0041555 C42.5527868,31.5740811 41.8273493,32.0031799 41.0371177,32.2912681 C40.2465179,32.5795402 39.4345655,32.6995922 38.6016285,32.6516082 C37.7686916,32.603808 36.9455107,32.3780439 36.1319016,31.9739482 C35.3188447,31.570588 34.5652438,30.9683053 33.8712831,30.1672841 C33.2113762,29.4056061 32.7416182,28.603114 32.4634817,27.7594403 C32.184793,26.9161342 32.0747164,26.0912129 32.133068,25.283757 C32.1914196,24.4770365 32.4014486,23.7083723 32.7635231,22.9773967 C33.1255975,22.2467888 33.6098974,21.6189514 34.2180794,21.0935168 C35.7046647,19.8084265 37.2427909,19.2473255 38.8311694,19.4098462 C40.4193638,19.5732862 41.8796265,20.422843 43.211037,21.959436 C43.3680525,22.1405253 43.5094217,22.3173861 43.6364331,22.4896507 C43.7632604,22.6626507 43.8381787,22.7615604 43.8604517,22.7872989 L37.0333142,28.6882352 C37.3145799,28.9871704 37.6383669,29.2101767 38.0033866,29.3574382 C38.3685903,29.5050673 38.7415251,29.5832022 39.1227433,29.5923946 C39.5039615,29.6017708 39.8844434,29.5387113 40.264005,29.4022968 C40.6433824,29.2664339 40.9947806,29.058503 41.3181994,28.7788717 C41.9258292,28.2539886 42.2834858,27.7074116 42.3911694,27.1400598 C42.4986689,26.5728919 42.4456554,26.0090333 42.2315768,25.4486677 L44.9383917,24.2270046 Z" id="Fill-3" fill="#2A2A34"></path>
                <path d="M50.756654,19.9875853 C51.0270594,20.4045503 51.4220831,20.69319 51.9419094,20.8544238 C52.4613675,21.0162091 53.0502217,20.9143579 53.708472,20.5497894 C54.2017915,20.2765928 54.5080914,19.9655237 54.6273717,19.6162145 C54.7460997,19.2674567 54.7229063,18.9435184 54.5570552,18.6443994 C54.4160542,18.3906905 54.2041845,18.2202644 53.9207098,18.1325694 C53.6377874,18.0456098 53.2543603,18.0770476 52.7711648,18.2276183 L51.1264596,18.6990019 C49.9170904,19.0565843 48.9019198,19.0768074 48.0807636,18.7600391 C47.2596074,18.4434546 46.6335702,17.8968776 46.2024678,17.1199403 C45.9287491,16.6272304 45.7741266,16.102715 45.7389684,15.5458425 C45.7036261,14.9895216 45.780201,14.4493792 45.9681411,13.9248638 C46.1562651,13.4010837 46.4469187,12.90341 46.8402858,12.4314748 C47.2334689,11.9600912 47.7289973,11.5583855 48.3270552,11.2270933 C49.1045857,10.7965237 49.8230283,10.5406087 50.4814627,10.458613 C51.1400811,10.3773526 51.7291193,10.4076874 52.2478412,10.5496172 C52.7667471,10.6922825 53.2098143,10.9007649 53.577595,11.1754323 C53.9451917,11.4504674 54.2270097,11.7289955 54.4228649,12.0108329 L52.2439756,13.949867 C52.1224865,13.8024217 51.9809332,13.6612272 51.8182114,13.5264674 C51.6554896,13.3922591 51.4577936,13.2916948 51.2254916,13.2251422 C50.9930056,13.1587734 50.7432165,13.1405726 50.4768608,13.1709073 C50.2101369,13.2014259 49.9200356,13.303461 49.6060046,13.4773802 C49.2168711,13.6930327 48.9424161,13.9818563 48.7819032,14.3440349 C48.6212062,14.7065811 48.628017,15.044308 48.8021514,15.3579509 C48.9514358,15.6267352 49.1651462,15.7918298 49.4432827,15.8524993 C49.7216033,15.9135365 50.0266147,15.8911071 50.3588691,15.7846597 L52.1156757,15.2511358 C53.3314875,14.8705726 54.3827367,14.8354578 55.268503,15.1454238 C56.1542693,15.4557575 56.821171,16.0139169 57.2690242,16.8202697 C57.5177088,17.2683048 57.6761969,17.75697 57.7448567,18.2851624 C57.8133324,18.8137224 57.7636323,19.348901 57.5953882,19.8910657 C57.4273282,20.4335981 57.1320728,20.9582973 56.7096219,21.4655311 C56.2873551,21.9725811 55.7172765,22.4250285 54.9997543,22.8226895 C54.1618474,23.2865354 53.3926002,23.5558712 52.6920128,23.6318 C51.9908732,23.7080965 51.3657564,23.6733494 50.81611,23.5282942 C50.2664637,23.3837904 49.7957853,23.1611518 49.4040749,22.8603781 C49.0123644,22.560156 48.7143479,22.2612208 48.5103934,21.9639403 L50.756654,19.9875853 Z" id="Fill-5" fill="#2A2A34"></path>
                <path d="M63.410466,18.4470029 L59.1305508,6.5899763 L62.3397049,5.43449809 L66.6196201,17.2915247 L63.410466,18.4470029 Z M57.3441082,2.84887428 C57.1412581,2.28667024 57.163163,1.7432186 57.4101909,1.21851934 C57.6570347,0.694003932 58.0535311,0.333296174 58.6007845,0.136212221 C59.1636842,-0.0663871413 59.7037586,-0.042854729 60.2211919,0.206441764 C60.738073,0.456105951 61.0984908,0.862040064 61.3013408,1.4242441 C61.4927783,1.95427492 61.4688486,2.48044495 61.2302881,3.00201881 C60.9911754,3.52377651 60.5902612,3.88595505 60.0273615,4.08873826 C59.4801082,4.28563836 58.9442674,4.26081902 58.419103,4.01428023 C57.8937545,3.7675576 57.5355456,3.37908895 57.3441082,2.84887428 L57.3441082,2.84887428 Z" id="Fill-7" fill="#2A2A34"></path>
                <path d="M76.6942912,11.2229751 C77.5548393,11.0812291 78.211801,10.6787881 78.6655446,10.0154682 C79.119104,9.35251605 79.2667317,8.54028013 79.1082436,7.57986355 C78.9495715,6.61926312 78.5365084,5.90428225 77.8697907,5.4340017 C77.2028889,4.96427269 76.4645663,4.79586886 75.6548228,4.92915792 C75.23274,4.99883592 74.8524422,5.13525037 74.513377,5.33803358 C74.1741278,5.54118448 73.8924939,5.80371796 73.6688434,6.12618555 C73.4448248,6.44883698 73.2887297,6.81653092 73.2009262,7.22889968 C73.1133067,7.64181998 73.1083367,8.08397194 73.1862002,8.55553943 C73.3476335,9.53286993 73.7533336,10.2579624 74.4033005,10.7308168 C75.0534515,11.2036712 75.8168083,11.3674789 76.6942912,11.2229751 L76.6942912,11.2229751 Z M73.9005932,15.0846808 C74.1323429,15.7559061 74.5382271,16.2688391 75.1167731,16.6238476 C75.6951351,16.9783046 76.3894639,17.0891643 77.1992074,16.9556914 C78.2622374,16.7806691 79.0351661,16.3717934 79.5183615,15.7297998 C80.0013729,15.0876223 80.1429262,14.1599305 79.9424691,12.9467243 L79.7922643,12.0366818 C79.605981,12.4828784 79.2529262,12.9174927 78.7336521,13.3405245 C78.2143781,13.7637403 77.4992488,14.0501739 76.5882643,14.2003768 C75.7614019,14.3367913 74.9685932,14.3114204 74.2100223,14.1248157 C73.4512674,13.9383949 72.7700079,13.6179496 72.1664277,13.1632961 C71.5624794,12.7090102 71.0527772,12.1394523 70.6365849,11.45499 C70.2202085,10.7708954 69.939679,9.99064888 69.7948124,9.11425037 C69.6585973,8.28877747 69.6729551,7.4857339 69.8391744,6.70530351 C70.0044732,5.92505696 70.2947586,5.2152238 70.7091102,4.57580404 C71.1234618,3.93620043 71.6583822,3.39826419 72.3142395,2.96107609 C72.9700968,2.52443953 73.7279313,2.23488055 74.5884794,2.09313454 C75.58377,1.92914304 76.3973791,1.97694325 77.0294908,2.23616748 C77.6616025,2.49557556 78.1221568,2.81804315 78.4111537,3.20283486 L78.1689117,1.73683911 L81.4084381,1.20313135 L83.2410834,12.2993991 C83.3831888,13.1588837 83.396074,14.0003513 83.2812116,14.8243535 C83.1657969,15.6481717 82.8961278,16.4021282 82.4720203,17.0865904 C82.0477286,17.7708689 81.4518796,18.3623046 80.6855777,18.8608976 C79.9181713,19.3593067 78.9532529,19.7047552 77.7887979,19.8963237 C76.9284339,20.0380697 76.127526,20.0443205 75.3873626,19.9156276 C74.646831,19.7865671 73.9806656,19.5587807 73.3897866,19.2320846 C72.7985394,18.9052047 72.2971206,18.4944905 71.8866345,17.9999422 C71.4754122,17.5048423 71.1788683,16.9696638 70.9973708,16.3936712 L73.9005932,15.0846808 Z" id="Fill-9" fill="#2A2A34"></path>
                <path d="M91.9090943,13.6846309 L88.5059257,13.4452622 L89.3926124,0.872335494 L92.6930674,1.10453422 L92.583175,2.66337269 C93.020904,2.0438084 93.5874852,1.60404644 94.2831026,1.34482221 C94.9783518,1.08559798 95.6671584,0.979885972 96.3497065,1.02787003 C97.1340478,1.08302412 97.8029744,1.26301031 98.355934,1.5670932 C98.9085255,1.87154378 99.3569309,2.25817396 99.7011502,2.72735143 C100.044817,3.1968966 100.285218,3.74439288 100.420881,4.37020797 C100.556912,4.99620691 100.600722,5.65015058 100.552863,6.33130361 L99.9941967,14.2532696 L96.5912122,14.0139009 L97.1082774,6.67969362 C97.1588978,5.96416121 97.0171605,5.35526004 96.6843539,4.85225473 C96.350995,4.34980096 95.7753942,4.06925048 94.9564469,4.01152253 C94.2057913,3.95875845 93.6082856,4.16963092 93.1633777,4.64322072 C92.7186538,5.11699437 92.4705214,5.72038013 92.4187965,6.45264261 L91.9090943,13.6846309 Z" id="Fill-11" fill="#2A2A34"></path>
                <path d="M115.010531,10.222388 C115.084345,9.92345282 115.111772,9.6149576 115.093364,9.29671849 C115.074589,8.97847938 114.988994,8.67513188 114.836028,8.38722752 C114.682878,8.09932317 114.459964,7.83458353 114.167286,7.59300861 C113.874791,7.35198523 113.499463,7.16096823 113.042038,7.02087683 C112.616458,6.89071318 112.218121,6.84916376 111.846291,6.89622859 C111.473908,6.94292572 111.13834,7.04588002 110.839588,7.20435611 C110.540283,7.36301605 110.28718,7.56230616 110.07936,7.80241031 C109.871356,8.04251445 109.716549,8.29879713 109.615308,8.57125834 L115.010531,10.222388 Z M116.841703,15.0965389 C116.534299,15.5743572 116.149768,15.9966537 115.688293,16.3645315 C115.22645,16.7322254 114.713987,17.0175559 114.151271,17.220523 C113.588371,17.4233062 112.968961,17.5330628 112.293224,17.5494252 C111.61767,17.5657876 110.911745,17.4615463 110.176183,17.2365176 C109.342326,16.9811542 108.592959,16.5954433 107.928634,16.0797525 C107.263941,15.5640617 106.73123,14.9408205 106.329395,14.2103965 C105.927008,13.4803402 105.681269,12.6636919 105.591993,11.7608194 C105.502165,10.8583147 105.612609,9.90083964 105.923327,8.88821052 C106.218951,7.92485239 106.650053,7.10121796 107.218107,6.41767492 C107.785056,5.73376419 108.426371,5.20244644 109.142237,4.82280244 C109.857734,4.44352614 110.621275,4.21298204 111.43378,4.13080244 C112.245732,4.0488067 113.03578,4.12528704 113.804291,4.36061116 C115.684427,4.93586833 116.97755,5.93912125 117.683292,7.36963454 C118.388665,8.80033167 118.443703,10.4873115 117.84767,12.4303901 C117.777354,12.6590957 117.702436,12.8729098 117.623836,13.0718322 C117.544684,13.2713062 117.500322,13.3869459 117.490382,13.4196707 L108.858026,10.7777897 C108.75384,11.1745315 108.736537,11.5668609 108.805565,11.9538588 C108.874409,12.3414082 109.00639,12.6986228 109.200773,13.0260543 C109.395523,13.3534858 109.651203,13.6421255 109.968547,13.8906866 C110.285155,14.1396154 110.648518,14.3265878 111.057164,14.4517876 C111.825674,14.686744 112.478955,14.6992456 113.017557,14.4889247 C113.55579,14.2784199 114.006036,13.9340745 114.367559,13.4551531 L116.841703,15.0965389 Z" id="Fill-13" fill="#2A2A34"></path>
                <path d="M125.221546,16.1454226 C124.649811,17.1172377 124.458005,18.0250741 124.646129,18.8681963 C124.834253,19.7116862 125.318921,20.3621368 126.100501,20.820835 C126.852446,21.2620677 127.646359,21.3615289 128.483161,21.1195863 C129.319411,20.8778275 130.028282,20.2634109 130.608485,19.2767043 C131.18022,18.3048892 131.361533,17.4060613 131.153161,16.5804046 C130.944421,15.7551155 130.464539,15.1215789 129.712594,14.68053 C128.960834,14.2392972 128.166737,14.1299083 127.331959,14.3530985 C126.496446,14.5761049 125.793281,15.1736075 125.221546,16.1454226 L125.221546,16.1454226 Z M131.395587,24.4626596 C131.178932,24.8309051 130.971848,25.1997021 130.77452,25.5690507 C130.57664,25.9383993 130.427724,26.2421145 130.327403,26.4803801 L127.518979,24.8323759 C127.558555,24.6972484 127.636787,24.505496 127.75349,24.256751 C127.869641,24.0085576 128.001622,23.7590773 128.149066,23.5084938 C127.646727,23.7884928 127.047564,23.9221495 126.351211,23.9096479 C125.654673,23.8965948 124.937703,23.67414 124.200485,23.2417319 C123.418905,22.7830337 122.78845,22.2199104 122.308752,21.5523621 C121.828685,20.8842622 121.506187,20.1602728 121.340704,19.3796586 C121.175037,18.5992282 121.165281,17.7814768 121.311436,16.9262207 C121.457407,16.0711485 121.772911,15.2313355 122.258131,14.406598 C122.725864,13.611276 123.292077,12.9435438 123.957507,12.402666 C124.622199,11.8619721 125.332727,11.4716649 126.089089,11.2319285 C126.84453,10.9918243 127.629792,10.9133217 128.44469,10.9949497 C129.259035,11.0769455 130.049635,11.3424205 130.816489,11.7924779 C131.288272,12.0691676 131.671147,12.353395 131.96585,12.6451601 C132.260001,12.9365576 132.493775,13.2222558 132.666621,13.5020709 C132.839283,13.7815183 132.957643,14.0442356 133.021333,14.2896713 C133.085207,14.535107 133.110425,14.7531495 133.097908,14.943615 L136.749025,8.73694123 L139.645804,10.4367903 L131.395587,24.4626596 Z" id="Fill-15" fill="#2A2A34"></path>
                <path d="M151.536738,38.7879237 C152.439992,38.0569481 152.93644,37.2647515 153.026269,36.4122531 C153.115361,35.5595709 152.886004,34.7947675 152.33691,34.1178429 C152.067793,33.7859991 151.752473,33.519421 151.390767,33.3175571 C151.029061,33.1156931 150.642873,32.9996857 150.232939,32.9686155 C149.822821,32.9379131 149.390982,32.995641 148.938159,33.1425348 C148.484784,33.2894285 148.032329,33.5457112 147.580794,33.9110151 C147.142329,34.2658397 146.804,34.6491607 146.56636,35.0615294 C146.328167,35.4737143 146.179067,35.8860831 146.117402,36.2986357 C146.055737,36.7111883 146.08298,37.117674 146.198947,37.5182765 C146.31473,37.9192468 146.507272,38.2852861 146.776573,38.6171299 C147.325667,39.2938706 148.03012,39.6740661 148.890668,39.7584519 C149.751032,39.8422861 150.632749,39.5190831 151.536738,38.7879237 L151.536738,38.7879237 Z M140.575288,35.3264529 L155.004701,23.651251 L157.119716,26.2587526 L151.419851,30.8709216 C151.94796,30.8168706 152.555774,30.935268 153.242556,31.2257462 C153.92897,31.5162244 154.568813,32.0263998 155.160796,32.7564561 C155.742103,33.4729078 156.129212,34.2147303 156.322122,34.9817399 C156.515216,35.7487494 156.54117,36.513369 156.400353,37.2757824 C156.259537,38.0378281 155.957654,38.7715613 155.494523,39.4756952 C155.031392,40.1803807 154.434438,40.8282574 153.703847,41.4191416 C152.959818,42.0214242 152.183208,42.4683562 151.374753,42.7597537 C150.566114,43.0515188 149.764837,43.1831532 148.971661,43.154657 C148.177932,43.1261607 147.420649,42.9312829 146.698893,42.5705751 C145.976585,42.2094997 145.335822,41.6836973 144.776236,40.9939035 C144.22751,40.3171628 143.884027,39.6224051 143.745971,38.9098142 C143.608099,38.1972234 143.643625,37.5361097 143.854023,36.926657 L142.658091,37.8942436 L140.575288,35.3264529 Z" id="Fill-17" fill="#2A2A34"></path>
                <polygon id="Fill-19" fill="#2A2A34" points="146.463977 51.4948564 153.670124 51.2872932 161.228406 41.6426811 162.905324 45.0725302 157.742035 51.3255334 165.741727 50.8734537 167.339862 54.1422528 148.051067 54.7406747"></polygon>
                <g id="Group-23" transform="translate(153.518097, 68.470495)" fill="#2A2A34">
                    <path d="M21.9480627,0.0578934113 C22.5389417,-0.036787779 23.0696283,0.085470457 23.5399386,0.42521966 C24.0102488,0.764785016 24.2915146,1.22127705 24.3837359,1.79469575 C24.4787183,2.38466068 24.3553884,2.91046302 24.0137462,3.37191892 C23.6722881,3.83282327 23.2060275,4.11116759 22.6153326,4.20603262 C22.0410203,4.29813996 21.523587,4.17753634 21.0635849,3.84532487 C20.6028465,3.512378 20.3254463,3.05110595 20.2304639,2.46095717 C20.1382426,1.88753847 20.2577069,1.36688385 20.5895932,0.898441764 C20.9209272,0.430183528 21.3739344,0.150000744 21.9480627,0.0578934113 L21.9480627,0.0578934113 Z M17.9105735,1.1208966 L18.4517524,4.48492848 L4.90295202,6.65873507 C4.29495408,6.75617396 3.72782068,6.75617396 3.20136774,6.65910276 C2.67528294,6.56203156 2.20313195,6.37377226 1.78565109,6.09487641 C1.36853837,5.81561286 1.01990134,5.45233124 0.74010817,5.00429617 C0.46013092,4.55607726 0.271454602,4.0286203 0.173711065,3.4215576 C0.095111272,2.93234081 0.0658434333,2.50894123 0.086275698,2.15117503 C0.106892037,1.79377651 0.126956153,1.5698509 0.147204343,1.47994973 L2.95820538,1.02897311 C2.94347942,1.15251828 2.93703681,1.30069894 2.93869349,1.47296355 C2.9407183,1.64596355 2.96041427,1.84984984 2.99851768,2.08627705 C3.07987859,2.59204006 3.26837084,2.92921541 3.56399442,3.09817078 C3.85980207,3.26675845 4.23512989,3.31474251 4.69108232,3.24175526 L17.9105735,1.1208966 Z" id="Fill-21"></path>
                </g>
                <path d="M160.075474,88.5914064 C160.212793,88.5597847 160.410121,88.5380908 160.666905,88.5265084 C160.923689,88.5145583 161.180104,88.5114329 161.436704,88.5165807 C160.845089,88.1626752 160.423743,87.6545222 160.172113,86.9919377 C159.920667,86.3289855 159.801571,85.6647464 159.815192,84.9988527 C159.830839,84.2305562 159.977178,83.5545509 160.25421,82.9706529 C160.530874,82.3869388 160.895709,81.8947804 161.348901,81.493994 C161.80154,81.0932077 162.333699,80.7922502 162.94501,80.5911216 C163.555953,80.3898091 164.203711,80.2965987 164.887732,80.3103872 L172.863126,80.4725403 L172.79373,83.8790408 L165.51064,83.731044 C164.792566,83.7163362 164.186224,83.8873139 163.691616,84.2448963 C163.196824,84.6019271 162.941329,85.1815966 162.924946,85.9844563 C162.9093,86.7527528 163.128164,87.3467624 163.581356,87.7657496 C164.034547,88.1849207 164.628555,88.402044 165.363933,88.4171194 L172.698011,88.5662193 L172.628615,91.9727199 L162.293939,91.7625828 C161.798042,91.7524712 161.348901,91.7559643 160.947066,91.7736136 C160.544495,91.7910791 160.231753,91.8142438 160.009023,91.8442108 L160.075474,88.5914064 Z" id="Fill-24" fill="#2A2A34"></path>
                <path d="M162.798469,99.7022165 C162.307726,99.6215077 161.828028,99.7189465 161.358822,99.994717 C160.889617,100.269752 160.568775,100.773309 160.395929,101.50502 C160.26634,102.053435 160.290822,102.488969 160.469375,102.811988 C160.647559,103.134456 160.903238,103.3354 161.236413,103.413903 C161.519151,103.480639 161.788084,103.438538 162.043579,103.288335 C162.298522,103.137765 162.533033,102.83313 162.746928,102.3748 L163.50421,100.842435 C164.052752,99.7082834 164.720942,98.9443993 165.508229,98.5509667 C166.294963,98.1573504 167.121089,98.0624853 167.986791,98.2663716 C168.535885,98.3959837 169.028469,98.6346171 169.464541,98.983191 C169.900245,99.3313971 170.24925,99.7513036 170.511004,100.243094 C170.772574,100.734701 170.945604,101.28422 171.030647,101.892202 C171.115137,102.5 171.079058,103.136294 170.922227,103.801452 C170.717904,104.665349 170.424121,105.368564 170.041614,105.910177 C169.658924,106.451606 169.240154,106.866181 168.786043,107.153902 C168.331379,107.441622 167.878556,107.628779 167.427757,107.715738 C166.976591,107.802146 166.580831,107.822921 166.240293,107.778062 L166.270113,104.863352 C166.460998,104.872913 166.660903,104.863352 166.870196,104.833753 C167.078752,104.80397 167.286388,104.725283 167.492183,104.598613 C167.69761,104.471391 167.879292,104.299126 168.036123,104.081819 C168.192771,103.864328 168.312419,103.58102 168.3947,103.232078 C168.497046,102.79967 168.467594,102.402377 168.307265,102.040198 C168.146936,101.677468 167.892177,101.455381 167.54262,101.373018 C167.243131,101.302421 166.977143,101.349118 166.745209,101.514028 C166.512723,101.678388 166.324047,101.919043 166.17918,102.236179 L165.392446,103.893192 C164.856053,105.047383 164.175162,105.847853 163.349588,106.29405 C162.523461,106.739695 161.661441,106.856805 160.762789,106.645197 C160.263579,106.527351 159.79511,106.315927 159.357933,106.011293 C158.92002,105.706107 158.557209,105.309365 158.268764,104.820332 C157.979952,104.330932 157.789987,103.759719 157.698318,103.106511 C157.606833,102.453303 157.655244,101.727659 157.843737,100.929763 C158.06389,99.9985778 158.381786,99.2490337 158.796874,98.6802112 C159.212146,98.1110209 159.658527,97.6725459 160.135832,97.3638668 C160.612584,97.0550039 161.094307,96.8568169 161.580632,96.7698573 C162.066589,96.68253 162.488487,96.6634099 162.845776,96.7126809 L162.798469,99.7022165 Z" id="Fill-26" fill="#2A2A34"></path>
                <path d="M165.405018,118.901209 L164.396842,121.229079 L161.618975,120.028742 L162.627151,117.701056 L157.777525,115.605935 C157.275002,115.388812 156.876849,115.351491 156.582329,115.49434 C156.287442,115.636454 156.041887,115.935022 155.845111,116.389859 C155.763566,116.578118 155.689752,116.769503 155.624222,116.964565 C155.558139,117.159259 155.524085,117.302291 155.521692,117.394583 L152.932133,116.275874 C152.930292,116.107654 152.961217,115.864976 153.023802,115.54784 C153.08694,115.230704 153.216528,114.844993 153.413304,114.390339 C153.902205,113.261887 154.602977,112.503886 155.515802,112.116888 C156.428627,111.729522 157.450241,111.780264 158.580458,112.268561 L163.971262,114.597535 L164.877645,112.504989 L167.655513,113.704958 L167.400938,114.2929 C167.136054,114.904192 167.117647,115.430913 167.345163,115.873617 C167.572679,116.316136 167.945246,116.649267 168.463047,116.873009 L170.087688,117.574937 L168.865618,120.396436 L165.405018,118.901209 Z" id="Fill-28" fill="#2A2A34"></path>
                <path d="M164.899918,128.887776 C165.408516,129.202522 165.729357,129.6421 165.862443,130.20651 C165.995161,130.770737 165.908278,131.299481 165.602162,131.793294 C165.287026,132.301263 164.849481,132.618031 164.288791,132.743415 C163.728468,132.868615 163.193548,132.774117 162.684766,132.459371 C162.205068,132.162458 161.896743,131.735382 161.75924,131.178693 C161.62192,130.621453 161.711012,130.088848 162.026147,129.580879 C162.332447,129.087066 162.767968,128.774159 163.332892,128.641421 C163.897817,128.508867 164.42022,128.591047 164.899918,128.887776 L164.899918,128.887776 Z M150.445103,120.427322 L161.172962,127.064382 L159.376764,129.960891 L148.64872,123.323831 L150.445103,120.427322 Z" id="Fill-30" fill="#2A2A34"></path>
                <path d="M143.378595,130.40148 L145.66572,127.8734 L155.029404,136.323191 L152.811122,138.775158 L151.650165,137.727598 C151.868477,138.453977 151.8659,139.170429 151.641329,139.877321 C151.416943,140.584028 151.075484,141.190723 150.616771,141.69759 C150.089582,142.280384 149.535517,142.695327 148.954763,142.942601 C148.374008,143.189324 147.792701,143.303493 147.210473,143.28474 C146.62843,143.26562 146.048963,143.116888 145.471522,142.837625 C144.894448,142.558729 144.352165,142.189932 143.844856,141.732153 L137.944717,136.408128 L140.231842,133.880049 L145.694068,138.808986 C146.226963,139.28993 146.794281,139.554302 147.395836,139.60247 C147.997759,139.65027 148.573728,139.370638 149.123927,138.762289 C149.628475,138.204681 149.830589,137.604788 149.731741,136.963162 C149.632341,136.320985 149.31021,135.754001 148.764798,135.261843 L143.378595,130.40148 Z" id="Fill-32" fill="#2A2A34"></path>
                <path d="M127.70598,144.899377 L133.019474,156.331717 L130.06471,157.701377 L129.416584,156.307449 C129.39155,156.658045 129.304667,156.999081 129.157407,157.331293 C129.010148,157.663136 128.817422,157.969058 128.579966,158.248689 C128.342326,158.52832 128.074866,158.783867 127.777401,159.01625 C127.479753,159.248081 127.176214,159.436157 126.86568,159.579925 C126.074713,159.9467 125.309147,160.103889 124.568247,160.052044 C123.8279,160.000015 123.165968,159.732334 122.583372,159.249368 C122.457834,160.154998 122.158713,160.891121 121.687298,161.458473 C121.215331,162.025457 120.599786,162.485075 119.839743,162.837509 C119.312553,163.082026 118.762907,163.237928 118.190619,163.305584 C117.619068,163.372872 117.056169,163.318085 116.503025,163.14196 C115.949513,162.964915 115.428582,162.655869 114.940417,162.214084 C114.452067,161.771748 114.031641,161.17112 113.678954,160.412384 L110.233817,152.999858 L113.234967,151.608504 L116.388531,158.393377 C116.676423,159.012941 117.075128,159.454174 117.583726,159.717442 C118.092508,159.980527 118.703819,159.9467 119.416923,159.615959 C120.084009,159.306912 120.500938,158.845272 120.667893,158.231223 C120.835033,157.617175 120.774473,157 120.486396,156.38062 L117.37609,149.68859 L120.447188,148.264879 L123.600752,155.049752 C123.888644,155.669132 124.291031,156.10871 124.807544,156.368486 C125.323873,156.62771 125.931134,156.595905 126.628961,156.272334 C127.311877,155.95575 127.738009,155.494294 127.90883,154.88815 C128.079467,154.281639 128.01725,153.660972 127.721995,153.025964 L124.611505,146.333934 L127.70598,144.899377 Z" id="Fill-34" fill="#2A2A34"></path>
                <path d="M101.474487,156.632049 C101.119775,156.688306 100.785128,156.788687 100.470545,156.933742 C100.155961,157.078613 99.8899737,157.285257 99.6729499,157.553122 C99.4559262,157.820987 99.3001992,158.148051 99.205769,158.535049 C99.1115229,158.921679 99.1083936,159.39343 99.1969334,159.950119 L99.2854732,160.506624 L102.029103,159.630961 C102.457628,159.493443 102.800191,159.279078 103.056607,158.988048 C103.31339,158.696283 103.402667,158.305976 103.324803,157.817127 C103.265899,157.445756 103.077959,157.133951 102.760799,156.882081 C102.443823,156.629475 102.015113,156.546192 101.474487,156.632049 M106.661889,157.080452 C106.750429,157.63714 106.731837,158.145845 106.605746,158.606749 C106.480207,159.067654 106.274044,159.484802 105.986888,159.859115 C105.7001,160.232876 105.347781,160.548173 104.929564,160.805008 C104.511715,161.06129 104.047663,161.273082 103.537409,161.44075 L100.544543,162.382231 C100.19793,162.489046 99.9700461,162.632998 99.8601537,162.815006 C99.7506294,162.996463 99.7130782,163.19704 99.7480523,163.41637 C99.8178165,163.854845 100.051407,164.206728 100.448272,164.472571 C100.845504,164.737862 101.398648,164.81471 102.107887,164.702196 C102.851364,164.58435 103.389229,164.291482 103.721484,163.823775 C104.054106,163.356252 104.202654,162.848283 104.167312,162.300419 L107.257186,162.459079 C107.284245,162.956201 107.210063,163.469318 107.03464,163.998797 C106.858849,164.528093 106.582553,165.021354 106.205016,165.479317 C105.827663,165.936728 105.337841,166.338618 104.734445,166.685169 C104.131786,167.031169 103.408373,167.271457 102.563655,167.405482 C101.584379,167.560648 100.727513,167.562487 99.9934236,167.410997 C99.2593346,167.258955 98.6428693,167.002489 98.1440275,166.640678 C97.6448176,166.278867 97.252739,165.826236 96.9672395,165.283887 C96.6821082,164.741171 96.4895663,164.157641 96.3905342,163.533848 L95.4171485,157.411009 C95.3635828,157.073282 95.2901371,156.717906 95.1955229,156.343777 C95.1016449,155.969465 95.020284,155.675126 94.951256,155.461495 L98.0418662,154.971543 C98.1027948,155.134432 98.1690616,155.36185 98.2412188,155.653248 C98.313376,155.944094 98.3682302,156.20773 98.4059655,156.444157 C98.6491278,155.903831 99.0410223,155.400642 99.5814649,154.934958 C100.122092,154.468906 100.856917,154.161881 101.785388,154.01462 C102.444191,153.910195 103.056238,153.921593 103.621715,154.047712 C104.187192,154.174199 104.683457,154.380843 105.109773,154.668012 C105.536458,154.954445 105.882334,155.305961 106.147401,155.722374 C106.412836,156.13842 106.584025,156.591051 106.661889,157.080452" id="Fill-36" fill="#2A2A34"></path>
                <path d="M81.9171278,164.513587 C82.2569293,164.593193 82.597467,164.639155 82.9392933,164.650553 C83.3838331,164.665628 83.8042592,164.619851 84.2011237,164.513771 C84.5987245,164.407507 84.9469934,164.222557 85.2466666,163.959656 C85.546708,163.696203 85.7935518,163.341195 85.9883026,162.895182 C86.1830534,162.448802 86.2922095,161.884208 86.3152188,161.201768 L86.5103377,155.441107 L89.9197648,155.556195 L89.4932643,168.153022 L86.1863667,168.041243 L86.2495042,166.172254 C86.0477586,166.575431 85.7929996,166.904149 85.4848589,167.158961 C85.1769024,167.413038 84.8536676,167.602768 84.515891,167.728519 C84.1779303,167.853719 83.8416263,167.93645 83.5066108,167.976345 C83.1717793,168.016423 82.8675042,168.031683 82.5939696,168.02249 C82.4573863,168.017894 82.3248527,168.008886 82.1971051,167.9962 C82.0691733,167.983147 81.9375601,167.965865 81.8007928,167.944355 L81.9171278,164.513587 Z" id="Fill-38" fill="#2A2A34"></path>
                <polygon id="Fill-40" fill="#2A2A34" points="69.4530598 160.311231 66.0979346 152.029293 70.1689253 152.980333 72.3174424 158.428455 74.0298871 157.302576 74.7895624 154.059883 78.1110019 154.835901 73.881339 172.895557 70.5595313 172.119538 72.9843442 161.767667 67.6693783 165.340549 63.3235644 164.325346"></polygon>
                <path d="M41.981751,157.379534 C42.1435524,157.476054 42.3289154,157.55713 42.5385762,157.62258 C42.7486052,157.688397 42.9597386,157.710091 43.1721605,157.687662 C43.3849506,157.6656 43.596084,157.587465 43.8051926,157.453992 C44.0150374,157.320519 44.211629,157.099719 44.3960716,156.792143 L45.1069671,155.604859 L42.6637468,154.145114 L44.1652422,151.638912 L46.6082784,153.098657 L51.5858358,144.788774 L54.5354449,146.551131 L49.5578875,154.861014 L51.3627375,155.939645 L49.8616103,158.445663 L48.0565762,157.367216 L47.319358,158.598256 C46.9504728,159.213959 46.5276538,159.712368 46.0499806,160.093667 C45.5726755,160.475149 45.0561626,160.738786 44.5002577,160.884393 C43.9450891,161.030183 43.3680157,161.053348 42.7694056,160.954806 C42.1713477,160.855713 41.571449,160.626823 40.9693415,160.267218 C40.6612008,160.083188 40.3849051,159.888126 40.1395338,159.68185 C39.8943466,159.475757 39.7310726,159.308089 39.6484232,159.179396 L41.1232277,156.717133 C41.1793704,156.790304 41.2738006,156.88186 41.4072546,156.991433 C41.5408927,157.10119 41.7323301,157.230434 41.981751,157.379534" id="Fill-42" fill="#2A2A34"></path>
                <path d="M41.3480563,139.934148 C41.0789394,139.696801 40.7882858,139.502843 40.4760956,139.352824 C40.1640893,139.202437 39.8353324,139.129266 39.4901928,139.132391 C39.1450532,139.1357 38.7932869,139.223763 38.4345257,139.397315 C38.0757646,139.570682 37.7096405,139.868698 37.3359694,140.291179 L36.9622982,140.713475 L39.3847181,142.269556 C39.7635433,142.512602 40.1469704,142.640008 40.5351835,142.652325 C40.9235806,142.664643 41.2821576,142.485025 41.6101783,142.114021 C41.8594151,141.832368 41.9807202,141.488942 41.9735413,141.084294 C41.9667305,140.679463 41.7583582,140.296143 41.3480563,139.934148 M44.3026354,144.216128 C43.9291483,144.638608 43.5245526,144.948022 43.0882962,145.144187 C42.6525919,145.34072 42.1988484,145.447535 41.7268815,145.464449 C41.255835,145.481362 40.7881018,145.410398 40.323866,145.251738 C39.8599983,145.092894 39.4011007,144.870071 38.9466209,144.583638 L36.3152765,142.876802 C36.0121059,142.67788 35.7558743,142.593862 35.5452931,142.625116 C35.3354482,142.656186 35.1567119,142.754728 35.0094523,142.921293 C34.7151173,143.254056 34.5919715,143.657968 34.6392786,144.133029 C34.687138,144.607906 34.9800004,145.082782 35.5182341,145.557843 C36.0822383,146.055517 36.6504761,146.283487 37.2233158,146.241937 C37.7961555,146.200572 38.2830325,145.991722 38.6835785,145.616122 L40.5274523,148.097505 C40.160776,148.434864 39.7171566,148.704016 39.196594,148.90588 C38.6760314,149.107192 38.1190221,149.208308 37.525382,149.208676 C36.9317419,149.209228 36.3095702,149.087521 35.6581307,148.843188 C35.0072434,148.599039 34.3611421,148.194576 33.7203789,147.629063 C32.9770862,146.973465 32.4305692,146.314373 32.0804596,145.65234 C31.7309022,144.990307 31.5365195,144.351991 31.4984161,143.73739 C31.4603127,143.122606 31.5604492,142.532457 31.7975371,141.967311 C32.0355454,141.40235 32.363382,140.882614 32.7821514,140.409208 L36.8917977,135.763028 C37.1183934,135.506929 37.3462776,135.223988 37.5752662,134.913103 C37.8044389,134.602586 37.9798618,134.352738 38.1011669,134.163743 L40.4462755,136.233124 C40.3592083,136.383511 40.2255702,136.579308 40.0466498,136.820332 C39.8677295,137.060987 39.6991173,137.271124 39.5404451,137.450559 C40.1125485,137.293921 40.7505506,137.275904 41.4540831,137.395773 C42.1579839,137.515825 42.862805,137.886644 43.567442,138.508415 C44.0672041,138.94928 44.4482383,139.428017 44.7103603,139.944076 C44.9724823,140.460134 45.1287615,140.973986 45.1784616,141.485081 C45.2285299,141.995992 45.176989,142.486311 45.0242072,142.955489 C44.8719777,143.42485 44.6312083,143.844941 44.3026354,144.216128" id="Fill-44" fill="#2A2A34"></path>
                <path d="M22.8045427,129.895827 C22.9595334,130.208 23.1412149,130.499397 23.3499553,130.769652 C23.6216492,131.121535 23.925188,131.416058 24.2596513,131.65414 C24.595035,131.892222 24.9596865,132.042609 25.3536058,132.105668 C25.7478933,132.168728 26.1791797,132.132694 26.6474651,131.998301 C27.1161187,131.863909 27.621219,131.587955 28.1623979,131.17099 L32.7320463,127.650321 L34.8157692,130.348275 L24.8236554,138.046315 L22.8025179,135.429805 L24.2850536,134.287564 C23.8454838,134.389231 23.4294755,134.402468 23.0362925,134.327459 C22.6440298,134.252633 22.2918953,134.124675 21.979521,133.944689 C21.6676989,133.764335 21.3895624,133.558059 21.1451115,133.325677 C20.9008447,133.093294 20.6954176,132.869001 20.5280939,132.652429 C20.4447082,132.544327 20.3670287,132.43696 20.2954238,132.330329 C20.224187,132.223514 20.1535024,132.111183 20.0831859,131.992418 L22.8045427,129.895827 Z" id="Fill-46" fill="#2A2A34"></path>
                <path d="M16.1412314,118.173873 C16.241552,118.507739 16.3715086,118.825427 16.5318374,119.126936 C16.7403938,119.519449 16.9899988,119.860669 17.279732,120.151699 C17.5702014,120.442729 17.9042966,120.651947 18.2820174,120.780456 C18.6601063,120.908965 19.0912087,120.945734 19.5755086,120.892051 C20.0601766,120.838 20.6044848,120.650843 21.2084331,120.330582 L26.3054548,117.627664 L27.9052459,120.636871 L16.7595375,126.547551 L15.2077899,123.628797 L16.8615148,122.751847 C16.4109005,122.778321 15.9985737,122.721328 15.6239822,122.581421 C15.2497588,122.441697 14.923763,122.256563 14.6465468,122.02657 C14.3693307,121.796578 14.1298498,121.546546 13.9282883,121.276475 C13.7263586,121.00622 13.561612,120.750672 13.433128,120.509281 C13.3690701,120.388678 13.3107185,120.269545 13.2580732,120.152434 C13.2057961,120.03514 13.1549915,119.912514 13.1056596,119.783821 L16.1412314,118.173873 Z" id="Fill-48" fill="#2A2A34"></path>
                <path d="M20.3108308,102.193986 C20.1895257,102.265503 20.0078443,102.34566 19.7665226,102.433907 C19.5253851,102.522705 19.2816705,102.60323 19.035563,102.675298 C19.7066984,102.834509 20.261867,103.192275 20.701805,103.748045 C21.1417429,104.304366 21.4557739,104.901685 21.6440821,105.540737 C21.8611059,106.278147 21.925532,106.966838 21.8379125,107.606625 C21.7502931,108.246596 21.5513086,108.825898 21.2402228,109.344347 C20.9295051,109.862979 20.5133127,110.310279 19.9910935,110.686062 C19.4694265,111.062029 18.8800201,111.346256 18.2236105,111.538928 L10.5708991,113.787193 L9.60818966,110.518393 L16.5965764,108.465374 C17.2855671,108.263143 17.8122041,107.917326 18.1759353,107.427558 C18.5396664,106.937974 18.6081421,106.308114 18.3813624,105.537795 C18.1643386,104.800569 17.7763096,104.300505 17.2176436,104.037236 C16.6587936,103.774151 16.026866,103.746206 15.3213086,103.953402 L8.28358987,106.020945 L7.32106453,102.752146 L17.2378918,99.8389067 C17.7139084,99.699183 18.140777,99.5603785 18.518866,99.4226772 C18.8973231,99.2847919 19.1883448,99.1682329 19.391563,99.0728164 L20.3108308,102.193986 Z" id="Fill-50" fill="#2A2A34"></path>
                <path d="M14.7713677,88.7344577 C14.7260854,87.8646777 14.398801,87.1677138 13.7891464,86.6435661 C13.1800441,86.1196022 12.3881557,85.8826235 11.4149541,85.9331814 C10.4415684,85.9837393 9.68410196,86.3141123 9.14218676,86.9233812 C8.60045564,87.5332016 8.3506666,88.2472632 8.39337187,89.0659338 C8.41546081,89.4922749 8.50897063,89.8853397 8.67298097,90.244209 C8.83735946,90.6036299 9.06726846,90.9123089 9.36326019,91.1704301 C9.65925191,91.4285512 10.0078889,91.6241644 10.408435,91.7572696 C10.8093491,91.8903748 11.2489189,91.9444258 11.7267762,91.9196065 C12.7172809,91.8683132 13.483951,91.5462133 14.0266025,90.9536745 C14.5696221,90.3611357 14.8175704,89.6215193 14.7713677,88.7344577 L14.7713677,88.7344577 Z M18.3028362,91.9370719 C18.9966128,91.7815374 19.5519655,91.4360889 19.9696304,90.9012781 C20.3869272,90.3666511 20.5744991,89.6899104 20.5317938,88.8714237 C20.4758352,87.7968382 20.1548093,86.9840507 19.5700048,86.4330613 C18.984648,85.8820719 18.0775291,85.6382909 16.8479117,85.7022696 L15.9258827,85.7500698 C16.3488858,85.9846586 16.7420689,86.3834226 17.1052478,86.9458105 C17.4686108,87.5085661 17.6742219,88.2502048 17.7222654,89.1710943 C17.7657069,90.0070464 17.6525011,90.7907861 17.3822798,91.5232324 C17.1122426,92.2554949 16.717771,92.8960177 16.1983129,93.4446171 C15.6790389,93.9932165 15.0553946,94.4362877 14.3281164,94.7729115 C13.6010223,95.1102707 12.7934877,95.3018392 11.9053284,95.3479848 C11.0688941,95.3913727 10.2712995,95.287683 9.51328087,95.0359965 C8.75526225,94.7846777 8.08136567,94.417903 7.49103888,93.9354885 C6.90108025,93.4530741 6.4250637,92.8620061 6.06317332,92.1626522 C5.70165109,91.4631145 5.49788066,90.6786394 5.45259835,89.8086756 C5.40013713,88.8024811 5.53819297,88.0001729 5.8665818,87.4015672 C6.19497063,86.8033291 6.56716918,86.3819519 6.98225708,86.1378031 L5.49659214,86.2150188 L5.32595512,82.9403366 L16.5708796,82.3560709 C17.4417359,82.3108445 18.2807473,82.3915533 19.0877297,82.5972781 C19.8947121,82.8035544 20.6148114,83.1552537 21.2487638,83.652192 C21.882164,84.1494981 22.4043832,84.8065672 22.8154215,85.6230316 C23.2259075,86.4398637 23.4620751,87.4363142 23.5233719,88.6131187 C23.5688383,89.4830826 23.4856366,90.2785884 23.2754236,90.9990847 C23.0642902,91.7197648 22.7635125,92.3553238 22.3727224,92.9055778 C21.9817483,93.4561995 21.5171444,93.9080953 20.9794629,94.2607138 C20.4412292,94.6137 19.8753843,94.8482887 19.2824805,94.96448 L18.3028362,91.9370719 Z" id="Fill-52" fill="#2A2A34"></path>
                <path d="M18.5214614,77.0636313 L6.00734354,75.4369533 L6.44764964,72.0582137 L18.9617675,73.6850756 L18.5214614,77.0636313 Z M1.85922565,75.3108343 C1.26595367,75.2338024 0.792146019,74.9655697 0.438170838,74.50632 C0.0840115822,74.0468864 -0.0553327818,73.5293572 0.0197695967,72.9533646 C0.0970808687,72.3608258 0.364909204,71.8918322 0.823806825,71.5467514 C1.28270445,71.2020384 1.80897332,71.0676462 2.40224529,71.144862 C2.96183164,71.2174815 3.4190726,71.4796473 3.77415222,71.9302562 C4.12941593,72.3814167 4.26820807,72.9031744 4.19108087,73.4957132 C4.11597849,74.0717057 3.8485183,74.536287 3.38870031,74.8898248 C2.92869824,75.2433625 2.418812,75.3836377 1.85922565,75.3108343 L1.85922565,75.3108343 Z" id="Fill-54" fill="#2A2A34"></path>
                <path d="M19.0365202,63.5590601 C19.1432834,63.2167371 19.2014509,62.8725756 19.2106546,62.5265756 C19.2202265,62.1807594 19.1524871,61.8511218 19.0083568,61.5380304 C18.8644105,61.224939 18.6398397,60.9405277 18.3342761,60.6844289 C18.0290807,60.4285139 17.6069979,60.2169061 17.068212,60.0494215 L16.5294261,59.881753 L16.0994281,62.7262334 C16.0326091,63.1707753 16.0731055,63.572481 16.2207332,63.9311664 C16.368545,64.2902196 16.6792627,64.5433768 17.1527022,64.6904544 C17.5120155,64.8020495 17.8751944,64.7722663 18.2418707,64.5998179 C18.6090993,64.4281048 18.8737983,64.0813694 19.0365202,63.5590601 M16.3344912,68.0044799 C15.7957053,67.8369953 15.3472999,67.5948689 14.9894592,67.2777328 C14.6314343,66.9609645 14.3485119,66.5912482 14.1397715,66.1684002 C13.9313992,65.7459199 13.8047559,65.2907148 13.7596577,64.8026011 C13.7149276,64.314855 13.7305739,63.8054151 13.8062285,63.2742812 L14.2881355,60.1775628 C14.3459349,59.8197966 14.3177715,59.5521154 14.2030931,59.3728646 C14.0887828,59.194533 13.9255088,59.0719071 13.7130869,59.0060899 C13.2887952,58.8739039 12.8691055,58.9272196 12.4547539,59.1647498 C12.0404023,59.4026478 11.7263713,59.8639199 11.5128449,60.5487498 C11.2891944,61.2664884 11.3134922,61.8777796 11.5859224,62.3824395 C11.8583526,62.887651 12.2482223,63.2457849 12.7553475,63.4572089 L11.2431758,66.1531409 C10.7851986,65.9569762 10.3575936,65.6630049 9.96017684,65.2710431 C9.56312823,64.8792652 9.24283868,64.413397 8.99930817,63.8723354 C8.75596174,63.3316414 8.61256774,62.7148349 8.56894209,62.0211802 C8.52550052,61.3280772 8.63060703,60.5739369 8.88462978,59.7583917 C9.17951706,58.8128667 9.55779007,58.0451218 10.0192647,57.4547892 C10.4809235,56.8651919 10.9843671,56.4269007 11.530332,56.1404672 C12.0762968,55.8542174 12.6563154,55.7038306 13.2696515,55.6887552 C13.8833557,55.6740474 14.4924581,55.7604555 15.0962223,55.9479794 L21.0228676,57.7910453 C21.3495998,57.8925288 21.7013661,57.9844523 22.0787187,58.0657126 C22.4562554,58.1475245 22.7564809,58.2052525 22.9786587,58.238345 L22.0483464,61.2223651 C21.8753164,61.204532 21.641726,61.1629826 21.3483113,61.0984523 C21.0552647,61.0342897 20.7942472,60.966634 20.5654426,60.8953014 C20.9426112,61.3527126 21.2203795,61.926499 21.3987477,62.6166606 C21.5772999,63.3073736 21.5270476,64.1012249 21.2476225,64.9978465 C21.0493744,65.6339571 20.7679245,66.1768572 20.4038252,66.6270984 C20.03991,67.0773396 19.634394,67.4299581 19.1878294,67.6844023 C18.7414488,67.9393981 18.2724271,68.0930942 17.7813164,68.1458582 C17.2905739,68.19899 16.8081148,68.1519252 16.3344912,68.0044799" id="Fill-56" fill="#2A2A34"></path>
                <path d="M60.9653866,84.5011973 L60.9653866,71.730819 C60.9653866,58.8113408 69.8836099,48.3381304 80.8846358,48.3381304 L97.8566689,48.3381304 C108.857695,48.3381304 117.775918,58.8113408 117.775918,71.730819 L117.775918,84.5011973 L60.9653866,84.5011973 Z" id="Fill-58" fill="#2A2A34"></path>
                <path d="M113.562804,74.3627906 L113.562804,104.136991 C113.562804,110.844281 105.787498,116.772794 100.148009,120.186281 C96.8324602,122.192603 93.0357404,123.247149 89.1583961,123.247149 C85.2821562,123.247149 81.5038438,122.192603 78.1871903,120.186281 C72.5488056,116.772794 64.7830724,110.844281 64.7830724,104.136991 L64.7830724,74.3627906 C64.7830724,70.575543 67.840181,67.4858108 71.6332192,67.4858108 L106.70198,67.4858108 C110.49373,67.4858108 113.562804,70.575543 113.562804,74.3627906" id="Fill-60" fill="#FFFFFF"></path>
                <path d="M119.705368,88.8495643 C119.450057,91.7129809 117.220915,93.9509501 114.528274,93.9509501 C114.204119,93.9509501 113.930952,93.9187768 113.562804,93.8555335 L113.562804,94.3434633 C111.169836,93.8577396 109.345105,92.1742529 109.345105,89.4040468 C109.345105,89.2167067 109.361488,89.032492 109.378055,88.8495643 C109.602442,86.3310446 111.345627,84.2949394 113.592992,83.842492 C113.90058,83.7792487 114.219029,83.7470755 114.543368,83.7470755 C117.236009,83.7470755 119.450057,85.9861477 119.705368,88.8495643" id="Fill-62" fill="#D8DDE9"></path>
                <path d="M58.6186949,88.8495643 C58.8740062,91.7129809 61.1140083,93.9509501 63.8066494,93.9509501 C64.1309886,93.9509501 64.4148314,93.9187768 64.7829804,93.8555335 L64.7829804,94.3434633 C67.1759483,93.8577396 68.989818,92.1742529 68.989818,89.4040468 C68.989818,89.2167067 68.9680972,89.032492 68.9513464,88.8495643 C68.7271437,86.3310446 66.9811975,84.2949394 64.7338325,83.842492 C64.4262441,83.7792487 64.1063226,83.7470755 63.7819835,83.7470755 C61.0895264,83.7470755 58.8740062,85.9861477 58.6186949,88.8495643" id="Fill-64" fill="#D8DDE9"></path>
                <path d="M116.398305,76.6161662 L84.5854527,76.6161662 C78.4670019,76.6161662 73.4607289,71.616264 73.4607289,65.5051906 L73.4607289,59.1052937 C73.4607289,58.3733989 74.0604434,57.7744255 74.7932438,57.7744255 L115.06579,57.7744255 C115.798774,57.7744255 116.398305,58.3733989 116.398305,59.1052937 L116.398305,76.6161662 Z" id="Fill-66" fill="#D8DDE9"></path>
                <path d="M93.2440575,45.9027463 L104.925054,45.9027463 C109.694608,45.9027463 113.59717,49.8003021 113.59717,54.5641448 L113.59717,54.5641448 C113.59717,55.2960396 112.997456,55.8950131 112.264655,55.8950131 L85.9044567,55.8950131 C85.1714722,55.8950131 84.5719417,55.2960396 84.5719417,54.5641448 L84.5719417,54.5641448 C84.5719417,49.8003021 88.4743202,45.9027463 93.2440575,45.9027463" id="Fill-68" fill="#2A2A34"></path>
                <path d="M111.057292,73.2891795 L85.4639481,73.2891795 C80.6943948,73.2891795 76.7918323,69.3916237 76.7918323,64.627781 L76.7918323,55.778307 C76.7918323,55.0464122 77.3915468,54.4474388 78.1243473,54.4474388 L118.396893,54.4474388 C119.129878,54.4474388 119.729408,55.0464122 119.729408,55.778307 L119.729408,64.627781 C119.729408,69.3916237 115.82703,73.2891795 111.057292,73.2891795" id="Fill-70" fill="#2A2A34"></path>
                <mask id="mask-2" fill="white">
                    <use xlink:href="#path-1"></use>
                </mask>
                <g id="Clip-73"></g>
                <polygon id="Fill-72" fill="#2A2A34" mask="url(#mask-2)" points="72.2510651 67.4365399 78.6356877 67.4365399 78.6356877 56.7070468 72.2510651 56.7070468"></polygon>
                <polygon id="Fill-74" fill="#2A2A34" mask="url(#mask-2)" points="113.597133 77.7306833 117.775992 77.7306833 117.775992 67.4725739 113.597133 67.4725739"></polygon>
                <path d="M67.5453305,96.579208 C68.7745797,100.368846 70.6302343,103.92463 73.0248589,107.109411 C73.5334567,107.785968 74.6909169,107.123383 74.1753243,106.437634 C71.8491754,103.344041 70.0246294,99.9079412 68.8301702,96.2254864 C68.5669437,95.4141697 67.2798951,95.7612728 67.5453305,96.579208" id="Fill-75" fill="#FFFFFF" mask="url(#mask-2)"></path>
                <path d="M71.2463499,99.0328296 L71.2463499,99.0328296 C70.9223789,99.3306617 70.3924285,99.3306617 70.0684575,99.0328296 L68.8758391,97.9363663 C68.551868,97.6387181 68.551868,97.1513397 68.8758391,96.8536915 L68.8758391,96.8536915 C69.1996261,96.5558594 69.7297605,96.5558594 70.0535475,96.8536915 L71.2463499,97.9501548 C71.570321,98.2478031 71.570321,98.7349976 71.2463499,99.0328296" id="Fill-76" fill="#2A2A34" mask="url(#mask-2)"></path>
                <path d="M70.4607202,104.369301 L70.4607202,104.369301 C70.1367491,104.667133 69.6067988,104.667133 69.2828277,104.369301 L68.0902093,103.272837 C67.7662383,102.975189 67.7662383,102.487811 68.0902093,102.190162 C68.4139963,101.89233 68.9441307,101.89233 69.2679177,102.190162 L70.4607202,103.286626 C70.7846912,103.584274 70.7846912,104.071468 70.4607202,104.369301" id="Fill-77" fill="#2A2A34" mask="url(#mask-2)"></path>
                <path d="M71.2463499,109.890225 L71.2463499,109.890225 C70.9223789,110.188057 70.3924285,110.188057 70.0684575,109.890225 L68.8758391,108.793762 C68.551868,108.496113 68.551868,108.008735 68.8758391,107.711087 L68.8758391,107.711087 C69.1996261,107.413255 69.7297605,107.413255 70.0535475,107.711087 L71.2463499,108.80755 C71.570321,109.105199 71.570321,109.592393 71.2463499,109.890225" id="Fill-78" fill="#2A2A34" mask="url(#mask-2)"></path>
                <path d="M77.4199127,111.458311 L77.4199127,111.458311 C77.0959417,111.756143 76.5659913,111.756143 76.2420203,111.458311 L75.0494019,110.361848 C74.7254308,110.064199 74.7254308,109.576821 75.0494019,109.279173 C75.3731888,108.981341 75.9033233,108.981341 76.2271102,109.279173 L77.4199127,110.375636 C77.7438838,110.673284 77.7438838,111.160479 77.4199127,111.458311" id="Fill-79" fill="#2A2A34" mask="url(#mask-2)"></path>
                <path d="M82.4535576,116.085519 L82.4535576,116.085519 C82.1295866,116.383351 81.5996362,116.383351 81.2756651,116.085519 L80.0830467,114.989055 C79.7590757,114.691407 79.7590757,114.204029 80.0830467,113.906381 C80.4068337,113.608548 80.9369681,113.608548 81.2607551,113.906381 L82.4535576,115.002844 C82.7775286,115.300492 82.7775286,115.787687 82.4535576,116.085519" id="Fill-80" fill="#2A2A34" mask="url(#mask-2)"></path>
                <path d="M107.574604,99.0328296 L107.574604,99.0328296 C107.898575,99.3306617 108.428525,99.3306617 108.752496,99.0328296 L109.945115,97.9363663 C110.269086,97.6387181 110.269086,97.1513397 109.945115,96.8536915 C109.621328,96.5558594 109.091193,96.5558594 108.767406,96.8536915 L107.574604,97.9501548 C107.250633,98.2478031 107.250633,98.7349976 107.574604,99.0328296" id="Fill-81" fill="#2A2A34" mask="url(#mask-2)"></path>
                <path d="M108.360234,104.369301 L108.360234,104.369301 C108.684205,104.667133 109.214155,104.667133 109.538126,104.369301 L110.730744,103.272837 C111.054715,102.975189 111.054715,102.487811 110.730744,102.190162 L110.730744,102.190162 C110.406957,101.89233 109.876823,101.89233 109.553036,102.190162 L108.360234,103.286626 C108.036262,103.584274 108.036262,104.071468 108.360234,104.369301" id="Fill-82" fill="#2A2A34" mask="url(#mask-2)"></path>
                <path d="M107.574604,109.890225 L107.574604,109.890225 C107.898575,110.188057 108.428525,110.188057 108.752496,109.890225 L109.945115,108.793762 C110.269086,108.496113 110.269086,108.008735 109.945115,107.711087 L109.945115,107.711087 C109.621328,107.413255 109.091193,107.413255 108.767406,107.711087 L107.574604,108.80755 C107.250633,109.105199 107.250633,109.592393 107.574604,109.890225" id="Fill-83" fill="#2A2A34" mask="url(#mask-2)"></path>
                <path d="M101.401059,111.458311 L101.401059,111.458311 C101.72503,111.756143 102.254981,111.756143 102.578952,111.458311 L103.77157,110.361848 C104.095541,110.064199 104.095541,109.576821 103.77157,109.279173 L103.77157,109.279173 C103.447783,108.981341 102.917649,108.981341 102.593862,109.279173 L101.401059,110.375636 C101.077088,110.673284 101.077088,111.160479 101.401059,111.458311" id="Fill-84" fill="#2A2A34" mask="url(#mask-2)"></path>
                <path d="M96.3575481,116.094564 L96.3575481,116.094564 C96.6815191,116.392396 97.2114695,116.392396 97.5354405,116.094564 L98.7280589,114.998101 C99.05203,114.700452 99.05203,114.213074 98.7280589,113.915426 C98.404272,113.617594 97.8741375,113.617594 97.5503506,113.915426 L96.3575481,115.011889 C96.033577,115.309537 96.033577,115.796732 96.3575481,116.094564" id="Fill-85" fill="#2A2A34" mask="url(#mask-2)"></path>
                <path d="M90.636514,89.2730006 C91.2712027,90.486023 91.8917177,91.8523736 91.887484,93.2497945 C91.8849069,94.0519188 91.6321727,94.7067817 91.0878645,95.2066616 C90.1658356,96.0532769 88.658818,96.251464 87.3511531,96.2531186 C86.9968097,96.2536701 86.6386008,96.2439262 86.2866505,96.2010899 C85.4373309,96.0977679 85.444878,97.4295554 86.2866505,97.5317743 C89.1252627,97.876855 92.9223506,96.9787626 93.205273,93.6013099 C93.35106,91.8611983 92.5731613,90.1038051 91.7869793,88.6014077 C91.3897466,87.8419358 90.2394654,88.5140803 90.636514,89.2730006" id="Fill-86" fill="#2A2A34" mask="url(#mask-2)"></path>
                <path d="M95.1951915,105.980149 C94.9685959,106.059939 94.7410798,106.137706 94.5122753,106.209774 C93.0199837,106.687776 91.4765193,107.008222 89.9087572,107.093527 C87.7902443,107.210086 85.6316031,106.837428 83.7372929,105.864877 C82.9989702,105.485601 82.2161016,104.994178 81.660933,104.366524 C81.6487841,104.352184 81.6364511,104.33766 81.6254066,104.324423 C80.852662,103.36511 82.2328523,102.004459 83.0744407,102.954764 C83.1289268,103.016904 83.188751,103.073529 83.2487593,103.12997 C83.319812,103.197625 83.3930736,103.261972 83.4676238,103.325215 C83.5097768,103.360698 83.5530343,103.395077 83.5951874,103.43056 C83.5973963,103.431663 83.5985007,103.432766 83.6007096,103.433869 C83.6064159,103.438281 83.6130426,103.442877 83.6196693,103.44729 C83.9171336,103.653566 84.214782,103.85304 84.5334149,104.028246 C84.5890054,104.058213 84.6445959,104.08818 84.7011067,104.118147 C84.8421078,104.190215 84.9853177,104.258974 85.1287117,104.32663 C85.1642381,104.342073 85.1997644,104.358803 85.2363952,104.374246 C85.2430219,104.377739 85.2496486,104.381048 85.2573797,104.383255 C85.2595886,104.384358 85.2606931,104.384358 85.262902,104.385461 C85.2663994,104.387667 85.2697127,104.38877 85.2730261,104.389873 C85.2840705,104.394285 85.2962194,104.398698 85.3107613,104.405316 C85.4305938,104.452013 85.5517148,104.498527 85.6726517,104.540628 C88.5985152,105.574215 91.7631233,105.082976 94.6634004,104.054904 C95.2995617,103.829875 95.7448378,104.249046 95.8525214,104.762531 C95.9524738,105.229318 95.7704242,105.776079 95.1951915,105.980149" id="Fill-87" fill="#2A2A34" mask="url(#mask-2)"></path>
                <path d="M104.088767,85.859661 C104.088767,87.6510659 102.634763,89.1032731 100.841142,89.1032731 C99.0475202,89.1032731 97.593516,87.6510659 97.593516,85.859661 C97.593516,84.0682561 99.0475202,82.6160489 100.841142,82.6160489 C102.634763,82.6160489 104.088767,84.0682561 104.088767,85.859661" id="Fill-88" fill="#2A2A34" mask="url(#mask-2)"></path>
                <path d="M80.9373547,85.8487956 C80.9373547,87.6402005 79.4833506,89.0924078 77.6897291,89.0924078 C75.8961075,89.0924078 74.4421034,87.6402005 74.4421034,85.8487956 C74.4421034,84.0573908 75.8961075,82.6051835 77.6897291,82.6051835 C79.4833506,82.6051835 80.9373547,84.0573908 80.9373547,85.8487956" id="Fill-89" fill="#2A2A34" mask="url(#mask-2)"></path>
                <path d="M82.3329704,80.4425732 L73.0464141,80.4425732 C72.4052827,80.4425732 71.8806705,79.9186094 71.8806705,79.2782704 L71.8806705,79.2782704 C71.8806705,78.6377475 72.4052827,78.1137836 73.0464141,78.1137836 L82.3329704,78.1137836 C82.9741018,78.1137836 83.498714,78.6377475 83.498714,79.2782704 L83.498714,79.2782704 C83.498714,79.9186094 82.9741018,80.4425732 82.3329704,80.4425732" id="Fill-90" fill="#2A2A34" mask="url(#mask-2)"></path>
                <path d="M105.484383,80.4425548 L96.1978267,80.4425548 C95.5566953,80.4425548 95.0320831,79.918591 95.0320831,79.278252 C95.0320831,78.6377291 95.5566953,78.1137652 96.1978267,78.1137652 L105.484383,78.1137652 C106.125514,78.1137652 106.650127,78.6377291 106.650127,79.278252 C106.650127,79.918591 106.125514,80.4425548 105.484383,80.4425548" id="Fill-91" fill="#2A2A34" mask="url(#mask-2)"></path>
                <path d="M119.729795,88.2950634 C119.729795,88.4824035 119.722064,88.6666182 119.705313,88.8495459 C119.450002,91.7129625 117.238163,93.9509317 114.545522,93.9509317 C114.221183,93.9509317 113.904759,93.9187584 113.59717,93.8555151 C111.349805,93.4030677 107.390364,91.3680656 107.165977,88.8495459 C107.14941,88.6666182 107.141679,88.4824035 107.141679,88.2950634 C107.141679,85.5248573 111.18782,83.2192324 113.59717,82.7335087 C113.904759,82.6702654 114.221183,82.6380921 114.545522,82.6380921 C117.409168,82.6380921 119.729795,85.1709519 119.729795,88.2950634" id="Fill-92" fill="#FFFFFF" mask="url(#mask-2)"></path>
                <path d="M114.668944,87.4292361 C115.118454,87.7482106 115.675831,88.1846633 115.272156,88.6198291 C115.147905,88.7538536 114.996596,88.847064 114.82191,88.9439513 C114.710913,89.0053562 114.424861,89.1241214 114.627895,89.0456187 C113.836375,89.3509885 114.18041,90.638285 114.982054,90.3288706 C115.580849,90.0979588 116.180011,89.7275071 116.524414,89.1721054 C117.248747,88.0039418 116.259163,86.9315624 115.341552,86.2801926 C114.641149,85.7830704 113.974983,86.9367101 114.668944,87.4292361" id="Fill-93" fill="#2A2A34" mask="url(#mask-2)"></path>
                <path d="M71.135666,88.2948428 C71.135666,91.4187706 66.594181,93.9512626 63.7312709,93.9512626 C60.868545,93.9512626 58.5477342,91.4187706 58.5477342,88.2948428 C58.5477342,85.1709151 60.868545,82.6384231 63.7312709,82.6384231 C66.594181,82.6384231 71.135666,85.1709151 71.135666,88.2948428" id="Fill-94" fill="#FFFFFF" mask="url(#mask-2)"></path>
                <path d="M62.5978693,86.6204565 C62.0526407,87.6262833 61.7060285,89.0163503 62.8791351,89.7269188 C63.3752157,90.0273248 64.0428538,90.123109 64.6158776,90.0686903 C65.4620678,89.9881654 65.4703512,88.6565617 64.6158776,88.7378221 C64.4936521,88.7494045 64.3694019,88.7494045 64.2468083,88.7448083 C64.1888248,88.7426021 63.9057183,88.709142 64.0596046,88.7341452 C63.9250461,88.7122674 63.7897514,88.6832196 63.6616356,88.6359709 C63.5526635,88.5957084 63.4492137,88.5278689 63.4171847,88.419583 C63.3974887,88.3528465 63.3976728,88.2061367 63.4311744,88.0506021 C63.489526,87.7803471 63.6178259,87.5330729 63.7483346,87.2920495 C64.1566118,86.5388285 63.0066987,85.8663163 62.5978693,86.6204565" id="Fill-95" fill="#2A2A34" mask="url(#mask-2)"></path>
            </g>
        </g>
    </g>
</svg>