<?xml version="1.0" encoding="iso-8859-1"?>
<!-- Generator: Adobe Illustrator 19.0.0, SVG Export Plug-In . SVG Version: 6.00 Build 0)  -->
<svg version="1.1" baseProfile="tiny" id="Layer_1" xmlns="http://www.w3.org/2000/svg" xmlns:xlink="http://www.w3.org/1999/xlink"
	 x="0px" y="0px" viewBox="0 0 1369.244 834.857" xml:space="preserve">
<g id="XMLID_167_">
	<rect id="XMLID_77_" x="86.1" y="267.9" fill="#FFFFFF" width="1199.234" height="523.732"/>
	<g id="XMLID_76_">
		<g id="XMLID_111_">
			<g id="XMLID_1941_">
				<rect id="XMLID_1939_" x="191.167" y="8.701" fill="#F19AC1" width="245.5" height="144.156"/>
			</g>
			<g id="XMLID_1979_">
				<g id="XMLID_2202_">
					<path id="XMLID_164_" fill="#41414F" d="M430.251,0H197.879c-7.493,0-13.564,5.6-13.564,12.512V161h259.5V12.512
						C443.815,5.6,437.745,0,430.251,0z M433.834,151.17H194.296V9.839h239.538V151.17z"/>
				</g>
			</g>
			<path id="XMLID_2144_" fill="#D5D5D5" d="M158.333,160.857h312v3.646c0,0.903-0.235,1.909-0.835,2.639
				c-1.23,1.522-3.475,2.715-6.175,2.715h-297.89c-2.7,0-4.99-0.973-6.22-2.495"/>
			<image width="312" height="3" id="XMLID_1999_" xlink:href="9F5158E0.png"  transform="matrix(1 0 0 1 158.3333 166.8566)">
			</image>
			<path id="XMLID_1985_" fill="#ABABAB" d="M350.846,163.794h-72.917c-3.99,0-7.224-0.163-7.224-2.935v0h87.365v0
				C358.07,163.631,354.836,163.794,350.846,163.794z"/>
			<g id="XMLID_1930_">
				<path id="XMLID_1989_" fill="#FFFFFF" d="M247.538,86.122c0-0.876,0.152-1.651,0.458-2.328c0.304-0.677,0.722-1.267,1.253-1.771
					c0.53-0.504,1.147-0.901,1.851-1.194c0.702-0.291,1.466-0.503,2.288-0.637l4.814-0.716c0.558-0.08,0.941-0.245,1.154-0.498
					c0.212-0.251,0.318-0.55,0.318-0.895c0-0.689-0.272-1.287-0.815-1.791c-0.544-0.504-1.373-0.756-2.487-0.756
					c-1.168,0-2.063,0.318-2.687,0.955s-0.975,1.38-1.054,2.229l-4.696-0.995c0.08-0.77,0.318-1.538,0.717-2.308
					c0.397-0.77,0.941-1.459,1.632-2.069c0.689-0.61,1.538-1.107,2.546-1.492s2.176-0.577,3.502-0.577
					c1.538,0,2.852,0.206,3.939,0.616c1.088,0.412,1.97,0.955,2.646,1.632s1.167,1.466,1.473,2.368
					c0.305,0.901,0.457,1.844,0.457,2.825v9.63c0,0.53,0.026,1.094,0.08,1.69c0.053,0.598,0.105,1.068,0.159,1.413h-4.854
					c-0.054-0.265-0.1-0.63-0.14-1.095c-0.04-0.464-0.06-0.881-0.06-1.253c-0.505,0.77-1.228,1.446-2.169,2.029
					c-0.942,0.583-2.143,0.875-3.602,0.875c-1.034,0-1.97-0.166-2.805-0.497c-0.836-0.331-1.546-0.769-2.129-1.313
					c-0.584-0.543-1.029-1.167-1.333-1.87C247.69,87.628,247.538,86.892,247.538,86.122z M255.377,88.071
					c0.558,0,1.095-0.072,1.612-0.219c0.517-0.146,0.975-0.397,1.372-0.756c0.398-0.358,0.717-0.822,0.955-1.393
					c0.239-0.57,0.358-1.293,0.358-2.169V82.66l-4.417,0.676c-0.69,0.106-1.268,0.353-1.731,0.736
					c-0.464,0.385-0.696,0.962-0.696,1.731c0,0.584,0.213,1.107,0.637,1.571C253.891,87.84,254.528,88.071,255.377,88.071z"/>
				<path id="XMLID_1997_" fill="#FFFFFF" d="M278.894,76.174c-0.69,0-1.333,0.119-1.931,0.357
					c-0.597,0.239-1.121,0.591-1.571,1.055c-0.451,0.465-0.81,1.042-1.074,1.731c-0.266,0.69-0.398,1.473-0.398,2.348
					s0.133,1.658,0.398,2.348c0.265,0.69,0.63,1.273,1.094,1.751s0.995,0.836,1.592,1.074c0.597,0.239,1.24,0.358,1.93,0.358
					c0.663,0,1.254-0.1,1.771-0.299c0.517-0.198,0.961-0.457,1.333-0.775c0.371-0.318,0.669-0.677,0.896-1.074
					c0.225-0.398,0.391-0.782,0.497-1.154l4.655,1.552c-0.212,0.822-0.563,1.625-1.054,2.407c-0.491,0.783-1.121,1.486-1.891,2.109
					c-0.77,0.624-1.671,1.128-2.706,1.512c-1.034,0.385-2.202,0.577-3.502,0.577c-1.433,0-2.779-0.259-4.039-0.775
					c-1.26-0.518-2.354-1.24-3.282-2.169c-0.929-0.929-1.658-2.022-2.188-3.283c-0.531-1.26-0.796-2.646-0.796-4.158
					s0.259-2.905,0.775-4.179c0.518-1.272,1.233-2.367,2.149-3.282c0.915-0.915,1.989-1.632,3.223-2.149
					c1.233-0.517,2.566-0.775,3.999-0.775c1.326,0,2.514,0.192,3.562,0.577s1.956,0.882,2.727,1.492
					c0.769,0.61,1.393,1.313,1.87,2.108s0.821,1.605,1.034,2.428l-4.735,1.592c-0.238-0.822-0.696-1.578-1.373-2.269
					C281.182,76.519,280.193,76.174,278.894,76.174z"/>
				<path id="XMLID_2005_" fill="#FFFFFF" d="M303.128,80.113l7.998,11.341h-6.486l-5.173-7.481l-2.188,2.309v5.173h-5.293V62.644
					h5.293v16.515l6.765-7.282h6.924L303.128,80.113z"/>
				<path id="XMLID_2170_" fill="#FFFFFF" d="M312.558,86.122c0-0.876,0.152-1.651,0.458-2.328c0.304-0.677,0.722-1.267,1.253-1.771
					c0.53-0.504,1.147-0.901,1.851-1.194c0.702-0.291,1.466-0.503,2.288-0.637l4.814-0.716c0.558-0.08,0.941-0.245,1.154-0.498
					c0.212-0.251,0.318-0.55,0.318-0.895c0-0.689-0.272-1.287-0.815-1.791c-0.544-0.504-1.373-0.756-2.487-0.756
					c-1.168,0-2.063,0.318-2.687,0.955s-0.975,1.38-1.054,2.229l-4.696-0.995c0.08-0.77,0.318-1.538,0.717-2.308
					c0.397-0.77,0.941-1.459,1.632-2.069c0.689-0.61,1.538-1.107,2.546-1.492s2.176-0.577,3.502-0.577
					c1.538,0,2.852,0.206,3.939,0.616c1.088,0.412,1.97,0.955,2.646,1.632s1.167,1.466,1.473,2.368
					c0.305,0.901,0.457,1.844,0.457,2.825v9.63c0,0.53,0.026,1.094,0.08,1.69c0.053,0.598,0.105,1.068,0.159,1.413h-4.854
					c-0.054-0.265-0.1-0.63-0.14-1.095c-0.04-0.464-0.06-0.881-0.06-1.253c-0.505,0.77-1.228,1.446-2.169,2.029
					c-0.942,0.583-2.143,0.875-3.602,0.875c-1.034,0-1.97-0.166-2.805-0.497c-0.836-0.331-1.546-0.769-2.129-1.313
					c-0.584-0.543-1.029-1.167-1.333-1.87C312.711,87.628,312.558,86.892,312.558,86.122z M320.397,88.071
					c0.558,0,1.095-0.072,1.612-0.219c0.517-0.146,0.975-0.397,1.372-0.756c0.398-0.358,0.717-0.822,0.955-1.393
					c0.239-0.57,0.358-1.293,0.358-2.169V82.66l-4.417,0.676c-0.69,0.106-1.268,0.353-1.731,0.736
					c-0.464,0.385-0.696,0.962-0.696,1.731c0,0.584,0.213,1.107,0.637,1.571C318.912,87.84,319.548,88.071,320.397,88.071z"/>
				<path id="XMLID_2179_" fill="#FFFFFF" d="M341.607,71.876h3.939v4.695h-3.939v8.197c0,0.85,0.191,1.439,0.576,1.771
					s0.962,0.497,1.731,0.497c0.318,0,0.637-0.013,0.955-0.04c0.318-0.026,0.543-0.065,0.677-0.119v4.377
					c-0.239,0.106-0.604,0.212-1.095,0.318c-0.491,0.105-1.121,0.159-1.891,0.159c-1.909,0-3.422-0.53-4.536-1.592
					c-1.114-1.061-1.671-2.547-1.671-4.456v-9.113h-3.542v-4.695h0.995c1.034,0,1.797-0.299,2.288-0.896
					c0.49-0.597,0.736-1.333,0.736-2.208v-2.746h4.775V71.876z"/>
				<path id="XMLID_2195_" fill="#FFFFFF" d="M354.38,91.454h-5.292V62.644h5.292v10.864c0.637-0.77,1.446-1.319,2.428-1.651
					s1.937-0.498,2.865-0.498c1.246,0,2.328,0.206,3.243,0.617s1.671,0.962,2.268,1.651c0.598,0.69,1.041,1.512,1.333,2.467
					s0.438,1.964,0.438,3.024v12.336h-5.293V80.033c0-1.114-0.285-2.042-0.855-2.785c-0.57-0.742-1.492-1.114-2.766-1.114
					c-1.114,0-1.989,0.365-2.626,1.095s-0.982,1.638-1.035,2.726V91.454z"/>
				<path id="XMLID_2204_" fill="#FFFFFF" d="M381.121,71.279c1.459,0,2.818,0.259,4.079,0.775c1.26,0.518,2.348,1.234,3.263,2.149
					s1.632,2.01,2.149,3.282c0.517,1.273,0.775,2.667,0.775,4.179s-0.259,2.898-0.775,4.158c-0.518,1.261-1.234,2.354-2.149,3.283
					s-2.003,1.651-3.263,2.169c-1.261,0.517-2.62,0.775-4.079,0.775s-2.819-0.259-4.079-0.775c-1.26-0.518-2.348-1.24-3.263-2.169
					s-1.632-2.022-2.148-3.283c-0.518-1.26-0.776-2.646-0.776-4.158s0.259-2.905,0.776-4.179c0.517-1.272,1.233-2.367,2.148-3.282
					s2.003-1.632,3.263-2.149C378.301,71.538,379.662,71.279,381.121,71.279z M381.121,87.236c0.637,0,1.26-0.12,1.87-0.358
					c0.61-0.239,1.141-0.59,1.592-1.055c0.451-0.464,0.816-1.041,1.095-1.73s0.418-1.499,0.418-2.428s-0.14-1.737-0.418-2.428
					c-0.278-0.689-0.644-1.267-1.095-1.73s-0.981-0.816-1.592-1.055s-1.233-0.358-1.87-0.358s-1.26,0.12-1.87,0.358
					s-1.141,0.591-1.592,1.055s-0.815,1.041-1.094,1.73c-0.279,0.69-0.418,1.499-0.418,2.428s0.139,1.738,0.418,2.428
					c0.278,0.689,0.643,1.267,1.094,1.73c0.451,0.465,0.981,0.815,1.592,1.055C379.861,87.116,380.484,87.236,381.121,87.236z"/>
				<path id="XMLID_2208_" fill="#FFFFFF" d="M400.858,91.454h-5.293V71.876h5.134v2.428c0.609-1.008,1.438-1.751,2.487-2.229
					c1.047-0.478,2.102-0.717,3.163-0.717c1.22,0,2.274,0.206,3.164,0.617c0.888,0.411,1.624,0.962,2.208,1.651
					c0.583,0.69,1.015,1.512,1.293,2.467c0.279,0.955,0.418,1.964,0.418,3.024v12.336h-5.292V80.033
					c0-1.114-0.286-2.042-0.855-2.785c-0.571-0.742-1.492-1.114-2.766-1.114c-1.168,0-2.069,0.392-2.706,1.174
					c-0.637,0.783-0.955,1.745-0.955,2.885V91.454z"/>
				<path id="XMLID_1987_" fill="#FFFFFF" d="M230.784,91.454h-5.292V62.644h5.292v10.864c0.637-0.77,1.446-1.319,2.427-1.651
					s1.937-0.498,2.865-0.498c1.247,0,2.328,0.206,3.243,0.617s1.671,0.962,2.268,1.651c0.597,0.69,1.041,1.512,1.333,2.467
					s0.438,1.964,0.438,3.024v12.336h-5.292V80.033c0-1.114-0.286-2.042-0.855-2.785c-0.571-0.742-1.492-1.114-2.766-1.114
					c-1.114,0-1.99,0.365-2.626,1.095s-0.982,1.638-1.035,2.726V91.454z"/>
			</g>
		</g>
		<rect id="XMLID_478_" x="487.667" y="94.077" fill="#F19AC1" width="61.5" height="70.711"/>
		<rect id="XMLID_477_" x="487.666" y="94.077" fill="#F978B9" width="7" height="71.113"/>
		<rect id="XMLID_476_" x="534.917" y="94.077" fill="#F978B9" width="13.55" height="71.113"/>
		<rect id="XMLID_473_" x="528.522" y="94.077" fill="#FFA9DC" width="6.775" height="71.113"/>
		<g id="XMLID_468_">
			<path id="XMLID_79_" fill="#FFF1AE" d="M563.217,70.807c0,4.96-4.04,9.05-9,9.05h-0.883v18.81c0,0.29,0.157,0.58,0.137,0.86
				c-0.04,0.48-0.017,0.96-0.127,1.41c-0.32,1.56-0.978,2.97-2.108,4.09c-1.09,1.09-2.399,1.87-3.829,2.29
				c-0.8,0.23-1.796,0.35-2.646,0.35c-5.03,0-9.426-4.04-9.426-9v-7.48c-1,0.32-1.89,0.48-2.88,0.48c-5.03,0-9.12-4.04-9.12-9v-2.81
				h-34.057c-1.06,0-2.09-0.2-3.05-0.57c-1.24-0.46-2.37-1.21-3.32-2.16c-1.7-1.69-2.63-3.91-2.63-6.32c0-4.96,4.04-8.95,9-8.95
				h2.057v-12.69c0-4.94,2.297-9.59,5.797-13.08c3.49-3.5,8.363-5.42,13.303-5.42c7.02,0,13.212,3.94,16.342,9.72
				c1.67-1.62,3.664-2.55,6.024-2.55c4.98,0,8.534,3.95,8.534,9v3.05c1-0.36,2.05-0.55,3.12-0.55c4.98,0,8.88,3.95,8.88,9v3.52
				h0.883c2.41,0,4.67,0.85,6.37,2.55C562.287,66.097,563.217,68.397,563.217,70.807z"/>
		</g>
		<polygon id="XMLID_465_" fill="#FFF8CC" points="541.333,54.857 541.333,83.857 538.333,83.857 538.333,87.857 526.333,87.857 
			526.333,77.857 494.333,77.857 494.333,47.857 496.333,47.857 496.333,37.857 502.333,37.857 502.333,33.857 515.333,33.857 
			515.333,37.857 523.333,37.857 523.333,47.857 528.333,47.857 528.333,41.857 537.333,41.857 537.333,47.857 538.333,47.857 
			538.333,54.857 		"/>
		<path id="XMLID_464_" fill="#41414F" d="M497.333,67.857L497.333,67.857v-26.98c0-2.18,1.842-3.96,4.022-3.96
			c1.09,0,2.101,0.44,2.821,1.16c0.04,0.04,0.095,0.08,0.125,0.12c-0.95,0.52-1.999,1.17-2.799,1.93
			c-2.55,2.44-4.169,5.91-4.169,9.44V67.857z"/>
		<g id="XMLID_458_">
			<path id="XMLID_459_" fill="#41414F" d="M560.587,64.407c-1.7-1.7-3.96-2.55-6.37-2.55h-0.883v-3.52c0-5.05-3.9-9-8.88-9
				c-1.07,0-2.12,0.19-3.12,0.55v-3.05c0-5.05-3.533-9-8.513-9c-2.36,0-4.417,0.93-6.087,2.55c-3.13-5.78-9.238-9.72-16.258-9.72
				c-4.94,0-9.876,1.92-13.366,5.42c-3.5,3.49-5.776,8.14-5.776,13.08v12.69h-2.057c-4.96,0-9,3.99-9,8.95
				c0,2.41,0.93,4.63,2.63,6.32c0.95,0.95,2.08,1.7,3.32,2.16c0.96,0.37,1.99,0.57,3.05,0.57h34.057v2.81c0,4.96,4.09,9,9.12,9
				c0.99,0,1.88-0.16,2.88-0.48v7.48c0,4.96,4.407,9,9.437,9c0.85,0,1.773-0.12,2.573-0.35c1.43-0.42,2.802-1.2,3.892-2.29
				c1.13-1.12,1.851-2.53,2.171-4.09c0.11-0.45,0.014-0.93,0.054-1.41c0.02-0.28-0.126-0.57-0.126-0.86v-18.81h0.883
				c4.96,0,9-4.09,9-9.05C563.217,68.397,562.287,66.097,560.587,64.407z M554.047,73.857h-6.713v24.81
				c0,0.54,0.107,1.05-0.073,1.48c-0.1,0.24-0.157,0.46-0.337,0.64c-0.59,0.58-1.375,0.88-2.165,0.88c-1.69,0-3.425-1.37-3.425-3
				v-18c0-0.4,0.097-0.79-0.033-1.14c-0.41-1.09-1.307-1.86-2.567-1.86c-0.83,0-1.508,0.34-2.048,0.88
				c-0.28,0.28-0.696,0.61-0.886,0.98c-0.2,0.35-0.466,0.74-0.466,1.14v2.13c0,0.83-0.023,1.57-0.563,2.12
				c-0.54,0.54-1.343,0.88-2.173,0.88c-1.66,0-3.263-1.35-3.263-3v-13.51c0-1.65-1.023-3-2.683-3c-0.83,0-1.633,0.34-2.173,0.88
				c-0.54,0.54-1.143,1.3-1.143,2.12v4.57h-34.057c-0.8,0-1.56-0.4-2.13-0.97c-0.54-0.54-0.85-1.22-0.87-1.99
				c-0.05-1.7,1.47-3.04,3.17-3.04h7.887v-18.29c0-3.53,1.627-7,4.177-9.44c0.8-0.76,1.773-1.41,2.723-1.93
				c2.01-1.1,4.175-1.63,6.535-1.51c6.72,0.32,11.565,6.14,11.565,12.86c0,4.62,0,0.81,0,4.63c0,1.93,1.887,3.49,3.817,3.49
				c0.96,0,1.787-0.39,2.417-1.03c0.64-0.63,0.767-1.51,0.767-2.47v-7.33c0-1.03,0.907-1.78,1.257-2.13
				c0.55-0.54,1.317-0.87,2.127-0.87c1.64,0,2.617,1.29,2.617,3v13.39c0,1.66,1.657,3,3.317,3c0.83,0,1.527-0.34,2.067-0.88
				c0.54-0.54,0.617-1.29,0.617-2.12v-2.75c0-0.83,0.657-1.57,1.197-2.12c0.54-0.54,1.237-0.88,2.067-0.88
				c1.66,0,2.737,1.35,2.737,3v10.38h6.883c0.8,0,1.56,0.26,2.13,0.83c0.54,0.54,0.85,1.22,0.87,1.99
				C557.267,72.377,555.747,73.857,554.047,73.857z M538.817,77.837c-0.83,0-1.55,0.42-2.09,0.96c-0.28,0.28-0.55,0.06-0.74,1.06
				h5.48C541.057,78.857,540.077,77.837,538.817,77.837z"/>
		</g>
		<circle id="XMLID_457_" fill="#FFFFFF" cx="516.49" cy="118.013" r="2.156"/>
		<circle id="XMLID_456_" fill="#FFFFFF" cx="519.646" cy="110.169" r="1.313"/>
		<circle id="XMLID_455_" fill="#FFFFFF" cx="523.99" cy="124.513" r="2.656"/>
		<g id="XMLID_450_">
			<path id="XMLID_453_" fill="#41414F" d="M538.857,77.857h-0.04c-0.83,0-1.55,0.41-2.09,0.95c-0.28,0.28-0.55,0.05-0.74,1.05h2.79
				C540.067,79.857,540.147,77.857,538.857,77.857z"/>
			<path id="XMLID_451_" fill="#41414F" d="M548.953,75.497c-0.66-0.51-1.62-0.02-1.62,0.82v81.96c0,2.89-1.817,5.58-4.157,5.58
				h-47.4c-2.53,0-5.443-2.97-5.443-6.08v-73.5c0-2.08,1.457-3.66,2.937-4.32c0.14-0.06,0.547-0.1,0.707-0.1h35.66
				c0.02,0-0.303-0.01-0.303-0.03v-5.94c0-0.02,0.323-0.03,0.303-0.03h-34.73c-0.83,0-1.64-0.06-2.41,0.17
				c-2.72,0.75-5.377,2.67-6.647,5.34c-0.72,1.49-1.517,3.11-1.517,4.91v73.5c0,6.48,5.553,12.08,11.443,12.08h47.4
				c5.65,0,10.157-5.38,10.157-11.58v-74C553.333,80.647,551.523,77.437,548.953,75.497z"/>
		</g>
		<path id="XMLID_447_" fill="none" stroke="#41414F" stroke-width="6" stroke-miterlimit="10" d="M557.82,110.169h5.904
			c4.328,0,7.675,3.149,7.09,6.689c-1.588,9.606-5.423,26.165-12.994,26.165l0,0c-3.951,0-7.153-2.644-7.153-5.905v-21.044
			C550.667,112.813,553.869,110.169,557.82,110.169z"/>
		<g id="XMLID_75_">
			<rect id="XMLID_2256_" x="66.251" y="86.538" fill="#F19AC1" width="68.822" height="9.89"/>
			<rect id="XMLID_2268_" x="73.838" y="77.01" fill="#F19AC1" width="54.191" height="8.941"/>
			<polygon id="XMLID_2231_" fill="#F19AC1" points="72.754,111.857 126.945,111.857 124.777,136.857 75.464,136.857 			"/>
			<g id="XMLID_2275_">
				<path id="XMLID_2340_" fill="#41414F" d="M137.148,98.577H64.576V84.814h72.571V98.577z M68.058,94.784h65.608v-6.176H68.058
					V94.784z"/>
			</g>
			<g id="XMLID_2336_">
				<path id="XMLID_2337_" fill="#41414F" d="M129.708,88.608H72.016V75.749h57.692V88.608z M75.498,85.064h50.729v-5.771H75.498
					V85.064z"/>
			</g>
			<g id="XMLID_2335_">
				<path id="XMLID_2376_" fill="#41414F" d="M68.923,94.857l2.325,21.942l0.217,2l1.122,10.6l0.222,2.084l0.07,0.679l0.298,2.946
					l3.669,34.751h46.669l7.923-75H68.923z M122.279,139.757l-2.666,25.099H80.742l-2.666-25.099l-0.016,0.099h44.236
					L122.279,139.757z M125.333,111.347l-1.384,12.984l-0.285,2.79l-0.925,8.735H77.615l-0.862-8.215l-0.222-2.138l-1.1-10.428
					l-0.211-1.74l-0.184-1.48h50.298V111.347z M74.618,107.857l-0.872-8h52.869l-0.872,8H74.618z"/>
			</g>
		</g>
		<image width="1193" height="13" id="XMLID_1829_" xlink:href="9F5158E1.png"  transform="matrix(1 0 0 1 92.3333 402.8566)">
		</image>
		<image width="276" height="16" id="XMLID_1827_" xlink:href="9F5158DC.png"  transform="matrix(1 0 0 1 180.3333 818.8566)">
		</image>
		<g id="XMLID_1820_">
			<g id="XMLID_1825_">
				<rect id="XMLID_1826_" x="12.128" y="175.35" fill="#F19AC1" width="1349.658" height="86.093"/>
			</g>
			<g id="XMLID_1821_">
				<path id="XMLID_1822_" fill="#41414F" d="M1363.094,267.9H10.82c-2.844,0-5.15-2.306-5.15-5.15v-88.708
					c0-2.844,2.306-5.15,5.15-5.15h1352.273c2.844,0,5.15,2.306,5.15,5.15v88.708C1368.243,265.594,1365.938,267.9,1363.094,267.9z
					 M18.585,254.986h1336.745v-73.179H18.585V254.986z"/>
			</g>
		</g>
		<g id="XMLID_1818_">
			<path id="XMLID_1819_" fill="#41414F" d="M90.133,798.089h-8.066c-1.925,0-3.5-1.575-3.5-3.5V262.342c0-1.925,1.575-3.5,3.5-3.5
				h8.066c1.925,0,3.5,1.575,3.5,3.5v532.247C93.633,796.514,92.058,798.089,90.133,798.089z"/>
		</g>
		<g id="XMLID_1816_">
			<path id="XMLID_1817_" fill="#41414F" d="M1288.543,798.089h-8.066c-1.925,0-3.5-1.575-3.5-3.5V262.342
				c0-1.925,1.575-3.5,3.5-3.5h8.066c1.925,0,3.5,1.575,3.5,3.5v532.247C1292.043,796.514,1290.468,798.089,1288.543,798.089z"/>
		</g>
		<g id="XMLID_1814_">
			<path id="XMLID_1815_" fill="#41414F" d="M1369.244,787.599v8.066c0,1.925-1.575,3.5-3.5,3.5H8.17c-1.925,0-3.5-1.575-3.5-3.5
				v-8.066c0-1.925,1.575-3.5,3.5-3.5h1357.573C1367.669,784.099,1369.244,785.674,1369.244,787.599z"/>
		</g>
		<g id="XMLID_1811_">
			<g id="XMLID_1812_">
				<path id="XMLID_1813_" fill="#F19AC1" d="M432.333,442.329v26.362c0,0.843,1.304,2.165,0.816,2.165H205.766
					c-0.488,0-0.433-1.322-0.433-2.165v-26.362c0-0.843-0.055-2.473,0.433-2.473H433.15
					C433.638,439.857,432.333,441.487,432.333,442.329z"/>
			</g>
		</g>
		<g id="XMLID_1807_">
			<path id="XMLID_1808_" fill="#41414F" d="M426.487,424.857h-213.62c-4.15,0-7.2,3.54-7.2,7.7v45.19c0,2.07,0.67,4.25,2.05,5.61
				c1.36,1.35,3.08,2.5,5.15,2.5h213.62c4.13,0,6.18-3.97,6.18-8.11v-45.19C432.667,428.397,430.617,424.857,426.487,424.857z
				 M419.667,470.857h-199v-31h199V470.857z"/>
		</g>
		<g id="XMLID_1805_">
			<rect id="XMLID_1806_" x="86.1" y="258.842" fill="#41414F" width="1198.41" height="30.581"/>
		</g>
		<image width="1200" height="54" id="XMLID_1803_" xlink:href="9F5158DD.png"  transform="matrix(1 0 0 1 85.3333 288.8566)">
		</image>
		<image width="1193" height="13" id="XMLID_1801_" xlink:href="9F5158DE.png"  transform="matrix(1 0 0 1 92.3333 529.8566)">
		</image>
		<image width="1193" height="13" id="XMLID_1799_" xlink:href="9F5158DF.png"  transform="matrix(1 0 0 1 92.3333 656.8566)">
		</image>
		<g id="XMLID_1795_">
			<path id="XMLID_1796_" fill="#41414F" d="M399.667,650.857h-163v-153.86c0-6.48,6.18-11.14,12.66-11.14h137.25
				c6.48,0,13.09,4.66,13.09,11.14V650.857z M413.567,491.097c-0.05-0.26,0.02-0.54-0.04-0.8c-0.3-1.54-0.74-3.02-1.31-4.44
				c-2.43-6.09-7.19-10.95-13.23-13.72c-0.13-0.07-0.21-0.11-0.34-0.15c-1.12-0.5-2.29-0.87-3.49-1.13h-152.88
				c-1.61,0.27-3.17,0.66-4.66,1.36c-5.83,2.69-10.52,7.27-13.06,13.09c-0.08,0.18-0.16,0.37-0.23,0.55
				c-0.11,0.26-0.21,0.52-0.31,0.8c-0.32,0.93-0.6,1.87-0.84,2.83c-0.07,0.26-0.11,0.54-0.15,0.82c-0.07,0.26-0.11,0.51-0.15,0.79
				c-0.02,0.09-0.02,0.15-0.05,0.24c-0.06,0.49-0.12,0.99-0.17,1.5c-0.02,0.24,0.02,0.48,0,0.71c-0.03,0.54,0.01,1.06,0.01,1.6
				v324.65c0,4.13,2.85,7.53,7,7.53s7-3.4,7-7.53v-153.94h163v153.94c0,4.13,2.85,7.53,7,7.53s7-3.4,7-7.53v-324.65
				C413.667,493.767,413.777,492.407,413.567,491.097z"/>
		</g>
		<g id="XMLID_1793_">
			<line id="XMLID_1794_" fill="#41414F" x1="503.583" y1="474.77" x2="507.238" y2="474.77"/>
		</g>
	</g>
</g>
</svg>
