<?xml version="1.0" encoding="iso-8859-1"?>
<!-- Generator: Adobe Illustrator 19.0.0, SVG Export Plug-In . SVG Version: 6.00 Build 0)  -->
<svg version="1.1" baseProfile="tiny" id="Layer_1" xmlns="http://www.w3.org/2000/svg" xmlns:xlink="http://www.w3.org/1999/xlink"
	 x="0px" y="0px" viewBox="0 0 1618 1608" xml:space="preserve">
<g id="XMLID_1659_">
	<circle id="XMLID_342_" fill="none" cx="811.519" cy="805.331" r="639.417"/>
	<path id="XMLID_166_" fill="#FFFFFF" d="M308.248,374.938c3.118,2.26,6.249,4.435,9.395,6.522c3.146,2.093,5.742,3.689,7.795,4.794
		l-17.216,23.755c-1.179-0.472-2.832-1.339-4.964-2.6c-2.129-1.257-4.254-2.654-6.376-4.192c2.081,4.744,2.763,10.23,2.049,16.462
		c-0.716,6.234-3.331,12.47-7.849,18.704c-4.792,6.61-10.391,11.775-16.797,15.5c-6.409,3.726-13.187,5.991-20.335,6.802
		c-7.149,0.81-14.498,0.19-22.048-1.857c-7.549-2.048-14.814-5.602-21.8-10.664c-6.733-4.88-12.238-10.532-16.519-16.964
		c-4.28-6.428-7.17-13.136-8.67-20.12c-1.502-6.981-1.53-14.09-0.095-21.323c1.438-7.23,4.505-14.089,9.205-20.574
		c2.891-3.989,5.773-7.178,8.646-9.566c2.871-2.386,5.636-4.234,8.296-5.542c2.658-1.306,5.117-2.141,7.375-2.501
		c2.259-0.359,4.237-0.396,5.936-0.12l-52.559-38.092l17.758-24.503L308.248,374.938z M228.268,423.101
		c8.23,5.965,16.213,8.469,23.942,7.509c7.732-0.957,13.991-4.739,18.782-11.351c4.609-6.359,6.188-13.39,4.737-21.102
		c-1.45-7.706-6.353-14.589-14.708-20.645c-8.229-5.964-16.14-8.366-23.729-7.212c-7.59,1.159-13.689,4.914-18.298,11.273
		c-4.609,6.359-6.274,13.382-4.992,21.06C215.281,410.314,220.038,417.136,228.268,423.101z"/>
	<path id="XMLID_180_" fill="#FFFFFF" d="M413.408,261.138c2.178,4.635,3.565,9.592,4.166,14.876
		c0.602,5.284,0.328,10.561-0.814,15.826c-1.146,5.269-3.269,10.52-6.377,15.754c-3.108,5.233-7.281,10.119-12.521,14.653
		c-5.939,5.14-12.472,9.008-19.589,11.606c-7.119,2.601-14.432,3.682-21.933,3.248c-7.503-0.429-14.918-2.466-22.242-6.109
		c-7.324-3.637-14.11-9.068-20.359-16.289c-5.945-6.87-10.175-14.107-12.681-21.714c-2.509-7.604-3.5-15.043-2.975-22.323
		c0.525-7.275,2.417-14.206,5.677-20.798c3.259-6.588,7.624-12.249,13.099-16.987c13.391-11.588,27.24-16.647,41.546-15.181
		c14.306,1.473,27.456,9.134,39.447,22.99c1.412,1.632,2.687,3.227,3.831,4.78c1.144,1.559,1.816,2.452,2.018,2.684l-61.486,53.21
		c2.533,2.695,5.448,4.706,8.736,6.034c3.288,1.33,6.648,2.035,10.082,2.119c3.433,0.084,6.859-0.485,10.277-1.714
		c3.417-1.226,6.582-3.101,9.494-5.621c5.473-4.734,8.693-9.661,9.664-14.778c0.969-5.114,0.491-10.199-1.438-15.252
		L413.408,261.138z M367.411,251.759c-1.932-1.995-4.156-3.683-6.677-5.067c-2.521-1.379-5.247-2.18-8.18-2.392
		s-6.021,0.224-9.264,1.297c-3.244,1.078-6.499,3.026-9.757,5.847c-3.029,2.622-5.254,5.462-6.675,8.525
		c-1.425,3.064-2.243,6.118-2.462,9.157c-0.221,3.044,0.091,5.931,0.93,8.665c0.842,2.737,2.058,5.146,3.654,7.224L367.411,251.759z
		"/>
	<path id="XMLID_278_" fill="#FFFFFF" d="M465.808,222.909c2.436,3.759,5.992,6.363,10.674,7.816c4.68,1.458,9.982,0.54,15.91-2.746
		c4.444-2.466,7.203-5.27,8.275-8.419c1.07-3.145,0.862-6.066-0.633-8.763c-1.27-2.288-3.179-3.825-5.729-4.615
		c-2.549-0.786-6.002-0.501-10.354,0.855l-14.813,4.252c-10.891,3.224-20.033,3.407-27.429,0.55
		c-7.395-2.854-13.033-7.784-16.917-14.788c-2.465-4.444-3.857-9.174-4.174-14.195c-0.317-5.016,0.371-9.887,2.064-14.616
		c1.694-4.723,4.311-9.211,7.854-13.466c3.541-4.25,8.004-7.873,13.393-10.86c7.001-3.882,13.472-6.19,19.401-6.929
		c5.933-0.734,11.235-0.46,15.907,0.82c4.674,1.284,8.664,3.166,11.977,5.642c3.312,2.481,5.847,4.991,7.611,7.533l-19.624,17.485
		c-1.092-1.33-2.368-2.604-3.834-3.818c-1.463-1.21-3.245-2.115-5.337-2.718c-2.094-0.598-4.343-0.762-6.742-0.488
		c-2.401,0.275-5.016,1.196-7.844,2.765c-3.504,1.943-5.976,4.548-7.422,7.813c-1.446,3.271-1.385,6.314,0.184,9.144
		c1.344,2.424,3.268,3.912,5.774,4.458c2.504,0.55,5.253,0.348,8.245-0.61l15.822-4.812c10.95-3.43,20.416-3.747,28.395-0.953
		c7.979,2.799,13.982,7.83,18.016,15.104c2.241,4.04,3.668,8.445,4.286,13.207c0.617,4.768,0.169,9.594-1.346,14.482
		c-1.514,4.892-4.174,9.623-7.978,14.195c-3.803,4.573-8.937,8.654-15.4,12.238c-7.545,4.184-14.473,6.613-20.783,7.298
		c-6.313,0.687-11.942,0.374-16.895-0.934c-4.949-1.304-9.19-3.311-12.717-6.023c-3.527-2.707-6.211-5.404-8.048-8.083
		L465.808,222.909z"/>
	<path id="XMLID_280_" fill="#FFFFFF" d="M525.134,68.367c-1.827-5.069-1.63-9.971,0.594-14.701s5.797-7.983,10.724-9.76
		c5.07-1.827,9.934-1.616,14.593,0.633c4.656,2.25,7.902,5.911,9.729,10.98c1.723,4.78,1.507,9.524-0.642,14.228
		c-2.152,4.704-5.764,7.971-10.833,9.798c-4.927,1.776-9.754,1.553-14.484-0.672C530.084,76.65,526.857,73.148,525.134,68.367z
		 M579.768,209.018l-38.544-106.917l28.902-10.419L608.67,198.6L579.768,209.018z"/>
	<path id="XMLID_283_" fill="#FFFFFF" d="M674.241,178.697c2.088,6.053,5.741,10.678,10.952,13.88
		c5.21,3.197,11.462,4.195,18.755,2.992c9.573-1.579,16.533-5.266,20.887-11.054c4.349-5.792,5.625-14.156,3.82-25.096l-1.354-8.205
		c-1.678,4.022-4.857,7.941-9.532,11.756c-4.679,3.815-11.119,6.399-19.324,7.753c-7.446,1.229-14.584,1.002-21.418-0.681
		c-6.832-1.682-12.968-4.57-18.404-8.67c-5.438-4.097-10.031-9.231-13.778-15.403c-3.75-6.171-6.275-13.206-7.58-21.109
		c-1.227-7.442-1.097-14.685,0.397-21.722c1.491-7.035,4.104-13.437,7.836-19.202c3.731-5.767,8.55-10.618,14.455-14.559
		c5.906-3.938,12.733-6.549,20.482-7.828c8.964-1.478,16.292-1.049,21.986,1.29c5.69,2.339,9.839,5.247,12.442,8.717l-2.182-13.219
		l29.175-4.813l16.505,100.057c1.278,7.749,1.396,15.339,0.361,22.769c-1.038,7.429-3.469,14.228-7.287,20.399
		c-3.822,6.169-9.188,11.502-16.091,15.999c-6.908,4.494-15.602,7.608-26.086,9.337c-7.75,1.278-14.962,1.334-21.628,0.174
		c-6.671-1.164-12.669-3.219-17.99-6.163c-5.326-2.948-9.841-6.652-13.54-11.112c-3.702-4.463-6.372-9.29-8.008-14.482
		L674.241,178.697z M699.401,143.877c7.749-1.278,13.666-4.907,17.753-10.889c4.085-5.979,5.415-13.303,3.986-21.963
		c-1.429-8.661-5.148-15.108-11.152-19.349c-6.007-4.236-12.655-5.756-19.949-4.553c-3.8,0.627-7.226,1.857-10.278,3.686
		c-3.056,1.832-5.592,4.201-7.607,7.108c-2.019,2.908-3.421,6.224-4.213,9.942c-0.79,3.723-0.835,7.711-0.133,11.963
		c1.453,8.813,5.107,15.352,10.961,19.614C684.623,143.702,691.499,145.181,699.401,143.877z"/>
	<path id="XMLID_286_" fill="#FFFFFF" d="M836.426,166.074l-30.647-2.159l7.983-113.371l29.726,2.093l-0.99,14.057
		c3.942-5.588,9.045-9.553,15.311-11.89c6.262-2.339,12.465-3.291,18.611-2.858c7.064,0.498,13.087,2.119,18.067,4.861
		c4.978,2.746,9.017,6.232,12.116,10.464c3.096,4.234,5.259,9.17,6.482,14.814c1.224,5.644,1.619,11.54,1.186,17.682l-5.028,71.435
		l-30.647-2.158l4.656-66.134c0.455-6.452-0.82-11.944-3.818-16.479c-3.003-4.531-8.188-7.061-15.561-7.579
		c-6.762-0.477-12.142,1.425-16.147,5.694c-4.007,4.273-6.242,9.714-6.707,16.316L836.426,166.074z"/>
	<path id="XMLID_288_" fill="#FFFFFF" d="M1060.972,178.807c-2.77,4.308-6.232,8.117-10.389,11.434
		c-4.157,3.316-8.773,5.889-13.842,7.718c-5.071,1.829-10.648,2.819-16.734,2.966c-6.085,0.148-12.44-0.792-19.066-2.822
		c-7.51-2.301-14.258-5.78-20.239-10.429c-5.986-4.651-10.787-10.271-14.405-16.857c-3.623-6.584-5.835-13.947-6.641-22.087
		c-0.81-8.139,0.186-16.773,2.984-25.903c2.661-8.688,6.546-16.115,11.659-22.279c5.109-6.166,10.884-10.958,17.331-14.38
		c6.443-3.42,13.32-5.499,20.637-6.24c7.312-0.738,14.428-0.049,21.351,2.072c16.931,5.188,28.576,14.234,34.933,27.134
		c6.353,12.901,6.849,28.112,1.48,45.633c-0.633,2.063-1.306,3.99-2.016,5.784c-0.713,1.798-1.111,2.842-1.201,3.136l-77.744-23.822
		c-0.938,3.578-1.094,7.116-0.473,10.606c0.621,3.493,1.809,6.716,3.562,9.668c1.752,2.953,4.055,5.554,6.913,7.796
		c2.853,2.245,6.123,3.93,9.806,5.059c6.919,2.12,12.804,2.231,17.654,0.336c4.847-1.897,8.901-5.004,12.157-9.321L1060.972,178.807
		z M1044.48,134.856c0.663-2.697,0.912-5.479,0.746-8.35c-0.171-2.868-0.94-5.603-2.319-8.2c-1.379-2.597-3.388-4.982-6.021-7.16
		c-2.637-2.174-6.017-3.896-10.137-5.159c-3.831-1.174-7.42-1.549-10.769-1.126c-3.354,0.423-6.375,1.351-9.066,2.779
		c-2.696,1.432-4.976,3.229-6.847,5.392c-1.872,2.167-3.267,4.478-4.179,6.935L1044.48,134.856z"/>
	<path id="XMLID_291_" fill="#FFFFFF" d="M1192.042,263.261c-1.951,3.321-3.816,6.646-5.594,9.977
		c-1.781,3.332-3.121,6.069-4.024,8.218l-25.294-14.86c0.355-1.219,1.062-2.946,2.111-5.189c1.047-2.239,2.234-4.489,3.562-6.748
		c-4.522,2.525-9.918,3.729-16.189,3.616c-6.274-0.116-12.731-2.122-19.369-6.021c-7.04-4.136-12.718-9.214-17.038-15.234
		c-4.323-6.023-7.228-12.552-8.719-19.59s-1.579-14.412-0.264-22.124c1.314-7.71,4.156-15.283,8.526-22.721
		c4.212-7.17,9.311-13.191,15.304-18.068c5.987-4.876,12.388-8.396,19.197-10.558c6.805-2.164,13.877-2.873,21.215-2.137
		c7.336,0.738,14.455,3.134,21.361,7.191c4.248,2.495,7.698,5.059,10.352,7.689c2.65,2.628,4.754,5.204,6.312,7.727
		c1.554,2.521,2.62,4.888,3.194,7.101c0.575,2.214,0.802,4.181,0.689,5.898l32.881-55.968l26.091,15.329L1192.042,263.261z
		 M1136.438,188.263c-5.149,8.764-6.877,16.949-5.181,24.552c1.693,7.605,6.058,13.473,13.098,17.608
		c6.771,3.979,13.922,4.876,21.458,2.693c7.531-2.181,13.914-7.721,19.141-16.618c5.148-8.764,6.782-16.867,4.906-24.312
		c-1.882-7.442-6.203-13.154-12.975-17.133c-6.771-3.979-13.921-4.964-21.441-2.952
		C1147.921,174.111,1141.587,179.499,1136.438,188.263z"/>
	<path id="XMLID_294_" fill="#111111" d="M1274.714,361.221l129.952-105.277l19.049,23.513l-51.334,41.588
		c4.757-0.486,10.229,0.58,16.417,3.2c6.181,2.619,11.942,7.22,17.274,13.802c5.235,6.461,8.722,13.15,10.46,20.066
		c1.737,6.916,1.973,13.811,0.704,20.686c-1.27,6.873-3.989,13.488-8.157,19.839c-4.172,6.353-9.549,12.193-16.128,17.524
		c-6.702,5.43-13.694,9.46-20.976,12.088c-7.285,2.631-14.5,3.817-21.643,3.561c-7.148-0.257-13.97-2.015-20.471-5.268
		c-6.503-3.256-12.274-7.995-17.313-14.216c-4.944-6.104-8.036-12.368-9.279-18.794c-1.243-6.425-0.921-12.386,0.972-17.882
		l-10.769,8.725L1274.714,361.221z M1373.433,392.434c8.137-6.591,12.606-13.733,13.415-21.421
		c0.804-7.689-1.262-14.586-6.206-20.689c-2.424-2.992-5.265-5.396-8.522-7.216c-3.258-1.82-6.736-2.868-10.427-3.147
		c-3.695-0.277-7.584,0.244-11.662,1.568c-4.084,1.324-8.157,3.636-12.224,6.931c-3.948,3.198-6.996,6.656-9.136,10.373
		c-2.146,3.717-3.49,7.436-4.044,11.155c-0.555,3.72-0.311,7.387,0.734,10.999c1.043,3.614,2.777,6.915,5.202,9.906
		c4.944,6.104,11.29,9.533,19.04,10.292C1357.351,401.94,1365.294,399.027,1373.433,392.434z"/>
	<path id="XMLID_297_" fill="#111111" d="M1327.764,507.039l64.896-1.867l68.076-86.967l15.101,30.929l-46.504,56.384l72.046-4.073
		l14.392,29.476l-173.717,5.388L1327.764,507.039z"/>
	<path id="XMLID_299_" fill="#FFFFFF" d="M1552.582,670.194l4.874,30.334l-122.021,19.602c-5.475,0.879-10.582,0.88-15.324,0.005
		c-4.74-0.877-8.99-2.574-12.75-5.088c-3.756-2.519-6.896-5.794-9.417-9.834c-2.521-4.041-4.222-8.799-5.101-14.272
		c-0.708-4.411-0.971-8.229-0.787-11.454c0.185-3.224,0.368-5.243,0.549-6.054l25.316-4.067c-0.132,1.114-0.191,2.451-0.176,4.006
		c0.017,1.558,0.195,3.398,0.538,5.529c0.731,4.561,2.43,7.6,5.092,9.125c2.664,1.521,6.046,1.953,10.15,1.293L1552.582,670.194z
		 M1588.944,660.609c5.321-0.854,10.101,0.25,14.336,3.313c4.235,3.063,6.769,7.179,7.6,12.35c0.854,5.32-0.256,10.062-3.33,14.222
		c-3.076,4.157-7.276,6.667-12.596,7.521c-5.172,0.831-9.832-0.256-13.977-3.254c-4.148-3-6.647-7.16-7.503-12.481
		c-0.831-5.171,0.247-9.866,3.235-14.089C1579.694,663.967,1583.773,661.44,1588.944,660.609z"/>
	<path id="XMLID_302_" fill="#FFFFFF" d="M1450.334,841.521c1.236-0.285,3.013-0.48,5.325-0.585c2.313-0.108,4.624-0.137,6.934-0.09
		c-5.328-3.191-9.123-7.774-11.389-13.748c-2.265-5.978-3.337-11.967-3.216-17.973c0.142-6.928,1.461-13.023,3.954-18.287
		s5.778-9.702,9.859-13.316c4.077-3.613,8.869-6.328,14.375-8.141c5.503-1.815,11.336-2.657,17.496-2.531l71.827,1.462
		l-0.626,30.717l-65.591-1.335c-6.467-0.132-11.928,1.411-16.383,4.634c-4.456,3.22-6.757,8.447-6.904,15.687
		c-0.141,6.929,1.829,12.283,5.911,16.063c4.082,3.78,9.432,5.736,16.055,5.872l66.052,1.344l-0.625,30.718l-93.074-1.896
		c-4.467-0.09-8.511-0.057-12.132,0.101c-3.624,0.157-6.441,0.366-8.447,0.636L1450.334,841.521z"/>
	<path id="XMLID_304_" fill="#FFFFFF" d="M1474.851,941.739c-4.419-0.727-8.739,0.151-12.964,2.638
		c-4.228,2.48-7.116,7.021-8.673,13.617c-1.167,4.947-0.948,8.874,0.66,11.786c1.604,2.908,3.907,4.72,6.907,5.428
		c2.547,0.602,4.969,0.224,7.269-1.133c2.298-1.356,4.41-4.103,6.335-8.235l6.821-13.818c4.943-10.226,10.959-17.113,18.05-20.661
		c7.086-3.55,14.527-4.404,22.322-2.564c4.946,1.167,9.382,3.319,13.309,6.464c3.924,3.14,7.065,6.927,9.423,11.362
		c2.354,4.431,3.915,9.386,4.679,14.87c0.762,5.479,0.438,11.218-0.977,17.214c-1.839,7.792-4.485,14.132-7.93,19.016
		c-3.447,4.883-7.219,8.621-11.311,11.215c-4.094,2.595-8.171,4.279-12.231,5.064c-4.063,0.78-7.626,0.967-10.694,0.562
		l0.269-26.282c1.719,0.087,3.52,0,5.404-0.268c1.88-0.268,3.75-0.977,5.604-2.118c1.85-1.147,3.484-2.701,4.896-4.659
		c1.412-1.963,2.489-4.517,3.232-7.663c0.92-3.899,0.656-7.481-0.786-10.747c-1.446-3.271-3.74-5.274-6.888-6.018
		c-2.697-0.637-5.093-0.215-7.184,1.271c-2.093,1.482-3.791,3.652-5.096,6.512l-7.087,14.941
		c-4.83,10.409-10.965,17.624-18.4,21.646c-7.438,4.02-15.202,5.075-23.295,3.166c-4.496-1.062-8.715-2.969-12.654-5.717
		c-3.942-2.751-7.21-6.33-9.808-10.74c-2.601-4.411-4.312-9.563-5.135-15.453c-0.823-5.89-0.389-12.433,1.31-19.628
		c1.981-8.395,4.845-15.155,8.585-20.284c3.74-5.132,7.759-9.087,12.058-11.869c4.295-2.784,8.633-4.571,13.013-5.355
		c4.377-0.788,8.178-0.958,11.396-0.515L1474.851,941.739z"/>
	<path id="XMLID_306_" fill="#FFFFFF" d="M1498.333,1114.83l-9.079,20.99l-25.019-10.822l9.08-20.99l-43.676-18.893
		c-4.525-1.957-8.111-2.293-10.765-1.006c-2.655,1.281-4.865,3.975-6.64,8.076c-0.733,1.696-1.397,3.422-1.988,5.18
		c-0.596,1.756-0.901,3.048-0.923,3.88l-23.322-10.089c-0.017-1.517,0.262-3.705,0.826-6.563c0.568-2.86,1.735-6.34,3.508-10.438
		c4.402-10.177,10.713-17.011,18.936-20.502c8.22-3.491,17.421-3.035,27.599,1.367l48.551,21.001l8.162-18.868l25.018,10.821
		l-2.293,5.3c-2.384,5.513-2.551,10.263-0.502,14.255c2.049,3.989,5.405,6.995,10.069,9.012l14.63,6.329l-11.005,25.441
		L1498.333,1114.83z"/>
	<path id="XMLID_308_" fill="#FFFFFF" d="M1363.586,1128.616l96.616,59.853l-16.18,26.118l-96.616-59.853L1363.586,1128.616z
		 M1493.764,1204.913c4.582,2.838,7.472,6.802,8.667,11.891c1.195,5.088,0.415,9.856-2.343,14.309
		c-2.838,4.582-6.781,7.438-11.829,8.568c-5.047,1.129-9.864,0.275-14.445-2.563c-4.32-2.677-7.097-6.528-8.335-11.549
		c-1.235-5.024-0.434-9.826,2.404-14.407c2.758-4.452,6.68-7.275,11.769-8.471
		C1484.739,1201.496,1489.444,1202.236,1493.764,1204.913z"/>
	<path id="XMLID_311_" fill="#FFFFFF" d="M1299.962,1218.529l20.597-22.797l84.33,76.193l-19.978,22.11l-10.455-9.446
		c1.967,6.549,1.942,13.011-0.08,19.385c-2.021,6.371-5.097,11.843-9.228,16.413c-4.747,5.255-9.737,8.997-14.968,11.228
		c-5.23,2.225-10.466,3.254-15.709,3.085c-5.242-0.174-10.462-1.514-15.66-4.031c-5.196-2.516-10.083-5.841-14.651-9.969
		l-53.136-48.008l20.598-22.796l49.192,44.445c4.799,4.336,9.909,6.72,15.327,7.155c5.42,0.431,10.607-2.091,15.563-7.577
		c4.545-5.029,6.365-10.438,5.475-16.223c-0.895-5.79-3.798-10.904-8.71-15.342L1299.962,1218.529z"/>
	<path id="XMLID_313_" fill="#FFFFFF" d="M1158.788,1349.276l47.849,103.089l-26.61,12.351l-5.836-12.571
		c-0.228,3.161-1.008,6.238-2.335,9.233c-1.325,2.991-3.062,5.75-5.201,8.271c-2.141,2.521-4.55,4.825-7.23,6.921
		c-2.678,2.091-5.413,3.786-8.209,5.084c-7.124,3.307-14.019,4.724-20.69,4.255c-6.669-0.47-12.628-2.885-17.876-7.238
		c-1.132,8.166-3.825,14.804-8.072,19.919c-4.249,5.111-9.794,9.257-16.64,12.435c-4.747,2.204-9.697,3.609-14.851,4.219
		c-5.149,0.607-10.217,0.114-15.201-1.477c-4.981-1.595-9.674-4.383-14.07-8.367c-4.397-3.987-8.185-9.404-11.361-16.247
		l-31.023-66.84l27.03-12.545l28.397,61.183c2.593,5.585,6.183,9.565,10.764,11.94c4.581,2.369,10.087,2.066,16.51-0.915
		c6.008-2.789,9.763-6.951,11.268-12.487c1.505-5.537,0.959-11.102-1.634-16.688l-28.008-60.345l27.657-12.838l28.397,61.184
		c2.594,5.585,6.216,9.55,10.869,11.892c4.65,2.338,10.119,2.052,16.405-0.866c6.147-2.854,9.987-7.015,11.524-12.48
		c1.537-5.468,0.977-11.065-1.682-16.792l-28.008-60.345L1158.788,1349.276z"/>
	<path id="XMLID_315_" fill="#FFFFFF" d="M969.26,1459.104c0.797,5.02,0.629,9.606-0.505,13.764
		c-1.131,4.155-2.99,7.919-5.575,11.293c-2.583,3.37-5.757,6.212-9.522,8.527c-3.764,2.312-7.944,4.222-12.539,5.732l-26.954,8.489
		c-3.122,0.962-5.174,2.261-6.164,3.901c-0.986,1.637-1.324,3.444-1.01,5.423c0.628,3.953,2.731,7.128,6.307,9.524
		c3.577,2.392,8.559,3.085,14.946,2.071c6.695-1.063,11.538-3.702,14.531-7.919c2.996-4.219,4.334-8.798,4.018-13.736l27.827,1.431
		c0.243,4.482-0.426,9.109-2.007,13.885c-1.581,4.771-4.07,9.219-7.471,13.349c-3.398,4.123-7.812,7.748-13.244,10.872
		c-5.428,3.12-11.943,5.287-19.552,6.494c-8.818,1.4-16.535,1.415-23.147,0.049c-6.609-1.37-12.162-3.683-16.655-6.945
		c-4.495-3.264-8.026-7.345-10.597-12.235c-2.567-4.895-4.302-10.157-5.194-15.781l-8.763-55.212
		c-0.483-3.044-1.146-6.25-1.996-9.624c-0.846-3.374-1.577-6.027-2.197-7.954l27.834-4.418c0.548,1.471,1.143,3.521,1.794,6.147
		c0.65,2.623,1.145,5.001,1.482,7.133c2.191-4.872,5.721-9.409,10.588-13.609c4.87-4.2,11.487-6.969,19.85-8.296
		c5.933-0.941,11.444-0.841,16.538,0.299c5.092,1.14,9.562,3.003,13.4,5.592c3.842,2.585,6.958,5.755,9.345,9.51
		C967.017,1450.609,968.56,1454.691,969.26,1459.104z M922.541,1455.059c-3.194,0.507-6.208,1.412-9.041,2.721
		c-2.833,1.305-5.228,3.169-7.183,5.584c-1.956,2.416-3.358,5.365-4.209,8.854c-0.85,3.487-0.876,7.741-0.079,12.761l0.797,5.02
		l24.708-7.898c3.86-1.237,6.945-3.17,9.255-5.796c2.313-2.629,3.117-6.147,2.417-10.558c-0.531-3.348-2.224-6.159-5.08-8.432
		C931.271,1455.035,927.41,1454.285,922.541,1455.059z"/>
	<path id="XMLID_318_" fill="#FFFFFF" d="M746.405,1526.119c3.06,0.718,6.127,1.132,9.203,1.236
		c4.005,0.136,7.793-0.278,11.367-1.233c3.58-0.958,6.717-2.625,9.415-4.997c2.702-2.375,4.927-5.575,6.682-9.597
		c1.754-4.025,2.735-9.116,2.943-15.271l1.76-51.945l30.705,1.039l-3.847,113.588l-29.782-1.009l0.571-16.854
		c-1.817,3.637-4.113,6.601-6.889,8.896c-2.771,2.294-5.683,4.005-8.727,5.137c-3.043,1.128-6.072,1.874-9.09,2.234
		c-3.017,0.359-5.755,0.499-8.22,0.415c-1.229-0.042-2.422-0.122-3.573-0.236c-1.152-0.118-2.339-0.274-3.566-0.468
		L746.405,1526.119z"/>
	<path id="XMLID_320_" fill="#FFFFFF" d="M634.154,1488.222l-30.212-74.683l36.663,8.578l19.348,49.128l15.423-10.151l6.841-29.241
		l29.915,7l-38.101,162.847l-29.916-6.999l21.841-93.345l-47.868,32.215l-39.138-9.157L634.154,1488.222z"/>
	<path id="XMLID_322_" fill="#111111" d="M386.751,1461.774c1.454,0.87,3.126,1.602,5.014,2.192
		c1.891,0.593,3.792,0.788,5.705,0.587c1.916-0.2,3.817-0.904,5.702-2.107c1.89-1.203,3.661-3.192,5.32-5.969l6.405-10.703
		l-22.004-13.165l13.521-22.599l22.003,13.165l44.832-74.931l26.563,15.893l-44.831,74.931l16.254,9.725l-13.521,22.599
		l-16.255-9.726l-6.641,11.102c-3.322,5.55-7.129,10.044-11.433,13.483c-4.3,3.438-8.952,5.815-13.957,7.128
		c-5.001,1.315-10.198,1.524-15.588,0.635c-5.388-0.894-10.79-2.957-16.211-6.2c-2.774-1.66-5.264-3.419-7.474-5.279
		c-2.207-1.858-3.679-3.37-4.423-4.53l13.283-22.202c0.506,0.66,1.356,1.484,2.559,2.473
		C382.779,1459.264,384.505,1460.431,386.751,1461.774z"/>
	<path id="XMLID_324_" fill="#111111" d="M407.684,1343.099c-3.364,3.809-7.009,6.599-10.938,8.369
		c-3.925,1.771-8.011,2.733-12.26,2.886c-4.242,0.153-8.455-0.487-12.638-1.918c-4.178-1.432-8.311-3.441-12.401-6.024l-23.7-15.39
		c-2.73-1.795-5.037-2.552-6.933-2.271c-1.891,0.28-3.5,1.17-4.826,2.672c-2.65,2.999-3.759,6.643-3.333,10.925
		c0.431,4.282,3.066,8.566,7.914,12.849c5.08,4.488,10.199,6.544,15.355,6.168c5.161-0.372,9.545-2.255,13.152-5.642l16.605,22.375
		c-3.303,3.04-7.297,5.469-11.986,7.288c-4.688,1.816-9.702,2.729-15.051,2.732c-5.344,0.003-10.948-1.095-16.815-3.297
		c-5.861-2.202-11.68-5.849-17.453-10.949c-6.691-5.911-11.614-11.854-14.768-17.823c-3.149-5.971-4.898-11.726-5.241-17.269
		c-0.344-5.543,0.557-10.864,2.693-15.96c2.143-5.096,5.097-9.782,8.867-14.051l37.013-41.895c2.04-2.311,4.092-4.861,6.153-7.663
		c2.064-2.801,3.646-5.054,4.737-6.758l21.12,18.658c-0.785,1.357-1.988,3.122-3.6,5.297c-1.609,2.17-3.129,4.064-4.559,5.682
		c5.152-1.41,10.898-1.574,17.235-0.493c6.34,1.083,12.687,4.426,19.032,10.032c4.501,3.977,7.932,8.293,10.293,12.946
		c2.362,4.653,3.769,9.286,4.215,13.895c0.452,4.609-0.011,9.03-1.388,13.261C412.81,1335.962,410.643,1339.75,407.684,1343.099z
		 M381.073,1304.486c-2.424-2.141-5.041-3.89-7.853-5.241c-2.81-1.355-5.771-2.017-8.879-1.987
		c-3.107,0.028-6.275,0.822-9.508,2.388c-3.229,1.563-6.528,4.251-9.894,8.059l-3.363,3.81l21.815,14.033
		c3.411,2.189,6.865,3.339,10.36,3.45c3.5,0.11,6.727-1.509,9.683-4.854c2.244-2.54,3.336-5.636,3.271-9.286
		C386.646,1311.207,384.768,1307.75,381.073,1304.486z"/>
	<path id="XMLID_327_" fill="#111111" d="M214.071,1213.969c1.396,2.815,3.031,5.443,4.911,7.881
		c2.447,3.172,5.181,5.828,8.194,7.976c3.02,2.146,6.304,3.502,9.851,4.07c3.552,0.569,7.437,0.245,11.653-0.967
		c4.22-1.213,8.769-3.701,13.645-7.462l41.154-31.744l18.766,24.326l-89.991,69.416l-18.2-23.595l13.353-10.3
		c-3.961,0.917-7.708,1.035-11.247,0.36c-3.533-0.675-6.707-1.828-9.518-3.452c-2.809-1.626-5.314-3.485-7.516-5.582
		c-2.199-2.095-4.051-4.117-5.557-6.069c-0.752-0.975-1.45-1.944-2.096-2.905c-0.642-0.963-1.278-1.977-1.913-3.048
		L214.071,1213.969z"/>
	<path id="XMLID_329_" fill="#111111" d="M154.046,1108.239c0.903,3.01,2.073,5.875,3.517,8.594
		c1.879,3.539,4.125,6.616,6.735,9.239c2.615,2.625,5.624,4.513,9.025,5.67c3.406,1.159,7.29,1.492,11.65,1.007
		c4.363-0.485,9.267-2.173,14.705-5.061l45.907-24.372l14.406,27.136l-100.383,53.294l-13.974-26.32l14.895-7.907
		c-4.058,0.238-7.771-0.274-11.146-1.536c-3.369-1.259-6.303-2.93-8.803-5.004c-2.495-2.075-4.652-4.329-6.468-6.765
		c-1.816-2.436-3.302-4.741-4.458-6.918c-0.577-1.088-1.103-2.161-1.577-3.217c-0.471-1.058-0.928-2.164-1.373-3.325
		L154.046,1108.239z"/>
	<path id="XMLID_331_" fill="#111111" d="M191.604,964.147c-1.093,0.646-2.728,1.367-4.9,2.164
		c-2.173,0.801-4.367,1.525-6.584,2.178c6.043,1.436,11.044,4.66,15.004,9.673c3.962,5.016,6.791,10.402,8.486,16.165
		c1.955,6.648,2.536,12.858,1.746,18.628c-0.79,5.771-2.584,10.993-5.385,15.67c-2.798,4.675-6.548,8.708-11.251,12.097
		c-4.698,3.392-10.006,5.953-15.917,7.69l-68.923,20.27l-8.668-29.475l62.939-18.509c6.205-1.826,10.946-4.943,14.223-9.36
		c3.276-4.414,3.895-10.092,1.853-17.038c-1.956-6.648-5.449-11.158-10.481-13.532c-5.031-2.372-10.723-2.625-17.077-0.756
		L83.287,998.65l-8.669-29.476l89.312-26.264c4.287-1.261,8.133-2.512,11.538-3.754c3.407-1.243,6.029-2.293,7.861-3.154
		L191.604,964.147z"/>
	<path id="XMLID_333_" fill="#111111" d="M173.525,871.66c6.248-1.402,11.251-4.517,15.013-9.339
		c3.758-4.821,5.446-10.924,5.063-18.306c-0.504-9.688-3.393-17.017-8.66-21.987c-5.271-4.967-13.442-7.166-24.515-6.59
		l-8.305,0.432c3.811,2.115,7.352,5.712,10.622,10.782c3.271,5.074,5.122,11.762,5.554,20.067
		c0.392,7.537-0.629,14.604-3.062,21.208s-5.984,12.379-10.665,17.324c-4.676,4.949-10.291,8.942-16.842,11.979
		c-6.55,3.041-13.822,4.767-21.82,5.183c-7.533,0.392-14.717-0.544-21.543-2.813c-6.826-2.266-12.896-5.575-18.212-9.926
		c-5.314-4.35-9.6-9.678-12.858-15.985c-3.255-6.308-5.091-13.383-5.499-21.227c-0.471-9.072,0.772-16.308,3.73-21.706
		c2.957-5.395,6.31-9.193,10.047-11.395l-13.379,0.696l-1.535-29.528l101.272-5.265c7.844-0.407,15.399,0.32,22.666,2.176
		c7.268,1.86,13.753,5.032,19.463,9.514c5.704,4.485,10.408,10.41,14.107,17.771c3.697,7.365,5.824,16.352,6.375,26.964
		c0.408,7.843-0.34,15.017-2.235,21.513c-1.899,6.5-4.609,12.23-8.127,17.192c-3.522,4.965-7.706,9.039-12.551,12.218
		c-4.848,3.183-9.941,5.299-15.283,6.347L173.525,871.66z M141.723,842.78c-0.408-7.844-3.354-14.127-8.846-18.855
		c-5.485-4.724-12.615-6.861-21.382-6.406c-8.766,0.456-15.587,3.435-20.47,8.93c-4.879,5.498-7.128,11.936-6.745,19.317
		c0.199,3.846,1.042,7.388,2.519,10.626c1.48,3.24,3.552,6.024,6.218,8.351c2.665,2.33,5.803,4.093,9.411,5.294
		c3.611,1.2,7.569,1.688,11.873,1.464c8.921-0.464,15.825-3.366,20.713-8.71C139.903,857.447,142.138,850.778,141.723,842.78z"/>
	<path id="XMLID_336_" fill="#111111" d="M25.441,721.732c-5.344-0.696-9.611-3.115-12.8-7.258
		c-3.188-4.142-4.443-8.808-3.767-14.001c0.695-5.344,3.109-9.572,7.242-12.685c4.132-3.109,8.872-4.319,14.216-3.623
		c5.039,0.655,9.158,3.019,12.355,7.082c3.198,4.067,4.449,8.772,3.753,14.117c-0.677,5.192-3.085,9.382-7.228,12.569
		S30.48,722.389,25.441,721.732z M175.499,737.543l-112.7-14.674l3.967-30.465l112.701,14.674L175.499,737.543z"/>
	<path id="XMLID_339_" fill="#111111" d="M155.801,655.886c-4.853-1.511-8.891-3.694-12.113-6.554
		c-3.224-2.855-5.773-6.19-7.651-10.003c-1.877-3.81-3.018-7.915-3.424-12.316c-0.403-4.397-0.263-8.992,0.42-13.78l4.339-27.924
		c0.521-3.226,0.267-5.641-0.766-7.255c-1.03-1.61-2.5-2.714-4.413-3.31c-3.821-1.189-7.601-0.711-11.333,1.432
		c-3.73,2.146-6.56,6.304-8.482,12.48c-2.015,6.472-1.795,11.983,0.658,16.535c2.453,4.556,5.965,7.785,10.531,9.69l-13.617,24.309
		c-4.126-1.769-7.977-4.419-11.556-7.953c-3.576-3.532-6.461-7.734-8.653-12.613c-2.191-4.874-3.483-10.437-3.877-16.69
		c-0.39-6.25,0.556-13.052,2.845-20.405c2.654-8.526,6.063-15.449,10.218-20.771c4.157-5.317,8.692-9.27,13.61-11.852
		c4.916-2.582,10.139-3.938,15.663-4.075c5.526-0.132,11.012,0.646,16.449,2.339l53.375,16.619c2.943,0.916,6.11,1.743,9.511,2.477
		c3.399,0.737,6.104,1.259,8.104,1.556l-8.378,26.908c-1.56-0.16-3.662-0.535-6.305-1.116c-2.641-0.58-4.99-1.19-7.051-1.832
		c3.396,4.123,5.897,9.298,7.505,15.522c1.607,6.228,1.155,13.387-1.361,21.472c-1.786,5.734-4.319,10.631-7.599,14.69
		s-6.931,7.24-10.952,9.533c-4.02,2.299-8.244,3.687-12.667,4.161C164.41,657.641,160.067,657.214,155.801,655.886z
		 M180.136,615.801c0.962-3.088,1.485-6.19,1.568-9.311c0.086-3.118-0.522-6.09-1.821-8.914c-1.298-2.823-3.32-5.388-6.071-7.696
		c-2.749-2.308-6.551-4.217-11.402-5.728l-4.854-1.512l-3.872,25.65c-0.602,4.009-0.236,7.631,1.093,10.864
		c1.332,3.238,4.13,5.52,8.393,6.847c3.236,1.008,6.508,0.737,9.811-0.816C176.286,623.638,178.671,620.509,180.136,615.801z"/>
</g>
<g id="XMLID_1588_">
	<path id="XMLID_1658_" fill="#111111" d="M557.788,804.666V689.512c0-116.497,80.317-210.936,179.394-210.936h152.851
		c99.077,0,179.394,94.439,179.394,210.936v115.154H557.788z"/>
	<path id="XMLID_1655_" fill="#FFFFFF" d="M1031.794,713.246v268.48c0,60.48-70.18,113.94-120.97,144.72
		c-29.86,18.09-64.13,27.6-99.05,27.6c-34.91,0-69.18-9.51-99.05-27.6c-50.78-30.78-120.96-84.24-120.96-144.72v-268.48
		c0-34.15,27.94-62.1,62.1-62.1h315.83C1003.844,651.146,1031.794,679.096,1031.794,713.246z"/>
	<path id="XMLID_1652_" fill="#D8DDE9" d="M1086.804,843.876c-2.3,25.82-22.22,46-46.47,46c-2.92,0-5.77-0.29-8.54-0.86v4.4
		c-21.7-4.38-38.14-19.56-38.14-44.54c0-1.69,0.07-3.35,0.22-5c2.02-22.71,17.68-41.07,37.92-45.15c2.77-0.57,5.62-0.86,8.54-0.86
		C1064.584,797.866,1084.504,818.056,1086.804,843.876z"/>
	<path id="XMLID_1649_" fill="#D8DDE9" d="M536.654,843.876c2.3,25.82,22.22,46,46.47,46c2.92,0,5.77-0.29,8.54-0.86v4.4
		c21.7-4.38,38.14-19.56,38.14-44.54c0-1.69-0.07-3.35-0.22-5c-2.02-22.71-17.68-41.07-37.92-45.15c-2.77-0.57-5.62-0.86-8.54-0.86
		C558.874,797.866,538.954,818.056,536.654,843.876z"/>
	<path id="XMLID_1646_" fill="#D8DDE9" d="M1057.02,733.565H770.513c-55.105,0-100.19-45.086-100.19-100.19v-57.709
		c0-6.6,5.4-12,12-12h362.698c6.6,0,12,5.4,12,12V733.565z"/>
	<path id="XMLID_1645_" fill="#111111" d="M848.492,456.616h105.199c42.956,0,78.101,35.146,78.101,78.101v0c0,6.6-5.4,12-12,12
		H782.39c-6.6,0-12-5.4-12-12v0C770.39,491.762,805.536,456.616,848.492,456.616z"/>
	<path id="XMLID_1644_" fill="#111111" d="M1008.919,703.565H778.424c-42.956,0-78.101-35.146-78.101-78.101v-79.798
		c0-6.6,5.4-12,12-12h362.698c6.6,0,12,5.4,12,12v79.798C1087.02,668.419,1051.874,703.565,1008.919,703.565z"/>
	<rect id="XMLID_1643_" x="659.429" y="554.041" fill="#111111" width="57.5" height="96.75"/>
	<rect id="XMLID_1642_" x="1031.792" y="651.115" fill="#111111" width="37.635" height="92.5"/>
	<g id="XMLID_1635_">
		<path id="XMLID_276_" fill="#FFFFFF" d="M617.048,913.575c11.071,34.172,27.782,66.235,49.348,94.952
			c4.582,6.101,15.005,0.127,10.362-6.057c-20.949-27.895-37.381-58.88-48.138-92.086
			C626.249,903.069,614.658,906.199,617.048,913.575L617.048,913.575z"/>
	</g>
	<path id="XMLID_1634_" fill="#111111" d="M650.379,935.7L650.379,935.7c-2.917,2.685-7.691,2.685-10.608,0l-10.742-9.887
		c-2.917-2.685-2.917-7.078,0-9.763l0,0c2.917-2.685,7.691-2.685,10.608,0l10.742,9.887
		C653.296,928.622,653.296,933.015,650.379,935.7z"/>
	<path id="XMLID_1633_" fill="#111111" d="M643.304,983.82L643.304,983.82c-2.917,2.685-7.691,2.685-10.608,0l-10.742-9.887
		c-2.917-2.685-2.917-7.078,0-9.763v0c2.917-2.685,7.691-2.685,10.608,0l10.742,9.887
		C646.221,976.742,646.221,981.135,643.304,983.82z"/>
	<path id="XMLID_1632_" fill="#111111" d="M650.379,1033.604L650.379,1033.604c-2.917,2.685-7.691,2.685-10.608,0l-10.742-9.887
		c-2.917-2.685-2.917-7.078,0-9.763l0,0c2.917-2.685,7.691-2.685,10.608,0l10.742,9.887
		C653.296,1026.525,653.296,1030.919,650.379,1033.604z"/>
	<path id="XMLID_1631_" fill="#111111" d="M705.979,1047.743L705.979,1047.743c-2.917,2.685-7.691,2.685-10.608,0l-10.742-9.887
		c-2.917-2.685-2.917-7.078,0-9.763l0,0c2.917-2.685,7.691-2.685,10.608,0l10.742,9.887
		C708.896,1040.665,708.896,1045.058,705.979,1047.743z"/>
	<path id="XMLID_1630_" fill="#111111" d="M751.312,1089.468L751.312,1089.468c-2.917,2.685-7.691,2.685-10.608,0l-10.742-9.887
		c-2.917-2.685-2.917-7.078,0-9.763l0,0c2.917-2.685,7.691-2.685,10.608,0l10.742,9.887
		C754.229,1082.39,754.229,1086.783,751.312,1089.468z"/>
	<path id="XMLID_1629_" fill="#111111" d="M977.553,935.7L977.553,935.7c2.917,2.685,7.691,2.685,10.608,0l10.742-9.887
		c2.917-2.685,2.917-7.078,0-9.763l0,0c-2.917-2.685-7.691-2.685-10.608,0l-10.742,9.887
		C974.636,928.622,974.636,933.015,977.553,935.7z"/>
	<path id="XMLID_1628_" fill="#111111" d="M984.629,983.82L984.629,983.82c2.917,2.685,7.691,2.685,10.608,0l10.742-9.887
		c2.917-2.685,2.917-7.078,0-9.763v0c-2.917-2.685-7.691-2.685-10.608,0l-10.742,9.887
		C981.712,976.742,981.712,981.135,984.629,983.82z"/>
	<path id="XMLID_1627_" fill="#111111" d="M977.553,1033.604L977.553,1033.604c2.917,2.685,7.691,2.685,10.608,0l10.742-9.887
		c2.917-2.685,2.917-7.078,0-9.763l0,0c-2.917-2.685-7.691-2.685-10.608,0l-10.742,9.887
		C974.636,1026.525,974.636,1030.919,977.553,1033.604z"/>
	<path id="XMLID_1626_" fill="#111111" d="M921.954,1047.743L921.954,1047.743c2.917,2.685,7.691,2.685,10.608,0l10.742-9.887
		c2.917-2.685,2.917-7.078,0-9.763l0,0c-2.917-2.685-7.691-2.685-10.608,0l-10.742,9.887
		C919.037,1040.665,919.037,1045.058,921.954,1047.743z"/>
	<path id="XMLID_1625_" fill="#111111" d="M876.532,1089.549L876.532,1089.549c2.917,2.685,7.691,2.685,10.608,0l10.742-9.887
		c2.917-2.685,2.917-7.078,0-9.763l0,0c-2.917-2.685-7.691-2.685-10.608,0l-10.742,9.887
		C873.615,1082.471,873.615,1086.865,876.532,1089.549z"/>
	<g id="XMLID_1623_">
		<path id="XMLID_1624_" fill="#111111" d="M825.008,847.694c5.716,10.938,11.304,23.259,11.266,35.86
			c-0.022,7.233-2.299,13.137-7.201,17.644c-8.304,7.634-21.876,9.422-33.653,9.438c-3.19,0.004-6.416-0.084-9.587-0.47
			c-7.649-0.931-7.581,11.077,0,12c25.565,3.112,59.761-4.988,62.309-35.442c1.313-15.691-5.692-31.538-12.772-45.086
			C831.792,834.791,821.432,840.85,825.008,847.694L825.008,847.694z"/>
	</g>
	<g id="XMLID_1621_">
		<path id="XMLID_1622_" fill="#111111" d="M866.064,998.346c-2.04,0.72-4.09,1.42-6.15,2.07c-13.44,4.31-27.34,7.2-41.46,7.97
			c-19.08,1.05-38.52-2.31-55.58-11.08c-6.65-3.42-13.7-7.85-18.7-13.51c-0.11-0.13-0.22-0.26-0.32-0.38
			c-6.96-8.65,5.47-20.92,13.05-12.35c0.49,0.56,1.03,1.07,1.57,1.58c0.64,0.61,1.3,1.19,1.97,1.76c0.38,0.32,0.77,0.63,1.15,0.95
			c0.02,0.01,0.03,0.02,0.05,0.03c0.05,0.04,0.11,0.08,0.17,0.12c2.68,1.86,5.36,3.66,8.23,5.24c0.5,0.27,1,0.54,1.51,0.81
			c1.27,0.65,2.56,1.27,3.85,1.88c0.32,0.14,0.64,0.29,0.97,0.43c0.06,0.03,0.12,0.06,0.19,0.08c0.02,0.01,0.03,0.01,0.05,0.02
			c0.03,0.02,0.06,0.03,0.09,0.04c0.1,0.04,0.21,0.08,0.34,0.14c1.08,0.42,2.17,0.84,3.26,1.22c26.35,9.32,54.85,4.89,80.97-4.38
			c5.73-2.03,9.74,1.75,10.71,6.38C872.884,991.576,871.244,996.506,866.064,998.346z"/>
	</g>
	<circle id="XMLID_1620_" fill="#111111" cx="916.911" cy="816.915" r="29.249"/>
	<circle id="XMLID_1619_" fill="#111111" cx="708.408" cy="816.817" r="29.249"/>
	<path id="XMLID_1609_" fill="#111111" d="M750.226,768.068h-83.635c-5.775,0-10.499-4.725-10.499-10.499v0
		c0-5.775,4.725-10.499,10.499-10.499h83.635c5.775,0,10.5,4.725,10.5,10.499v0C760.725,763.343,756.001,768.068,750.226,768.068z"
		/>
	<path id="XMLID_1604_" fill="#111111" d="M958.729,768.068h-83.635c-5.775,0-10.499-4.725-10.499-10.5l0,0
		c0-5.775,4.725-10.499,10.499-10.499h83.635c5.775,0,10.499,4.725,10.499,10.499l0,0
		C969.228,763.343,964.503,768.068,958.729,768.068z"/>
	<path id="XMLID_1602_" fill="#FFFFFF" d="M1087.024,838.876c0,1.69-0.07,3.35-0.22,5c-2.3,25.82-22.22,46-46.47,46
		c-2.92,0-5.77-0.29-8.54-0.86c-20.24-4.08-55.9-22.43-57.92-45.14c-0.15-1.65-0.22-3.31-0.22-5c0-24.98,36.44-45.77,58.14-50.15
		c2.77-0.57,5.62-0.86,8.54-0.86C1066.124,787.866,1087.024,810.706,1087.024,838.876z"/>
	<g id="XMLID_1598_">
		<path id="XMLID_1599_" fill="#111111" d="M1041.445,831.068c4.048,2.876,9.068,6.811,5.433,10.735
			c-1.12,1.21-2.483,2.05-4.056,2.923c-0.999,0.554-3.576,1.624-1.747,0.918c-7.128,2.753-4.031,14.361,3.19,11.571
			c5.392-2.083,10.788-5.423,13.889-10.431c6.523-10.533-2.388-20.204-10.653-26.077
			C1041.195,816.225,1035.195,826.627,1041.445,831.068L1041.445,831.068z"/>
	</g>
	<path id="XMLID_1596_" fill="#FFFFFF" d="M649.382,838.874c0,28.169-40.901,51.005-66.684,51.005s-46.684-22.836-46.684-51.005
		c0-28.169,20.901-51.005,46.684-51.005S649.382,810.704,649.382,838.874z"/>
	<g id="XMLID_1589_">
		<path id="XMLID_1595_" fill="#111111" d="M572.49,823.775c-4.91,9.069-8.032,21.605,2.533,28.012
			c4.467,2.709,10.481,3.572,15.641,3.081c7.621-0.726,7.696-12.733,0-12c-1.101,0.105-2.22,0.105-3.323,0.063
			c-0.522-0.02-3.073-0.321-1.686-0.096c-1.211-0.197-2.43-0.46-3.585-0.886c-0.981-0.362-1.913-0.974-2.201-1.951
			c-0.177-0.6-0.175-1.924,0.127-3.326c0.525-2.437,1.68-4.667,2.856-6.84C586.529,823.04,576.172,816.975,572.49,823.775
			L572.49,823.775z"/>
	</g>
</g>
</svg>
