<?xml version="1.0" encoding="iso-8859-1"?>
<!-- Generator: Adobe Illustrator 19.0.0, SVG Export Plug-In . SVG Version: 6.00 Build 0)  -->
<svg version="1.1" baseProfile="tiny" id="Layer_1" xmlns="http://www.w3.org/2000/svg" xmlns:xlink="http://www.w3.org/1999/xlink"
	 x="0px" y="0px" viewBox="0 0 787.333 374.333" xml:space="preserve">
<g id="XMLID_69_">
	<g id="XMLID_342_">
		<path id="XMLID_675_" fill="#FFFFFD" d="M448.667,50v290.693c0,6.805-4.811,12.307-11.615,12.307H264.873
			c-6.805,0-12.206-5.502-12.206-12.307V50H448.667z"/>
		<path id="XMLID_683_" fill="#282A3D" d="M247.667,45v295.693c0,9.248,7.958,17.307,17.206,17.307h172.178
			c9.248,0,16.615-8.059,16.615-17.307V45H247.667z M448.667,340.693c0,6.805-4.811,12.307-11.615,12.307H264.873
			c-6.805,0-12.206-5.502-12.206-12.307V50h196V340.693z"/>
	</g>
	<path id="XMLID_614_" fill="#282A3D" d="M305.96,113.654h-39.415c-1.818,0-3.292-1.474-3.292-3.292V70.947
		c0-1.818,1.474-3.292,3.292-3.292h39.415c1.818,0,3.292,1.474,3.292,3.292v39.415C309.252,112.18,307.778,113.654,305.96,113.654z"
		/>
	<path id="XMLID_672_" fill="#282A3D" d="M453.667,10.788V46h-206V10.788c0-5.881,4.731-10.788,9.72-10.788h188.035
		C450.404,0,453.667,4.908,453.667,10.788z"/>
	<path id="XMLID_617_" fill="#F19AC1" d="M305.96,187.294h-39.415c-1.818,0-3.292-1.474-3.292-3.292v-39.415
		c0-1.818,1.474-3.292,3.292-3.292h39.415c1.818,0,3.292,1.474,3.292,3.292v39.415C309.252,185.82,307.778,187.294,305.96,187.294z"
		/>
	<path id="XMLID_619_" fill="#282A3D" d="M305.96,260.09h-39.415c-1.818,0-3.292-1.474-3.292-3.292v-39.415
		c0-1.818,1.474-3.292,3.292-3.292h39.415c1.818,0,3.292,1.474,3.292,3.292v39.415C309.252,258.616,307.778,260.09,305.96,260.09z"
		/>
	<path id="XMLID_631_" fill="#F19AC1" d="M305.96,331.62h-39.415c-1.818,0-3.292-1.474-3.292-3.292v-39.415
		c0-1.818,1.474-3.292,3.292-3.292h39.415c1.818,0,3.292,1.474,3.292,3.292v39.415C309.252,330.146,307.778,331.62,305.96,331.62z"
		/>
	<path id="XMLID_643_" fill="#F19AC1" d="M434.793,75.252H326.137c-1.285,0-2.326-1.041-2.326-2.326v-2.944
		c0-1.285,1.041-2.326,2.326-2.326h108.656c1.285,0,2.326,1.041,2.326,2.326v2.944C437.12,74.21,436.078,75.252,434.793,75.252z"/>
	<path id="XMLID_646_" fill="#F19AC1" d="M434.793,94.242H326.137c-1.285,0-2.326-1.041-2.326-2.326v-2.944
		c0-1.285,1.041-2.326,2.326-2.326h108.656c1.285,0,2.326,1.041,2.326,2.326v2.944C437.12,93.2,436.078,94.242,434.793,94.242z"/>
	<path id="XMLID_652_" fill="#F19AC1" d="M405.359,113.232h-79.221c-1.285,0-2.326-1.041-2.326-2.326v-2.944
		c0-1.285,1.041-2.326,2.326-2.326h79.221c1.285,0,2.326,1.041,2.326,2.326v2.944C407.685,112.191,406.643,113.232,405.359,113.232z
		"/>
	<path id="XMLID_656_" fill="#282A3D" d="M409.895,149.103h-83.758c-1.285,0-2.326-1.041-2.326-2.326v-2.944
		c0-1.285,1.041-2.326,2.326-2.326h83.758c1.285,0,2.326,1.041,2.326,2.326v2.944C412.221,148.061,411.18,149.103,409.895,149.103z"
		/>
	<path id="XMLID_655_" fill="#282A3D" d="M387.951,168.093h-61.814c-1.285,0-2.326-1.041-2.326-2.326v-2.944
		c0-1.285,1.041-2.326,2.326-2.326h61.814c1.285,0,2.326,1.041,2.326,2.326v2.944C390.277,167.051,389.236,168.093,387.951,168.093z
		"/>
	<path id="XMLID_654_" fill="#282A3D" d="M434.793,187.083H326.137c-1.285,0-2.326-1.041-2.326-2.326v-2.944
		c0-1.285,1.041-2.326,2.326-2.326h108.656c1.285,0,2.326,1.041,2.326,2.326v2.944C437.12,186.042,436.078,187.083,434.793,187.083z
		"/>
	<path id="XMLID_659_" fill="#F19AC1" d="M434.793,221.899H326.137c-1.285,0-2.326-1.041-2.326-2.326v-2.944
		c0-1.285,1.041-2.326,2.326-2.326h108.656c1.285,0,2.326,1.041,2.326,2.326v2.944C437.12,220.857,436.078,221.899,434.793,221.899z
		"/>
	<path id="XMLID_658_" fill="#F19AC1" d="M434.793,240.889H326.137c-1.285,0-2.326-1.041-2.326-2.326v-2.944
		c0-1.285,1.041-2.326,2.326-2.326h108.656c1.285,0,2.326,1.041,2.326,2.326v2.944C437.12,239.847,436.078,240.889,434.793,240.889z
		"/>
	<path id="XMLID_657_" fill="#F19AC1" d="M369.172,259.879h-43.034c-1.285,0-2.326-1.041-2.326-2.326v-2.944
		c0-1.285,1.041-2.326,2.326-2.326h43.034c1.285,0,2.326,1.041,2.326,2.326v2.944C371.498,258.838,370.456,259.879,369.172,259.879z
		"/>
	<path id="XMLID_662_" fill="#282A3D" d="M434.793,293.217H326.137c-1.285,0-2.326-1.041-2.326-2.326v-2.944
		c0-1.285,1.041-2.326,2.326-2.326h108.656c1.285,0,2.326,1.041,2.326,2.326v2.944C437.12,292.176,436.078,293.217,434.793,293.217z
		"/>
	<path id="XMLID_661_" fill="#282A3D" d="M434.793,312.208H326.137c-1.285,0-2.326-1.041-2.326-2.326v-2.944
		c0-1.285,1.041-2.326,2.326-2.326h108.656c1.285,0,2.326,1.041,2.326,2.326v2.944C437.12,311.166,436.078,312.208,434.793,312.208z
		"/>
	<path id="XMLID_660_" fill="#282A3D" d="M369.172,331.198h-43.034c-1.285,0-2.326-1.041-2.326-2.326v-2.944
		c0-1.285,1.041-2.326,2.326-2.326h43.034c1.285,0,2.326,1.041,2.326,2.326v2.944C371.498,330.156,370.456,331.198,369.172,331.198z
		"/>
	<path id="XMLID_645_" fill="#F19AC1" d="M279.82,17.859h-15.198c-0.348,0-0.63-0.282-0.63-0.63v-0.797
		c0-0.348,0.282-0.63,0.63-0.63h15.198c0.348,0,0.63,0.282,0.63,0.63v0.797C280.45,17.577,280.168,17.859,279.82,17.859z"/>
	<path id="XMLID_664_" fill="#F19AC1" d="M279.82,22.923h-15.198c-0.348,0-0.63-0.282-0.63-0.63v-0.797
		c0-0.348,0.282-0.63,0.63-0.63h15.198c0.348,0,0.63,0.282,0.63,0.63v0.797C280.45,22.641,280.168,22.923,279.82,22.923z"/>
	<path id="XMLID_665_" fill="#F19AC1" d="M279.82,27.987h-15.198c-0.348,0-0.63-0.282-0.63-0.63V26.56c0-0.348,0.282-0.63,0.63-0.63
		h15.198c0.348,0,0.63,0.282,0.63,0.63v0.797C280.45,27.705,280.168,27.987,279.82,27.987z"/>
	<path id="XMLID_688_" fill="#191315" d="M495.26,227.613l-31.105,132.995c-2.226,9.517-11.745,15.427-21.261,13.201l-11.753-2.749
		c-9.517-2.226-15.427-11.745-13.201-21.261l31.105-132.995"/>
	<path id="XMLID_679_" fill="#37282B" d="M490.463,226.491L458.71,362.259c-1.868,7.985-9.855,12.945-17.84,11.077l-17.299-4.046
		c-7.985-1.868-12.945-9.855-11.077-17.84l31.753-135.767"/>
	<line id="XMLID_689_" fill="#141414" x1="495.224" y1="227.605" x2="449.008" y2="216.796"/>
	<line id="XMLID_667_" fill="#1F1F1F" x1="490.427" y1="226.483" x2="444.211" y2="215.674"/>
	<path id="XMLID_669_" fill="#191315" d="M526.479,21.92l-14.261-3.335c-8.824-2.064-17.65,3.416-19.714,12.241l-31.398,134.249
		l46.216,10.809l31.398-134.249C540.783,32.81,535.303,23.984,526.479,21.92z"/>
	<path id="XMLID_670_" fill="#37282B" d="M521.682,20.798l-14.261-3.335c-8.824-2.064-17.65,3.416-19.714,12.241l-31.398,134.249
		l46.216,10.809l31.398-134.249C535.986,31.689,530.506,22.862,521.682,20.798z"/>
	<circle id="XMLID_666_" fill="#D8D8D8" cx="473.278" cy="188.814" r="45.396"/>
	
		<ellipse id="XMLID_684_" transform="matrix(0.9737 0.2277 -0.2277 0.9737 55.7624 -103.7303)" fill="#D8D8D8" cx="477.383" cy="189.774" rx="47.736" ry="45.396"/>
	<circle id="XMLID_712_" fill="#141414" cx="475.104" cy="189.242" r="43.144"/>
	<circle id="XMLID_680_" fill="#1F1F1F" cx="473.278" cy="188.815" r="43.144"/>
	
		<rect id="XMLID_693_" x="483.595" y="145.162" transform="matrix(0.9737 0.2277 -0.2277 0.9737 45.8567 -106.8687)" fill="#D8D8D8" width="4.869" height="0.236"/>
</g>
</svg>
