<?xml version="1.0" encoding="iso-8859-1"?>
<!-- Generator: Adobe Illustrator 19.0.0, SVG Export Plug-In . SVG Version: 6.00 Build 0)  -->
<svg version="1.1" baseProfile="tiny" id="Layer_1" xmlns="http://www.w3.org/2000/svg" xmlns:xlink="http://www.w3.org/1999/xlink"
	 x="0px" y="0px" viewBox="0 0 606 418" xml:space="preserve">
<g id="XMLID_1938_">
	<path id="XMLID_577_" fill="#FFFFFD" d="M606,399.562c0,10.11-8.204,18.438-18.325,18.438H18.325C8.204,418,0,409.673,0,399.562
		V18.307C0,8.196,8.204,0,18.325,0h569.351C597.796,0,606,8.196,606,18.307V399.562z"/>
	<path id="XMLID_606_" fill="#EAEAEA" d="M117.499,288.424l79.035-77.162c6.411-6.259,16.805-6.259,23.217,0l28.213,27.544
		c5.278,5.153,13.836,5.153,19.114,0l91.186-89.025c7.119-6.951,18.911-6.064,24.857,1.868l103.916,138.642
		c7.936,10.588,0.191,25.492-13.248,25.492h-344.68C114.482,315.785,107.157,298.521,117.499,288.424z"/>
	<g id="XMLID_554_">
		<path id="XMLID_571_" fill="#282A3D" d="M606,18.307C606,8.196,597.796,0,587.675,0H18.325C8.204,0,0,8.196,0,18.307v381.255
			C0,409.673,8.204,418,18.325,418h569.351c10.12,0,18.325-8.327,18.325-18.438V18.307z M597,399.845
			c0,5.101-3.964,9.155-9.083,9.155H18.585C13.465,409,9,404.946,9,399.845V38h588V399.845z M597,29H9V17.721
			C9,12.602,13.465,9,18.585,9h569.332c5.119,0,9.083,3.602,9.083,8.721V29z"/>
	</g>
	<circle id="XMLID_379_" fill="#282A3D" cx="26.538" cy="18.758" r="4.221"/>
	<circle id="XMLID_556_" fill="#282A3D" cx="44.628" cy="18.758" r="4.221"/>
	<circle id="XMLID_557_" fill="#282A3D" cx="62.717" cy="18.758" r="4.221"/>
	<circle id="XMLID_376_" fill="#F19AC1" cx="135.929" cy="81.721" r="20.149"/>
	<path id="XMLID_558_" fill="#F19AC1" d="M369.199,87.148h-34.701c-1.657,0-3-1.343-3-3v-4.854c0-1.657,1.343-3,3-3h34.701
		c1.657,0,3,1.343,3,3v4.854C372.199,85.805,370.856,87.148,369.199,87.148z"/>
	<path id="XMLID_561_" fill="#F19AC1" d="M427.99,87.148h-34.702c-1.657,0-3-1.343-3-3v-4.854c0-1.657,1.343-3,3-3h34.702
		c1.657,0,3,1.343,3,3v4.854C430.99,85.805,429.647,87.148,427.99,87.148z"/>
	<path id="XMLID_562_" fill="#F19AC1" d="M486.781,87.148H452.08c-1.657,0-3-1.343-3-3v-4.854c0-1.657,1.343-3,3-3h34.702
		c1.657,0,3,1.343,3,3v4.854C489.781,85.805,488.438,87.148,486.781,87.148z"/>
	<circle id="XMLID_581_" fill="#EAEAEA" cx="251.376" cy="142.295" r="29.471"/>
	<g id="XMLID_370_">
		<path id="XMLID_569_" fill="#F19AC1" d="M279.726,313.919h-43.519c-1.657,0-3-1.343-3-3v-7.205c0-1.657,1.343-3,3-3h43.519
			c1.657,0,3,1.343,3,3v7.205C282.726,312.576,281.383,313.919,279.726,313.919z"/>
		<path id="XMLID_560_" fill="#282A3D" d="M402.008,270.804H179.951c-1.582,0-2.865-1.283-2.865-2.865l0,0
			c0-1.582,1.283-2.865,2.865-2.865h222.057c1.582,0,2.865,1.283,2.865,2.865l0,0C404.873,269.522,403.591,270.804,402.008,270.804z
			"/>
		<path id="XMLID_566_" fill="#282A3D" d="M402.008,281.906H179.951c-1.582,0-2.865-1.283-2.865-2.865l0,0
			c0-1.582,1.283-2.865,2.865-2.865h222.057c1.582,0,2.865,1.283,2.865,2.865l0,0C404.873,280.624,403.591,281.906,402.008,281.906z
			"/>
		<path id="XMLID_567_" fill="#282A3D" d="M403.571,293.008H178.388c-0.719,0-1.302-0.583-1.302-1.302v-3.126
			c0-0.719,0.583-1.302,1.302-1.302h225.184c0.719,0,1.302,0.583,1.302,1.302v3.126C404.873,292.425,404.29,293.008,403.571,293.008
			z"/>
		<path id="XMLID_580_" fill="#282A3D" d="M228.142,226.788h-48.191c-1.582,0-2.865-1.283-2.865-2.865v0
			c0-1.582,1.283-2.865,2.865-2.865h48.191c1.582,0,2.865,1.283,2.865,2.865v0C231.007,225.505,229.724,226.788,228.142,226.788z"/>
		<path id="XMLID_579_" fill="#282A3D" d="M228.142,237.889h-48.191c-1.582,0-2.865-1.283-2.865-2.865v0
			c0-1.582,1.283-2.865,2.865-2.865h48.191c1.582,0,2.865,1.283,2.865,2.865v0C231.007,236.607,229.724,237.889,228.142,237.889z"/>
		<path id="XMLID_578_" fill="#282A3D" d="M228.142,248.991h-48.191c-1.582,0-2.865-1.283-2.865-2.865l0,0
			c0-1.582,1.283-2.865,2.865-2.865h48.191c1.582,0,2.865,1.283,2.865,2.865l0,0C231.007,247.709,229.724,248.991,228.142,248.991z"
			/>
		<path id="XMLID_603_" fill="#282A3D" d="M288.115,226.788h-48.191c-1.582,0-2.865-1.283-2.865-2.865v0
			c0-1.582,1.283-2.865,2.865-2.865h48.191c1.582,0,2.865,1.283,2.865,2.865v0C290.98,225.505,289.697,226.788,288.115,226.788z"/>
		<path id="XMLID_586_" fill="#282A3D" d="M288.115,237.889h-48.191c-1.582,0-2.865-1.283-2.865-2.865v0
			c0-1.582,1.283-2.865,2.865-2.865h48.191c1.582,0,2.865,1.283,2.865,2.865v0C290.98,236.607,289.697,237.889,288.115,237.889z"/>
		<path id="XMLID_585_" fill="#282A3D" d="M288.115,248.991h-48.191c-1.582,0-2.865-1.283-2.865-2.865l0,0
			c0-1.582,1.283-2.865,2.865-2.865h48.191c1.582,0,2.865,1.283,2.865,2.865l0,0C290.98,247.709,289.697,248.991,288.115,248.991z"
			/>
		<path id="XMLID_584_" fill="#282A3D" d="M288.115,191.574H179.951c-1.582,0-2.865-1.283-2.865-2.865v0
			c0-1.582,1.283-2.865,2.865-2.865h108.164c1.582,0,2.865,1.283,2.865,2.865v0C290.98,190.291,289.697,191.574,288.115,191.574z"/>
		<path id="XMLID_583_" fill="#282A3D" d="M288.115,202.676l-108.164,0c-1.582,0-2.865-1.283-2.865-2.865l0,0
			c0-1.582,1.283-2.865,2.865-2.865h108.164c1.582,0,2.865,1.283,2.865,2.865l0,0C290.98,201.393,289.697,202.676,288.115,202.676z"
			/>
		<path id="XMLID_582_" fill="#282A3D" d="M289.678,213.778h-111.29c-0.719,0-1.302-0.583-1.302-1.302v-3.126
			c0-0.719,0.583-1.302,1.302-1.302h111.29c0.719,0,1.302,0.583,1.302,1.302v3.126C290.98,213.195,290.397,213.778,289.678,213.778z
			"/>
		<path id="XMLID_565_" fill="#FFFFFF" d="M269.914,308.486H246.02c-0.646,0-1.169-0.523-1.169-1.169l0,0
			c0-0.646,0.523-1.169,1.169-1.169h23.894c0.646,0,1.169,0.523,1.169,1.169l0,0C271.083,307.963,270.56,308.486,269.914,308.486z"
			/>
		<path id="XMLID_576_" fill="#282A3D" d="M342.149,313.919h-36.314c-3.646,0-6.603-2.956-6.603-6.603v0
			c0-3.646,2.956-6.603,6.603-6.603h36.314c3.646,0,6.603,2.956,6.603,6.603v0C348.752,310.963,345.796,313.919,342.149,313.919z"/>
		<path id="XMLID_575_" fill="#FFFFFF" d="M335.939,308.486h-23.894c-0.646,0-1.169-0.523-1.169-1.169l0,0
			c0-0.646,0.523-1.169,1.169-1.169h23.894c0.646,0,1.169,0.523,1.169,1.169l0,0C337.108,307.963,336.585,308.486,335.939,308.486z"
			/>
		<path id="XMLID_574_" fill="#F19AC1" d="M402.582,248.994H301.524c-1.266,0-2.292-1.026-2.292-2.292v-58.567
			c0-1.266,1.026-2.292,2.292-2.292h101.057c1.266,0,2.292,1.026,2.292,2.292v58.567
			C404.873,247.968,403.847,248.994,402.582,248.994z"/>
		<path id="XMLID_604_" fill="#F19AC1" d="M398.241,146.288H183.718c-3.663,0-6.632-2.969-6.632-6.632v0
			c0-3.663,2.969-6.632,6.632-6.632h214.523c3.663,0,6.632,2.969,6.632,6.632v0C404.873,143.319,401.904,146.288,398.241,146.288z"
			/>
		<path id="XMLID_605_" fill="#282A3D" d="M345.061,156.787H236.898c-1.582,0-2.865-1.283-2.865-2.865l0,0
			c0-1.582,1.283-2.865,2.865-2.865h108.164c1.582,0,2.865,1.283,2.865,2.865l0,0C347.926,155.504,346.644,156.787,345.061,156.787z
			"/>
	</g>
</g>
</svg>
