<svg xmlns="http://www.w3.org/2000/svg" width="312" height="331" viewBox="0 0 312 331">
  <g fill="none" fill-rule="evenodd">
    <polygon fill="#1C1C1C" points="155.043 10.704 142.644 7.18 130.371 9.001 116.492 10.801 103.906 5.816 97.814 3.264 95.913 8.514 95.913 13.481 97.318 16.445 100.963 18.718 103.099 21.251 110.399 21.252 117.814 18.994 131.275 15.495 142.127 13.481 152.02 13.481 159.058 14.647"/>
    <g transform="translate(0 .127)">
      <path fill="#1C1C1C" d="M76.106088,30.9297382 L69.5624282,16.9229934 L74.737913,18.6512364 C74.737913,18.6512364 78.9311475,20.3202253 79.5115509,20.4394931 C80.0919543,20.5587609 85.8027295,22.5255394 85.8027295,22.5255394 L89.3924355,23.9263658 L92.3782338,28.2477329 L93.8514197,32.5470697 L76.106088,30.9297382 Z"/>
      <path fill="#303838" d="M94.9472865,65.2005309 C94.9472865,65.2005309 82.390329,65.3733552 75.1767981,40.6127608 L68.6426158,32.0729614 C68.6426158,32.0729614 76.2887009,30.1908858 81.7432039,30.7249319 C87.198086,31.258978 94.6311164,34.29081 95.5348928,34.6467141 C96.4386693,35.0026182 84.4761419,13.3665352 86.0452403,10.6864291 C87.6139597,8.00594324 103.099092,21.1242572 103.099092,21.1242572 C103.099092,21.1242572 103.750766,22.5478736 110.399058,21.1250168 C117.04735,19.7017802 130.014873,15.9645972 133.923024,14.5409808 C137.830796,13.1169845 151.293804,11.0624644 153.762888,12.0826975 C156.231593,13.1029307 161.564025,13.1173643 164.53011,14.7191227 C167.496195,16.3208811 171.048749,18.1007815 171.048749,18.1007815 L171.198115,9.4288 L168.530383,6.3540468 L184.655816,11.6933681 L194.674314,15.2531688 L208.53917,23.0093714 L215.170402,30.9152285 L218.45569,38.0344502 L219.499734,41.772013 L219.499734,46.3999059 L222.385449,47.4672384 L229.098567,44.0855796 L233.147364,42.8397254 L233.147364,48.6789077 L231.792079,52.6287976 L229.846154,56.5441226 L227.181833,59.7476394 L223.234256,64.7462499 L225.039913,69.1777688 L226.323549,74.4088375 L226.323549,78.6857641 L224.788191,86.2915526 L222.038193,91.8025587 L218.084929,96.6921569 L215.170402,99.1967799 L210.022212,99.1967799 L206.225138,101.791044 L202.836356,104.596115 L199.683753,107.473734 L194.537459,102.651747 L192.990348,97.4560024 L190.068239,92.491197 L188.00593,87.669589 L185.255933,75.709008 L184.119389,70.6370896 L184.655816,65.2989078 L180.090305,66.0825046 L170.895593,64.736754 L167.176613,62.1493274 L160.553722,58.9211214 L156.802519,57.3972289 L150.89499,55.4528606 L145.159573,54.6168467 L139.968924,54.4375653 L129.892045,55.776099 L124.212735,59.8175287 L116.308482,62.4455976 L107.34995,63.9641724 L100.744497,66.5333671 L94.9472865,65.2005309 Z"/>
      <path fill="#1C1C1C" d="M100.731304 104.598128L103.392592 109.422015C102.516869 111.290796 101.140733 112.494869 99.5940015 112.494869 96.9440865 112.494869 94.7983757 108.958618 94.7983757 104.598128 94.7983757 100.23384 96.9440865 96.6975886 99.5940015 96.6975886 101.493297 96.6975886 103.134803 98.5131933 103.91196 101.14544L100.731304 104.598128zM161.008339 104.218294L163.802313 109.281477C162.92659 111.230023 161.523916 112.494869 159.939275 112.494869 157.28936 112.494869 155.139858 108.958618 155.139858 104.598128 155.139858 100.23384 157.28936 96.6975886 159.939275 96.6975886 161.755168 96.6975886 163.336018 98.3612598 164.147294 100.811187L161.008339 104.218294zM148.631682 80.9548142L146.167527 90.4723053C165.300747 89.1189581 178.789534 91.0618071 184.65574 97.4563062 184.65574 97.4563062 183.410015 91.2946451 180.269544 84.9381294 176.810627 77.937036 148.631682 80.9548142 148.631682 80.9548142"/>
      <path fill="#53CCCD" d="M164.605968,197.718026 C163.703708,198.109254 146.591096,205.417253 128.166795,205.421052 C123.367378,205.421052 118.480768,204.923469 113.764753,203.681414 C103.710999,201.030175 96.1896379,191.95595 91.4015942,176.713226 C87.6750328,164.843425 85.5672321,149.1487 85.1350571,130.069657 C84.8052394,115.525827 85.514158,101.171915 86.4012539,89.7503176 C86.4884471,88.591825 86.5832224,87.4599208 86.6742066,86.366 C86.859966,84.1781583 87.0495164,82.1232584 87.2314848,80.2240903 C87.2618129,79.9202234 87.2921409,79.6201548 87.322469,79.3238846 C88.1261628,71.1992433 88.8426634,66.1094727 88.8578275,65.9841277 C88.9905128,65.0497369 90.2358591,65.2970086 91.1718591,65.4337487 C92.1048262,65.5666905 92.4369186,66.0676911 92.3042333,67.0020818 C92.2890693,67.1236285 91.5570255,71.3169918 90.7912418,78.9288576 C90.7457497,79.3618679 90.7040486,79.8062733 90.6585565,80.2582753 C90.4803791,82.0776784 90.2984107,84.0452165 90.1202333,86.1380998 C90.0330401,87.1408606 89.9496379,88.174008 89.8662357,89.2337439 C88.9563937,100.693324 88.209565,115.263742 88.5469648,130.027875 C89.2066002,159.157316 94.2675966,195.006014 114.632894,200.373063 C136.294717,206.08576 162.983417,194.698348 163.248787,194.5806 C164.113137,194.208363 165.117755,194.607188 165.493064,195.473209 C165.864583,196.33923 165.470318,197.34199 164.605968,197.718026"/>
      <path fill="#53CCCD" d="M119.056243,223.022542 L119.060034,223.022542 L119.056243,223.022542 Z M1.70822843,325.919091 C1.62672175,325.919091 1.54369866,325.913014 1.46067558,325.900859 C0.528087485,325.765258 -0.117521264,324.897718 0.0181968408,323.963708 C8.69695261,264.194987 52.5103961,226.025506 117.358629,221.603483 C117.132685,212.986578 112.686211,202.827927 112.638445,202.719675 C112.257069,201.857073 112.645648,200.847475 113.506965,200.464982 C114.36904,200.08287 115.375932,200.471819 115.757307,201.334422 C115.976807,201.829725 121.124617,213.578358 120.76106,223.272092 L120.703057,224.822573 L119.157084,224.914113 C88.0681604,226.759345 61.0458518,236.697692 41.01113,253.654224 C30.9403159,262.178071 22.6421774,272.438137 16.3475869,284.149547 C9.89187849,296.160266 5.53373512,309.721466 3.39446902,324.455592 C3.27088214,325.306419 2.5418712,325.918711 1.70822843,325.919091 L1.70822843,325.919091 Z"/>
      <path fill="#1C1C1C" d="M128.789733 146.963327C124.83609 146.963327 121.423045 145.453868 119.352397 142.766925 116.343094 138.862236 116.966336 133.952126 118.018341 130.521089 122.020508 117.472285 127.466292 90.411418 127.520883 90.1394571 127.727493 89.1108677 128.726802 88.4461588 129.753028 88.6516488 130.779254 88.8586582 131.443818 89.8598996 131.237587 90.8881092 131.182618 91.1619693 125.698924 118.408955 121.642166 131.636661 120.51055 135.327124 120.756207 138.37339 122.35298 140.445762 123.798112 142.321001 126.263784 143.279701 129.299245 143.154356 130.342909 143.100419 131.228868 143.923519 131.273223 144.9711 131.317199 146.019061 130.505544 146.904833 129.459604 146.948893 129.234798 146.958389 129.011128 146.963327 128.789733 146.963327M128.510222 164.123755C110.352429 164.123755 105.281955 157.291307 105.017722 156.915272 104.414951 156.057988 104.620045 154.873286 105.476054 154.269351 106.324482 153.670733 107.492871 153.867107 108.10057 154.70464 108.262067 154.91051 116.11135 164.464845 147.803802 158.207846 148.830407 158.004635 149.827442 158.674661 150.029882 159.703631 150.232322 160.7326 149.563588 161.731562 148.536604 161.934014 140.543262 163.512602 133.940842 164.123755 128.510222 164.123755"/>
      <path fill="#53CCCD" d="M186.355515,62.7504521 L186.36196,65.2949575 C186.362718,65.5665386 186.580701,91.7389745 199.485673,105.365506 C202.160988,102.18288 208.493488,95.5361713 213.926003,96.6152786 C214.434757,96.7166942 214.916973,96.8773638 215.372652,97.0972875 C222.689678,89.484662 225.95222,81.6680658 224.813022,74.4516067 C223.946018,68.958073 220.893877,65.7332855 220.86317,65.7013795 L219.493099,64.2777631 L221.097833,63.1253479 C228.793201,57.6018073 232.290786,51.7348971 231.735024,45.2496178 L217.546796,51.1100708 L218.068817,48.0622858 C219.376715,40.4219324 217.215082,35.4278799 208.431316,25.7990975 C205.12821,22.1777637 196.86002,17.978703 184.521804,13.6565762 C179.420244,11.8694589 174.585571,10.4040608 171.197926,9.42864807 C173.560861,13.9794347 173.191996,18.4891994 173.16925,18.7368509 L172.858766,22.1485165 L170.324856,19.8478642 C158.258455,8.89232299 135.054071,15.9013929 119.69935,20.5399211 C113.498397,22.4132606 109.017425,23.7624296 106.453566,23.594923 C100.105522,23.1695093 92.075408,16.7263915 87.9284238,13.0013631 C88.3477094,16.8308458 90.5696194,23.4285558 98.4446814,33.7182487 C99.1126571,34.5914862 99.0554129,35.8096127 98.3093424,36.61486 C97.5602391,37.4231459 96.3482537,37.5716609 95.4266595,36.9665859 C84.3288612,29.6874543 75.8169098,32.2406959 72.370504,33.886515 C74.4369827,36.393417 78.2329196,41.877075 81.7377069,51.6315824 C83.7116851,57.1251161 85.8903776,61.1805997 90.1082537,63.1162318 C96.4813181,66.0401911 107.554854,64.179766 126.014412,57.0844739 C142.619787,50.7017496 154.275243,56.0638609 163.64055,60.3711742 C170.8628,63.693579 177.100147,66.563222 184.007364,63.7178883 L186.355515,62.7504521 Z M206.716263,135.214351 C204.315039,135.214351 201.912677,134.446328 199.722611,132.910281 C198.950762,132.369018 198.763107,131.302825 199.303325,130.529863 C199.843923,129.756142 200.907301,129.568504 201.67915,130.109767 C204.866251,132.344329 208.517372,132.356483 211.69727,130.141673 C216.210844,126.99779 220.228555,118.507369 216.696472,104.925279 C215.918557,101.934469 214.763437,100.266999 213.262198,99.9684499 C209.772195,99.2760132 203.88438,105.10532 200.993357,108.942779 L199.856054,110.452238 L198.471957,109.166881 C192.018903,103.174246 187.44543,93.9534046 184.878538,81.7618847 C183.609687,75.7365839 183.175617,70.5302044 183.027009,67.6605613 C175.68648,69.6740594 169.12576,66.6559014 162.216647,63.4778335 C152.975685,59.2274952 142.501129,54.4089258 127.236633,60.275836 C107.589352,67.8284478 96.0605162,69.6075885 88.6877628,66.2244104 C83.0755538,63.6487586 80.4878114,58.2452454 78.5274809,52.7893152 C73.8179111,39.6823963 68.5840447,34.7798837 68.5317288,34.7320247 L67.0119135,33.3380353 L68.6568321,32.0974987 C69.0965891,31.7685627 78.618086,24.8548311 92.5993254,31.4578588 C88.0277482,24.7401213 83.1142221,15.5375123 84.7435976,8.80648059 L85.4650265,5.8255463 L87.6156656,8.00920981 C90.8126231,11.2545083 100.469459,19.7680992 106.681406,20.184017 C108.621644,20.3116411 113.301265,18.9024584 118.714446,17.2672746 C133.631685,12.7609285 155.619913,6.11877785 169.50107,14.9396541 C169.081406,12.759789 168.069965,9.9486403 165.677459,7.6996454 L160.827622,3.14088223 L167.268545,4.79771651 C168.689036,5.16311645 202.159471,13.855609 210.950062,23.4927477 C218.496822,31.7659039 222.269255,37.5367162 221.781731,45.6632566 L234.339068,40.4758688 L234.764798,42.4836693 C236.506387,50.6975715 233.06074,58.2099209 224.521114,64.8330798 C225.733099,66.549548 227.512978,69.6736796 228.182849,73.9171808 C229.099515,79.7240773 228.031967,88.7967833 217.948263,99.3455227 C218.808064,100.545797 219.49272,102.120207 219.998062,104.063436 C223.969143,119.331988 219.31985,128.995715 213.644711,132.948264 C211.475875,134.459242 209.096638,135.213972 206.716263,135.214351 L206.716263,135.214351 Z"/>
      <path fill="#53CCCD" d="M213.274064,219.459626 C212.843405,219.459626 212.410472,219.31339 212.054875,219.014082 C204.977442,213.050314 201.2342,193.427349 200.091211,177.051582 C199.006603,161.519045 199.830768,140.663141 205.721617,133.003796 C206.360401,132.17272 207.550778,132.018507 208.379872,132.658527 C209.208965,133.298547 209.363259,134.491224 208.724474,135.32192 C204.476649,140.844701 202.526934,157.508002 203.872742,176.786458 C205.220066,196.087324 209.489121,211.888783 214.495148,216.106835 C215.296188,216.781799 215.399303,217.979795 214.725641,218.782763 C214.35071,219.229827 213.814282,219.459626 213.274064,219.459626"/>
      <path fill="#1C1C1C" d="M111.726139 152.861156C111.399733 152.861156 111.072569 152.741128 110.816296 152.499174 110.282902 151.995515 110.25826 151.154183 110.760948 150.619758L114.015908 147.160233C114.518974 146.626567 115.359062 146.601877 115.891699 147.105157 116.425094 147.608816 116.449356 148.450148 115.947047 148.984574L112.691708 152.443719C112.430508 152.720997 112.078702 152.861156 111.726139 152.861156M117.83061 155.198006C117.637648 155.198006 117.441652 155.155845 117.256272 155.066204 116.595878 154.747524 116.317998 153.953671 116.636063 153.291621L118.268471 149.89211C118.586158 149.23006 119.379616 148.952402 120.039631 149.270702 120.699645 149.589003 120.977526 150.383235 120.65984 151.044905L119.027052 154.444796C118.798834 154.920728 118.324578 155.198006 117.83061 155.198006M124.82957 156.171824C124.102075 156.171824 123.509162 155.668544 123.502717 154.938124L123.476938 151.802218C123.470872 151.067619 124.059995 150.474319 124.792418 150.474319L124.803791 150.474319C125.531665 150.474319 126.124578 151.091929 126.130644 151.822349L126.156423 154.90128C126.162868 155.635499 125.573366 156.171824 124.840943 156.171824L124.82957 156.171824zM131.829023 156.028892C131.252789 156.028892 130.722806 155.650198 130.554865 155.067913L129.693548 152.079762C129.490349 151.374411 129.895987 150.637534 130.599978 150.433943 131.304347 150.229213 132.039803 150.636774 132.243001 151.342125L133.104318 154.330276C133.307516 155.035627 132.901878 155.772505 132.197888 155.976095 132.07468 156.0118 131.950714 156.028892 131.829023 156.028892M128.563903 172.894759C127.974401 172.894759 127.436078 172.498212 127.280646 171.899974L126.244185 167.910202C126.059563 167.199533 126.484914 166.473671 127.193832 166.288692 127.903509 166.102574 128.627592 166.529507 128.812214 167.240176L129.849055 171.229948C130.033298 171.940617 129.608326 172.666479 128.899028 172.851458 128.786814 172.880705 128.6746 172.894759 128.563903 172.894759M139.375518 155.468068C138.967605 155.468068 138.565758 155.28081 138.305695 154.926045L134.968091 150.379437C134.533642 149.788036 134.660261 148.95582 135.250522 148.520911 135.840782 148.085622 136.671391 148.212106 137.105462 148.804267L140.443066 153.351255C140.877515 153.942276 140.750896 154.774492 140.160636 155.209401 139.923698 155.383745 139.64847 155.468068 139.375518 155.468068M118.166228 172.478575C118.077897 172.478575 117.98843 172.469839 117.898583 172.451227 117.180566 172.303852 116.718063 171.601159 116.865154 170.882134L117.817455 166.224614C117.964546 165.505589 118.663987 165.041053 119.383521 165.189188 120.101538 165.336183 120.56442 166.038876 120.41695 166.757901L119.464648 171.415421C119.336133 172.044805 118.783404 172.478575 118.166228 172.478575M122.947372 174.488655C122.929933 174.488655 122.912495 174.488275 122.894677 174.487515 122.162633 174.459028 121.592087 173.841038 121.620519 173.1072L121.80552 168.35662C121.833953 167.623542 122.460607 167.046954 123.183173 167.08038 123.915217 167.108867 124.485763 167.726856 124.457331 168.460695L124.27233 173.211274C124.244276 173.926881 123.656291 174.488655 122.947372 174.488655M151.058231 200.93571C150.636292 200.93571 150.221555 200.734778 149.964525 200.360262L147.694848 197.058748C147.278974 196.454053 147.431373 195.626016 148.034902 195.209718 148.63843 194.793421 149.464491 194.945734 149.880365 195.550429L152.149662 198.852323C152.565536 199.456638 152.413137 200.284675 151.809609 200.701353 151.579874 200.859743 151.317915 200.93571 151.058231 200.93571M144.282903 206.106119C143.791209 206.106119 143.318849 205.83074 143.089114 205.358227L140.108623 199.225813C139.787904 198.565282 140.061994 197.769911 140.720871 197.448572 141.379369 197.127232 142.173965 197.401852 142.494684 198.061623L145.475175 204.194417C145.795894 204.854568 145.521804 205.650319 144.862927 205.971658 144.67603 206.062818 144.47776 206.106119 144.282903 206.106119M134.47109 209.769805C133.78833 209.769805 133.208305 209.245254 133.150303 208.551298L132.486497 200.599861C132.425462 199.868302 132.967576 199.225623 133.697724 199.16409 134.431664 199.111673 135.07007 199.646479 135.130726 200.378038L135.79491 208.329476C135.855946 209.061415 135.313452 209.703714 134.583304 209.765247 134.545394 209.768285 134.508242 209.769805 134.47109 209.769805M126.107178 207.106525C126.049554 207.106525 125.991552 207.102727 125.93317 207.09551 125.206434 206.999792 124.694648 206.332424 124.789802 205.604283L125.309929 201.628945C125.405083 200.901183 126.073817 200.393346 126.797899 200.483366 127.524636 200.579084 128.036422 201.246452 127.940888 201.974593L127.421141 205.949932C127.333569 206.619199 126.763022 207.106525 126.107178 207.106525M118.79709 208.395111C118.729231 208.395111 118.660992 208.389413 118.591617 208.379158 117.867534 208.266347 117.37167 207.586825 117.484263 206.861343L118.529444 200.121195C118.642037 199.395333 119.320628 198.903828 120.044331 199.011321 120.768414 199.124132 121.264278 199.803654 121.151685 200.529136L120.106504 207.269284C120.004905 207.926016 119.440045 208.395111 118.79709 208.395111M109.119631 206.847593C108.839854 206.847593 108.557803 206.759471 108.317453 206.576391 107.734396 206.131986 107.620666 205.298251 108.064214 204.713687L112.883723 198.36135C113.327271 197.776786 114.159397 197.663216 114.742834 198.107621 115.32627 198.552026 115.439621 199.385761 114.996073 199.970705L110.176943 206.322663C109.915742 206.666412 109.519961 206.847593 109.119631 206.847593M158.279268 204.127186C157.733742 204.127186 157.222335 203.787235 157.028993 203.242934L154.748323 196.816528C154.503044 196.124851 154.863569 195.364425 155.553912 195.118292 156.244255 194.87254 157.003215 195.233762 157.248872 195.925439L159.529543 202.351844C159.774821 203.043521 159.414296 203.803948 158.723953 204.05008 158.576862 204.102497 158.426738 204.127186 158.279268 204.127186M85.4430386 147.352087C84.9020617 147.352087 84.3940666 147.018213 84.1969341 146.479609 83.9448321 145.790591 84.2981541 145.026745 84.9862221 144.774156L91.6223825 142.337144C92.3104505 142.084934 93.0724433 142.438179 93.3249244 143.127957 93.5770265 143.816975 93.2237045 144.580821 92.5356365 144.83341L85.8994761 147.270423C85.748973 147.325878 85.594679 147.352087 85.4430386 147.352087M84.2840894 156.190625C83.8105925 156.190625 83.3522595 155.935757 83.1130469 155.487933 82.7673069 154.840697 83.0106897 154.03507 83.6570566 153.688661L87.18459 151.79709C87.8301988 151.450682 88.6350299 151.694155 88.9807699 152.341771 89.3265098 152.989008 89.0831271 153.794635 88.4367601 154.141043L84.9088476 156.032994C84.7098197 156.139728 84.4956277 156.190625 84.2840894 156.190625M85.9262027 162.4319C85.3340471 162.4319 84.7942075 162.031555 84.6414299 161.430278 84.4605988 160.71885 84.8893618 159.995267 85.5994177 159.813706L92.1965307 158.129904C92.9084821 157.946824 93.6291529 158.378695 93.809984 159.089744 93.9908151 159.801172 93.562052 160.524755 92.8519961 160.706315L86.2548831 162.390498C86.1449439 162.418605 86.0346255 162.4319 85.9262027 162.4319M90.120347 179.625714C89.7260821 179.625714 89.3363665 179.450611 89.0744078 179.115598 88.6228987 178.537491 88.7244977 177.701857 89.3014892 177.249475L92.5420433 174.708768C93.1190348 174.255627 93.9530566 174.358182 94.4049448 174.935909 94.8564539 175.514395 94.7548549 176.350029 94.1778634 176.802031L90.9373094 179.343118C90.6946848 179.533415 90.4061891 179.625714 90.120347 179.625714M86.1508957 172.888453C85.7365385 172.888453 85.3282469 172.694358 85.069321 172.330478 84.6439699 171.73262 84.7830999 170.902303 85.3798046 170.47613L91.8650829 165.845578C92.4617876 165.419785 93.2905021 165.559184 93.7158532 166.156662 94.1412044 166.7549 94.0020744 167.584837 93.4053696 168.01101L86.9197123 172.641941C86.6865652 172.808309 86.4174036 172.888453 86.1508957 172.888453M93.7040632 187.799164C93.4697789 187.799164 93.2320826 187.736872 93.0171324 187.605829 92.3908578 187.225236 92.1906926 186.407454 92.5709307 185.779969L96.2372151 179.725041C96.6170741 179.097936 97.4328991 178.897004 98.0595529 179.277977 98.6862066 179.65857 98.8859927 180.476732 98.5057546 181.104217L94.8398493 187.158765C94.5900219 187.570884 94.1525395 187.799164 93.7040632 187.799164M167.20353 199.573627C166.867267 199.573627 166.531005 199.446383 166.272458 199.191134L162.606553 195.573599C162.084531 195.058165 162.078086 194.216453 162.592147 193.693802 163.106966 193.170771 163.947053 193.164314 164.468696 193.679369L168.134601 197.297284C168.656623 197.812338 168.663068 198.65405 168.149007 199.177081 167.889323 199.441065 167.546237 199.573627 167.20353 199.573627M99.4675713 193.304169C99.203338 193.304169 98.9368301 193.225543 98.7044413 193.061455 98.105462 192.6387 97.9617827 191.809144 98.3841011 191.209007L100.688276 187.931802C101.110215 187.330905 101.938172 187.187708 102.537151 187.610843 103.136509 188.033598 103.279809 188.863154 102.85787 189.463291L100.553316 192.740496C100.295148 193.107795 99.8845823 193.304169 99.4675713 193.304169M103.478458 199.276521C103.199819 199.276521 102.918905 199.189159 102.679314 199.007599 102.09474 198.565093 101.978735 197.731358 102.420767 197.145654L106.525292 191.703778C106.967323 191.118075 107.799071 191.002225 108.383644 191.444731 108.968218 191.887238 109.084223 192.720972 108.64257 193.306676L104.538045 198.748552C104.277224 199.094581 103.880305 199.276521 103.478458 199.276521M83.0786625 140.213874C82.6013745 140.213874 82.1400087 139.954827 81.9026916 139.502065 81.5622591 138.85217 81.8120865 138.048442 82.4607281 137.706972L87.3746333 135.122204C88.0232748 134.780733 88.8254522 135.031044 89.1662639 135.680939 89.5070756 136.330834 89.256869 137.134942 88.6082275 137.476033L83.6943222 140.06118C83.4975689 140.164495 83.2864097 140.213874 83.0786625 140.213874"/>
      <path fill="#53CCCD" d="M99.4701492 21.1256625C98.8688953 21.1256625 98.2854591 20.8062225 97.9745964 20.24103 97.7820131 19.8912033 93.2900471 11.572467 95.7261492 2.66232985L96.3846474.253045161 98.3874372 1.74047364C98.5167106 1.83619171 111.688191 11.3772325 127.597158 7.02737787 145.046791 2.2528692 160.182392 11.2074469 160.818144 11.590699 161.62525 12.0780256 161.885692 13.1278857 161.399685 13.9369313 160.913678 14.7452173 159.865085 15.0069227 159.058358 14.5195961 158.916195 14.4345134 144.504297 5.94751087 128.495627 10.3247136 114.780895 14.07709 103.22666 8.66180196 98.5553789 5.91066701 97.7255271 12.6018162 100.926276 18.5249417 100.962669 18.5910328 101.41759 19.4175507 101.117342 20.4571554 100.29204 20.9129557 100.030839 21.0569127 99.7484092 21.1256625 99.4701492 21.1256625M76.0936156 32.5469938C75.5659072 32.5469938 75.0454017 32.3023809 74.711793 31.8420226 73.9384272 30.7743102 67.1813337 21.2587183 67.9914722 15.901165L68.3592 13.4717491 70.5045317 14.6617679C70.6239485 14.7278589 82.5102765 21.2807486 89.5168185 21.7927643 90.4562304 21.8611344 91.1624953 22.6800557 91.093878 23.6216632 91.0252608 24.562891 90.2086775 25.2678622 89.2681283 25.202151 83.7108889 24.7961088 75.8972413 21.2408661 71.7263738 19.1536803 72.7431222 22.5190062 75.4988063 27.1054973 77.4735426 29.8338422 78.0262717 30.5980674 77.8564345 31.6669193 77.0940627 32.2214764 76.7915402 32.4410202 76.4408719 32.5469938 76.0936156 32.5469938"/>
      <path fill="#1C1C1C" d="M204.679317 120.087667L204.679696 120.087667 204.679317 120.087667zM206.523642 122.877165C205.06145 122.877165 203.747487 122.578616 203.267166 122.197263 202.775093 121.806414 202.69207 121.089668 203.082544 120.596264 203.45103 120.130588 204.109907 120.030692 204.596673 120.350512 205.288532 120.636907 208.412323 120.892535 209.464707 119.797854 210.168318 119.065535 209.680415 117.645337 209.147399 116.582942 208.269023 114.832289 208.573441 113.613403 208.983628 112.898936 210.045868 111.049526 212.733314 110.83454 213.035837 110.816308 213.664765 110.777945 214.201951 111.256915 214.24024 111.88478 214.27815 112.513025 213.800862 113.053148 213.173829 113.091132 212.605936 113.129495 211.310549 113.411711 210.953815 114.038057 210.717635 114.452835 210.946233 115.093995 211.17938 115.559291 212.884196 118.956523 211.897018 120.76643 210.768435 121.686387 209.698233 122.559245 208.032085 122.877165 206.523642 122.877165L206.523642 122.877165zM139.972867 222.155192C137.970077 222.155192 136.427516 221.305124 135.360726 220.413654 133.66842 218.999154 132.851458 217.202921 132.817718 217.127334 132.560308 216.553026 132.81658 215.878821 133.389402 215.620914 133.962223 215.363387 134.633232 215.619015 134.891399 216.191044 134.90391 216.217632 135.56582 217.640489 136.870685 218.707062 138.501198 220.040278 140.420964 220.224118 142.576532 219.254782 143.149353 218.996875 143.822257 219.254022 144.079667 219.827951 144.337076 220.402259 144.080804 221.076464 143.507983 221.334371 142.204255 221.920454 141.024872 222.155192 139.972867 222.155192"/>
      <path fill="#53CCCD" d="M309.987543,330.455254 L309.987543,330.455254 C309.045098,330.455254 308.281589,329.68951 308.281589,328.745623 C308.283864,310.456634 303.282386,293.348927 293.416666,277.897675 C285.497249,265.494968 274.439635,254.112114 260.551276,244.065135 C241.566284,230.33149 222.408423,222.874976 215.398848,220.409476 C215.935655,225.061299 214.371106,229.743508 210.786707,234.111974 C198.602027,248.963849 165.914435,257.806376 145.925584,255.504964 C131.322999,253.823061 124.316457,245.101321 121.010697,238.081236 C117.471412,230.565848 117.353512,223.525252 117.350479,223.228981 C117.339864,222.285095 118.095033,221.503397 119.037478,221.503397 L119.056433,221.503397 C119.989779,221.503397 120.751013,222.253189 120.762007,223.190238 C120.763903,223.29963 120.900379,229.901519 124.146241,236.729028 C128.427047,245.733744 135.885857,250.908217 146.3153,252.109251 C155.86523,253.20887 168.653818,251.637878 180.526119,247.907532 C192.964418,243.999423 203.033337,238.179613 208.151198,231.941605 C211.810659,227.480839 212.930902,222.911061 211.479704,218.360274 L210.493283,215.265769 L213.597361,216.203579 C213.84226,216.277646 238.374255,223.805949 262.548379,241.293489 C276.786649,251.593057 288.139203,263.288894 296.290629,276.055102 C306.513463,292.065849 311.695772,309.793444 311.693497,328.746383 C311.693497,329.689889 310.929609,330.455254 309.987543,330.455254"/>
      <path fill="#1C1C1C" d="M115.087891,90.5138212 C105.102375,88.9830917 96.6029337,88.4931063 89.8663115,89.2337818 C88.6531888,89.3629253 87.4969312,89.5376487 86.4013298,89.7503556 C86.488523,88.591863 86.5832982,87.4599588 86.6742824,86.366038 C86.8600418,84.1781963 87.0495922,82.1232964 87.2315606,80.2241283 C87.2618887,79.9202614 87.2922168,79.6201928 87.3225448,79.3239226 C88.3954002,79.1340057 89.5630309,79.0048623 90.7913176,78.9288956 C100.314331,78.3363551 113.404683,80.8280637 113.404683,80.8280637 L115.087891,90.5138212 Z"/>
    </g>
  </g>
</svg>
