<svg xmlns="http://www.w3.org/2000/svg" width="147" height="156" viewBox="0 0 147 156">
  <g fill="none" fill-rule="evenodd">
    <polygon fill="#27292D" points="73.049 5.033 67.207 3.376 61.425 4.232 54.886 5.079 48.956 2.735 46.085 1.535 45.19 4.003 45.19 6.339 45.852 7.732 47.569 8.801 48.576 9.992 52.015 9.993 55.509 8.931 61.851 7.286 66.964 6.339 71.625 6.339 74.941 6.887"/>
    <g transform="translate(0 .06)">
      <path fill="#27292D" d="M35.8576761,14.543341 L32.7746056,7.95728895 L35.2130552,8.76991876 C35.2130552,8.76991876 37.1887137,9.55468697 37.462173,9.61076736 C37.7356323,9.66684774 40.426286,10.5916383 40.426286,10.5916383 L42.1175898,11.250315 L43.5243601,13.2822467 L44.2184574,15.3038196 L35.8576761,14.543341 Z"/>
      <path fill="#27292D" d="M44.7347792,30.6576651 C44.7347792,30.6576651 38.8185204,30.7389281 35.4198375,19.096354 L32.3412324,15.0808911 C32.3412324,15.0808911 35.9437148,14.1959284 38.5136249,14.4470399 C41.0837136,14.6981514 44.5858145,16.1237363 45.0116322,16.2910845 C45.4374499,16.4584326 39.8012592,6.28502182 40.5405459,5.02482052 C41.2796541,3.76444061 48.5755338,9.93274736 48.5755338,9.93274736 C48.5755338,9.93274736 48.8825727,10.60214 52.0149408,9.93310456 C55.147309,9.26389052 61.2570077,7.50664553 63.0983479,6.83725289 C64.9395095,6.16768165 71.2826577,5.20163448 72.4459761,5.68135396 C73.6091158,6.16107345 76.1215119,6.16786025 77.5189943,6.92101627 C78.9164767,7.67417229 80.5902762,8.5110917 80.5902762,8.5110917 L80.6606504,4.43347606 L79.4037379,2.9877094 L87.0012981,5.49828901 L91.721552,7.17212781 L98.254032,10.819139 L101.378362,14.5365185 L102.926239,17.8840175 L103.418144,19.6414411 L103.418144,21.817503 L104.77776,22.3193688 L107.940671,20.7292934 L109.848277,20.1434856 L109.848277,22.8891027 L109.209729,24.7463637 L108.2929,26.587372 L107.037595,28.0936841 L105.177678,30.4440595 L106.028421,32.5277852 L106.633211,34.9874639 L106.633211,36.9984994 L105.909821,40.5747849 L104.614149,43.1660917 L102.751553,45.465209 L101.378362,46.6428971 L98.9527731,46.6428971 L97.1637671,47.8627348 L95.5671292,49.1816955 L94.0817683,50.5347688 L91.6570721,48.2674423 L90.928145,45.8243735 L89.5513819,43.4898935 L88.5797173,41.2227456 L87.2840453,35.5988115 L86.7485581,33.2139663 L87.0012981,30.7039225 L84.8502397,31.0723742 L80.5181158,30.4395945 L78.7659044,29.2229716 L75.6455034,27.7050506 L73.8781097,26.9885075 L71.0947549,26.0742544 L68.3924913,25.6811559 L65.9468971,25.5968567 L61.1991365,26.2262429 L58.5233078,28.1265465 L54.7991887,29.3622796 L50.5783418,30.0763222 L47.4661571,31.2843723 L44.7347792,30.6576651 Z"/>
      <path fill="#1C1C1C" d="M47.4599413 49.1826421L48.7138174 51.4508616C48.3012171 52.3295734 47.6528453 52.8957352 46.9240968 52.8957352 45.6755792 52.8957352 44.6646193 51.2329696 44.6646193 49.1826421 44.6646193 47.1305286 45.6755792 45.467763 46.9240968 45.467763 47.8189571 45.467763 48.5923593 46.3214708 48.9585197 47.5591685L47.4599413 49.1826421zM75.8596983 49.0040421L77.1760896 51.3847796C76.7634893 52.3009974 76.1026145 52.8957352 75.3560045 52.8957352 74.1074869 52.8957352 73.0947408 51.2329696 73.0947408 49.1826421 73.0947408 47.1305286 74.1074869 45.467763 75.3560045 45.467763 76.2115695 45.467763 76.9563933 46.2500308 77.338629 47.4020005L75.8596983 49.0040421zM70.0283887 38.0654198L68.8673923 42.540599C77.8820825 41.9042473 84.2373765 42.8177861 87.0012623 45.8245164 87.0012623 45.8245164 86.414334 42.9272679 84.9346888 39.9383976 83.3050072 36.6464432 70.0283887 38.0654198 70.0283887 38.0654198"/>
      <path fill="#FDB412" d="M77.5547351,92.9681542 C77.1296318,93.1521122 69.0669587,96.5883754 60.3862783,96.5901614 C58.1250146,96.5901614 55.8226695,96.3561954 53.6007011,95.7721736 C48.863836,94.5255458 45.3201179,90.2587929 43.0642126,83.0915765 C41.3084289,77.5103279 40.3153305,70.1305776 40.1117096,61.1595017 C39.9563147,54.3209093 40.2903244,47.5716169 40.7082831,42.2011162 C40.7493645,41.6563863 40.7940182,41.1241584 40.8368858,40.6097905 C40.924407,39.5810548 41.0137145,38.614829 41.0994496,37.7218292 C41.1137388,37.5789493 41.1280279,37.4378553 41.1423171,37.2985473 C41.5209806,33.4782942 41.8585626,31.0850548 41.8657072,31.0261168 C41.9282224,30.5867609 42.5149721,30.7030295 42.9559721,30.7673255 C43.3955431,30.8298354 43.5520097,31.0654088 43.4894945,31.5047647 C43.4823499,31.5619167 43.1374447,33.5336602 42.7766428,37.1128034 C42.755209,37.3164073 42.7355614,37.5253693 42.7141276,37.7379032 C42.6301786,38.593397 42.5444435,39.5185448 42.4604945,40.5026306 C42.4194131,40.9741345 42.3801179,41.4599263 42.3408226,41.9582202 C41.912147,47.346581 41.5602758,54.1976753 41.719243,61.1398557 C42.0300328,74.8366865 44.4145407,91.6929505 54.009729,94.2165679 C64.2157801,96.9027113 76.7902637,91.5482845 76.915294,91.4929186 C77.3225358,91.3178906 77.7958651,91.5054206 77.9726938,91.9126285 C78.1477363,92.3198364 77.9619769,92.7913403 77.5547351,92.9681542"/>
      <path fill="#FEBB27" d="M56.0938068,104.866483 L56.095593,104.866483 L56.0938068,104.866483 Z M0.804838396,153.249033 C0.766436209,153.249033 0.727319563,153.246176 0.688202916,153.240461 C0.24881045,153.1767 -0.0553705954,152.768778 0.00857351154,152.329601 C4.09760267,124.226004 24.7404751,106.278495 55.2939696,104.199234 C55.1875152,100.147515 53.0925419,95.3708594 53.0700365,95.3199585 C52.8903499,94.914358 53.0734301,94.4396393 53.479243,94.2597891 C53.8854131,94.0801176 54.3598141,94.2630039 54.5395006,94.6686044 C54.6429186,94.9014988 57.0683293,100.425774 56.8970377,104.983824 L56.8697096,105.712869 L56.1413183,105.755911 C41.4936525,106.62355 28.7619878,111.296618 19.3225516,119.269677 C14.5776488,123.277639 10.667949,128.101981 7.70222843,133.608753 C4.6605966,139.256263 2.60724058,145.632817 1.59931713,152.560888 C1.5410887,152.960952 1.19761239,153.248855 0.804838396,153.249033 L0.804838396,153.249033 Z"/>
      <path fill="#1C1C1C" d="M60.6797781 69.1030027C58.8170041 69.1030027 57.2089349 68.3932465 56.2333407 67.1298304 54.8154962 65.2938228 55.109139 62.9850612 55.6047951 61.3717678 57.4904318 55.2361448 60.0562338 42.5119694 60.0819543 42.3840918 60.1792994 41.9004431 60.6501281 41.5878932 61.1336384 41.6845158 61.6171487 41.7818528 61.9302605 42.2526423 61.833094 42.7361123 61.8071949 42.8648829 59.2235315 55.6765723 57.3121742 61.8963158 56.779009 63.631593 56.8947514 65.0639647 57.647077 66.0384061 58.3279567 66.920154 59.4896676 67.3709403 60.9198365 67.3120024 61.4115631 67.2866412 61.8289859 67.6736673 61.8498838 68.166246 61.8706032 68.6590032 61.4881888 69.0754983 60.9953905 69.0962159 60.8894719 69.1006809 60.7840892 69.1030027 60.6797781 69.1030027M60.5480854 77.1719345C51.9929712 77.1719345 49.6039979 73.9592785 49.4795034 73.7824645 49.1955058 73.3793644 49.2921365 72.8223111 49.6954487 72.5383372 50.0951887 72.2568637 50.6456796 72.3491998 50.9319991 72.7430128 51.0080891 72.8398139 54.706309 77.3323173 69.6383296 74.3902402 70.1220186 74.2946892 70.5917756 74.6097395 70.6871559 75.0935668 70.7825362 75.5773941 70.4674597 76.047112 69.9835921 76.1423058 66.2174985 76.8845672 63.1067428 77.1719345 60.5480854 77.1719345"/>
      <path fill="#FDB412" d="M87.8021176,29.5056239 L87.8051541,30.702065 C87.8055113,30.829764 87.9082148,43.1361941 93.988442,49.5434676 C95.2489269,48.0469785 98.2325089,44.9216579 100.792059,45.4290604 C101.03176,45.4767466 101.258958,45.5522943 101.473653,45.6557037 C104.921098,42.0762034 106.458257,38.4007948 105.92152,35.0075742 C105.513028,32.424483 104.075,30.9081694 104.060532,30.893167 L103.415018,30.2237743 L104.171095,29.6819021 C107.796797,27.0847015 109.444697,24.3260465 109.182848,21.2766309 L102.498009,24.0322496 L102.743962,22.5991635 C103.360183,19.0066254 102.341722,16.6583931 98.203216,12.1308842 C96.6469451,10.4281122 92.7513558,8.45368967 86.9381577,6.42140075 C84.534538,5.58108795 82.2566632,4.89204931 80.6605611,4.43340462 C81.7738673,6.57321071 81.6000751,8.69372801 81.5893582,8.81017519 L81.4430727,10.41436 L80.2492112,9.33258006 C74.56408,4.18122148 63.6312452,7.4769265 56.396809,9.65798919 C53.4752063,10.5388442 51.3639791,11.1732312 50.156007,11.0944686 C47.1651018,10.8944367 43.3816826,7.86484561 41.4278151,6.11331582 C41.6253631,7.9139606 42.6722245,11.0162419 46.3825903,15.8545147 C46.6973096,16.265116 46.6703388,16.8378861 46.3188248,17.216518 C45.9658819,17.5965787 45.3948503,17.6664113 44.9606377,17.3819016 C39.7318673,13.959212 35.7214287,15.1597609 34.0976413,15.9336345 C35.0712707,17.1123942 36.8597409,19.6908418 38.511035,24.2774673 C39.4410824,26.8605585 40.4675818,28.7674703 42.4548503,29.6776157 C45.4575441,31.0524782 50.6748831,30.1776956 59.3721747,26.8414483 C67.1958612,23.8402546 72.687374,26.3615503 77.0998746,28.3868738 C80.5026656,29.9490876 83.4414153,31.2984103 86.6957774,29.960518 L87.8021176,29.5056239 Z M97.3951626,63.5785667 C96.2638163,63.5785667 95.1319341,63.2174376 94.1000763,62.4951793 C93.7364165,62.2406744 93.6480022,61.7393443 93.9025283,61.3758934 C94.157233,61.0120853 94.6582476,60.9238569 95.0219074,61.1783619 C96.5235222,62.2290654 98.2437616,62.2347806 99.7419827,61.1933643 C101.868571,59.7150924 103.761531,55.7228475 102.097376,49.3364702 C101.730859,47.9301742 101.186619,47.1461204 100.479305,47.0057408 C98.8349767,46.6801531 96.0609098,49.4211266 94.6987932,51.225522 L94.1629487,51.9352782 L93.510826,51.330896 C90.4704445,48.5131244 88.3156352,44.1774319 87.1062343,38.444909 C86.5084104,35.6117779 86.3038965,33.1637083 86.2338795,31.8143856 C82.7753606,32.7611439 79.6842525,31.3419887 76.4289973,29.8476428 C72.0750824,27.8491093 67.1399548,25.5833902 59.9480289,28.3420452 C50.6911371,31.8933268 45.2592817,32.729889 41.7855806,31.1390991 C39.1413667,29.9280128 37.9221419,27.3872498 36.9985247,24.82184 C34.7795927,18.6588913 32.3136365,16.3537016 32.2889876,16.331198 L31.5729208,15.6757362 L32.3479305,15.0924287 C32.5551237,14.9377611 37.0412136,11.6868847 43.6285283,14.7916664 C41.4746122,11.6329475 39.1595854,7.30582774 39.9272719,4.14085789 L40.2671759,2.73920542 L41.2804578,3.76597657 C42.7867166,5.29193461 47.3365721,9.29507407 50.2633546,9.49064103 C51.1775052,9.55065061 53.3823266,8.88804477 55.9327677,8.11917195 C62.9610824,6.00026205 73.3209208,2.87708458 79.8610812,7.02471141 C79.6633546,5.99972625 79.1868102,4.67790796 78.0595721,3.62041761 L75.7745526,1.47686091 L78.8092185,2.25591393 C79.4784882,2.42772709 95.2482124,6.51498713 99.3899329,11.0464253 C102.945618,14.9365109 104.723014,17.6499801 104.493316,21.4711262 L110.409753,19.0319866 L110.610338,19.976066 C111.430894,23.83829 109.807464,27.37064 105.783986,30.4848875 C106.355018,31.2919807 107.193615,32.7609653 107.509227,34.7562841 C107.941118,37.4867202 107.438138,41.7527588 102.687163,46.7128369 C103.092261,47.2772127 103.414839,48.0175096 103.652933,48.9312269 C105.523923,56.1105881 103.333391,60.6545282 100.659527,62.5130393 C99.6376717,63.22351 98.5166851,63.5783881 97.3951626,63.5785667 L97.3951626,63.5785667 Z"/>
      <path fill="#FDB412" d="M100.484895,103.19118 C100.281989,103.19118 100.078011,103.122419 99.9104701,102.981682 C96.57591,100.177484 94.8122672,90.9506534 94.2737435,83.2506734 C93.7627265,75.9471853 94.1510351,66.1406188 96.9265309,62.5391507 C97.2274968,62.1483739 97.7883474,62.0758624 98.178978,62.3768033 C98.5696086,62.6777442 98.6423049,63.2385481 98.3413389,63.6291462 C96.3399598,66.2259896 95.4213437,74.0611697 96.0554264,83.1260106 C96.6902235,92.2013889 98.701605,99.6313257 101.060214,101.614678 C101.437627,101.93205 101.48621,102.495355 101.168812,102.872915 C100.992161,103.083127 100.739422,103.19118 100.484895,103.19118"/>
      <path fill="#1C1C1C" d="M52.6401999 71.8761957C52.4864125 71.8761957 52.3322679 71.8197581 52.2115243 71.70599 51.9602132 71.4691664 51.9486033 71.0735675 52.1854465 70.8222774L53.7190334 69.195589C53.9560553 68.944656 54.3518657 68.933047 54.6028196 69.169692 54.8541306 69.4065155 54.865562 69.8021144 54.6288973 70.0534045L53.0951318 71.6799144C52.9720662 71.8102923 52.8063117 71.8761957 52.6401999 71.8761957M55.5163451 72.9749962C55.4254301 72.9749962 55.3330863 72.9551716 55.2457436 72.9130221 54.9345966 72.7631767 54.8036719 72.3899028 54.9535298 72.0786031L55.7226452 70.4801334C55.8723244 70.1688337 56.2461652 70.0382771 56.5571337 70.1879439 56.8681021 70.3376107 56.9990267 70.7110632 56.8493475 71.0221843L56.0800535 72.6208325C55.9725273 72.8446183 55.7490802 72.9749962 55.5163451 72.9749962M58.813932 73.4328908C58.4711701 73.4328908 58.1918165 73.1962459 58.1887801 72.8527982L58.1766343 71.3782769C58.1737764 71.0328646 58.4513439 70.7538914 58.7964277 70.7538914L58.8017861 70.7538914C59.1447266 70.7538914 59.4240802 71.044295 59.426938 71.3877427L59.4390838 72.835474C59.4421203 73.1807077 59.1643742 73.4328908 58.8192904 73.4328908L58.813932 73.4328908zM62.111751 73.3656836C61.8402565 73.3656836 61.590553 73.1876195 61.5114266 72.9138258L61.1056137 71.5087799C61.0098762 71.1771198 61.200994 70.8306358 61.5326818 70.7349063 61.8645481 70.6386409 62.2110609 70.8302786 62.3067984 71.1619388L62.7126113 72.5669846C62.8083488 72.8986448 62.617231 73.2451287 62.2855433 73.3408583 62.2274934 73.3576467 62.1690864 73.3656836 62.111751 73.3656836M60.5733773 81.2961112C60.2956312 81.2961112 60.0419982 81.1096528 59.9687661 80.8283579L59.4804332 78.9523439C59.3934478 78.6181834 59.5938536 78.2768789 59.9278633 78.1899007 60.2622303 78.1023867 60.6033846 78.3031331 60.69037 78.6372936L61.1788815 80.5133075C61.2656883 80.8474681 61.0654611 81.1887726 60.7312728 81.2757508 60.6784028 81.289503 60.6255328 81.2961112 60.5733773 81.2961112M65.6673113 73.1019808C65.4751217 73.1019808 65.28579 73.013931 65.1632603 72.8471187L63.5907354 70.7092772C63.3860428 70.431197 63.4457001 70.0398845 63.7238034 69.8353876 64.0019067 69.630712 64.3932518 69.6901858 64.5977657 69.9686231L66.1702906 72.1066432C66.3749832 72.3845448 66.3153259 72.7758573 66.0372226 72.9803542 65.9255883 73.0623316 65.795914 73.1019808 65.6673113 73.1019808M55.6744728 81.1004192C55.6328555 81.1004192 55.5907024 81.0963114 55.5483707 81.08756 55.2100742 81.0182632 54.9921642 80.6878533 55.0614667 80.3497636L55.5101471 78.1597709C55.5794497 77.8216812 55.908994 77.6032534 56.248005 77.6729074 56.5863015 77.7420256 56.8043902 78.0724355 56.734909 78.4105252L56.2862286 80.6005179C56.2256781 80.896458 55.9652577 81.1004192 55.6744728 81.1004192M57.9271272 82.0455702C57.9189109 82.0455702 57.9106947 82.0453916 57.9022998 82.0450344 57.5573945 82.0316394 57.2885792 81.7410572 57.3019753 81.3960021L57.3891394 79.1622524C57.4025355 78.8175545 57.6977858 78.5464398 58.0382256 78.5621566 58.3831309 78.5755516 58.6519462 78.8661337 58.6385501 79.2111888L58.551386 81.4449385C58.5381685 81.7814208 58.2611369 82.0455702 57.9271272 82.0455702M71.1716665 94.481128C70.9728682 94.481128 70.7774635 94.3866487 70.6563627 94.2105491L69.5869957 92.6581583C69.3910553 92.3738271 69.4628584 91.9844792 69.7472132 91.7887337 70.031568 91.5929881 70.4207697 91.6646067 70.6167102 91.9489378L71.6858985 93.5015073C71.881839 93.7856598 71.8100358 94.1750077 71.525681 94.3709319 71.4174405 94.445408 71.2940176 94.481128 71.1716665 94.481128M67.9794445 96.9122842C67.747781 96.9122842 67.525227 96.7827993 67.4169864 96.5606209L66.0127166 93.6771246C65.8616085 93.3665393 65.990747 92.992551 66.3011796 92.8414554 66.6114335 92.6903598 66.9858102 92.8194876 67.1369183 93.1297157L68.5411881 96.0133907C68.6922962 96.3237974 68.5631577 96.6979643 68.2527252 96.8490599 68.164668 96.8919239 68.0712525 96.9122842 67.9794445 96.9122842M63.3565713 98.6349701C63.034886 98.6349701 62.7616053 98.3883236 62.7342773 98.0620215L62.4215227 94.32321C62.3927657 93.9792264 62.6481849 93.6770353 62.9921971 93.6481021 63.3379954 93.6234553 63.6387827 93.8749241 63.6673611 94.2189076L63.9802943 97.9577191C64.0090513 98.3018812 63.7534535 98.6038937 63.4094413 98.6328269 63.3915798 98.6342557 63.3740756 98.6349701 63.3565713 98.6349701M59.4158818 97.3826808C59.3887323 97.3826808 59.3614043 97.3808948 59.3338976 97.3775014 58.991493 97.3324942 58.7503629 97.0186941 58.7951953 96.676318L59.0402548 94.8070908C59.0850871 94.4648933 59.4001637 94.2261052 59.741318 94.2684333 60.0837226 94.3134405 60.3248526 94.6272407 60.2798417 94.9696168L60.0349608 96.8388439C59.9937007 97.1535371 59.7248854 97.3826808 59.4158818 97.3826808M55.9717057 97.9885812C55.9397337 97.9885812 55.907583 97.9859022 55.8748965 97.98108 55.5337422 97.9280358 55.300114 97.6085205 55.3531626 97.2673945L55.8456036 94.0981383C55.8986522 93.7568338 56.2183728 93.5257254 56.5593485 93.5762692 56.9005028 93.6293134 57.134131 93.9488287 57.0810824 94.2899546L56.5886413 97.4592109C56.5407725 97.7680102 56.2746365 97.9885812 55.9717057 97.9885812M51.4121337 97.2609292C51.2803159 97.2609292 51.1474265 97.219494 51.0341847 97.1334089 50.7594751 96.9244469 50.7058906 96.53242 50.91487 96.2575547L53.1856002 93.270649C53.3945796 92.9957836 53.7866391 92.9423822 54.0615273 93.1513442 54.3364156 93.3603061 54.3898214 93.7523331 54.180842 94.027377L51.9102904 97.0141041C51.7872248 97.175737 51.6007509 97.2609292 51.4121337 97.2609292M74.5738859 95.9817785C74.3168592 95.9817785 74.0759078 95.8219315 73.9848142 95.5659978L72.9102674 92.5442651C72.7947036 92.2190346 72.9645663 91.8614774 73.2898239 91.7457447 73.6150815 91.6301905 73.9726684 91.800039 74.0884108 92.1252696L75.1629576 95.1470023C75.2785214 95.4722328 75.1086587 95.8297899 74.7834011 95.9455227 74.7140985 95.9701695 74.6433671 95.9817785 74.5738859 95.9817785M40.2568163 69.2857998C40.0019329 69.2857998 39.7625891 69.1288104 39.6697094 68.8755557 39.5509305 68.5515754 39.7173995 68.1924108 40.0415854 68.0736419L43.1682379 66.9277445C43.4924238 66.8091542 43.8514396 66.9752521 43.9703971 67.2995897 44.0891759 67.62357 43.9227069 67.9827345 43.598521 68.1015035L40.4718685 69.2474008C40.4009584 69.2734764 40.3282622 69.2857998 40.2568163 69.2857998M39.7107729 73.4417315C39.487683 73.4417315 39.2717377 73.3218909 39.1590317 73.1113216 38.996135 72.8069873 39.1108057 72.4281768 39.415344 72.2652936L41.0773549 71.3758658C41.381536 71.2129826 41.7607352 71.3274652 41.923632 71.6319781 42.0865287 71.9363125 41.971858 72.315123 41.6673197 72.4780061L40.0051301 73.3676125C39.9113574 73.4177991 39.81044 73.4417315 39.7107729 73.4417315M40.4844609 76.3764146C40.2054645 76.3764146 39.951117 76.1881702 39.8791352 75.9054465 39.793936 75.5709288 39.9959493 75.2306959 40.3304949 75.1453251L43.4387501 74.3535915C43.7741887 74.2675063 44.1137355 74.4705744 44.1989348 74.8049136 44.284134 75.1394313 44.0821207 75.4796642 43.7475751 75.565035L40.6393199 76.3569472C40.5875216 76.3701636 40.5355447 76.3764146 40.4844609 76.3764146M42.4605481 84.4610453C42.2747887 84.4610453 42.0911727 84.3787107 41.9677498 84.2211856 41.7550196 83.9493564 41.8028883 83.5564365 42.0747401 83.343724L43.6015396 82.1490688C43.8733914 81.9359991 44.266344 81.9842211 44.4792529 82.2558716 44.6919831 82.5278794 44.6441143 82.9207993 44.3722626 83.1333332L42.8454631 84.3281669C42.7311496 84.4176455 42.5952237 84.4610453 42.4605481 84.4610453M40.5903259 81.2931464C40.3950999 81.2931464 40.2027317 81.2018818 40.0807378 81.0307831 39.880332 80.7496667 39.9458836 80.3592472 40.2270233 80.1588581L43.2825871 77.981546C43.5637269 77.7813354 43.9541789 77.8468816 44.1545847 78.1278193 44.3549905 78.4091143 44.2894389 78.7993552 44.0082991 78.9997443L40.9525567 81.177235C40.8427086 81.2554618 40.7158921 81.2931464 40.5903259 81.2931464M44.1490298 88.3042485C44.0386458 88.3042485 43.9266543 88.2749581 43.8253797 88.2133411 43.530308 88.034384 43.4359994 87.6498582 43.6151501 87.3548111L45.342534 84.5077492C45.5215061 84.2128807 45.9058852 84.1184013 46.2011355 84.297537 46.4963858 84.4764942 46.5905158 84.8611985 46.4113651 85.1562456L44.6841598 88.003129C44.5664526 88.1969099 44.3603311 88.3042485 44.1490298 88.3042485M78.778586 93.8406686C78.6201547 93.8406686 78.4617233 93.7808376 78.339908 93.6608184L76.6127027 91.9598324C76.3667501 91.7174723 76.3637136 91.3216948 76.6059153 91.0759412 76.8484742 90.8300091 77.2442847 90.8269729 77.4900587 91.0691544L79.217264 92.770319C79.4632166 93.0125006 79.4662531 93.4082781 79.2240514 93.6542102 79.1017002 93.7783372 78.9400538 93.8406686 78.778586 93.8406686M46.8645288 90.8927334C46.7400343 90.8927334 46.614468 90.8557632 46.5049772 90.778608 46.2227657 90.5798263 46.1550707 90.189764 46.3540476 89.907576L47.4396685 88.3666156C47.6384668 88.0840705 48.0285616 88.0167383 48.310773 88.2156986 48.5931631 88.4144804 48.6606795 88.8045427 48.4618812 89.0867306L47.3760817 90.6276911C47.254445 90.8003972 47.0610051 90.8927334 46.8645288 90.8927334M48.7542736 93.7009677C48.6229917 93.7009677 48.4906382 93.6598897 48.3777536 93.5745189 48.1023295 93.36645 48.0476734 92.9744231 48.2559383 92.6990219L50.189801 90.1402203C50.3980659 89.8648192 50.7899468 89.8103462 51.0653708 90.0184152 51.3407949 90.2264841 51.395451 90.618511 51.1873648 90.8939122L49.2535021 93.4527138C49.1306151 93.6154183 48.9436053 93.7009677 48.7542736 93.7009677M39.1428313 65.9293708C38.9179553 65.9293708 38.700581 65.8075656 38.5887682 65.5946745 38.4283721 65.2890899 38.5460792 64.9111724 38.8516892 64.7506111L41.1668945 63.5352383C41.4725045 63.374677 41.8504535 63.4923744 42.0110282 63.7979589 42.1716029 64.1035434 42.0537171 64.4816395 41.7481072 64.6420223L39.4329018 65.8575736C39.3402007 65.9061528 39.2407123 65.9293708 39.1428313 65.9293708"/>
      <path fill="#FDB412" d="M46.8657434 9.93340818C46.5824603 9.93340818 46.3075721 9.78320562 46.1611079 9.51744888 46.0703716 9.35295832 43.9539645 5.44144064 45.1017434 1.25184283L45.4119973.118983292 46.3556194.818380727C46.4165271.863387917 52.6223205 5.34964026 60.1178916 3.30431354 68.3393533 1.05931207 75.4705502 5.26980608 75.7700872 5.45001344 76.1503582 5.67915718 76.2730666 6.17280747 76.0440824 6.55322538 75.8150982 6.93328609 75.3210496 7.05634146 74.9409572 6.82719771 74.8739767 6.78719132 68.0837555 2.79655386 60.5412087 4.85473978 54.0794603 6.61912876 48.6356377 4.07282916 46.4347458 2.77922967 46.043758 5.92544653 47.5518029 8.71053427 47.5689499 8.74161066 47.7832877 9.13024417 47.6418248 9.61907226 47.2529803 9.83339221 47.1299147 9.90108159 46.9968467 9.93340818 46.8657434 9.93340818M35.8517996 15.3037839C35.6031678 15.3037839 35.3579296 15.1887655 35.2007486 14.9723024 34.8363744 14.4702579 31.6527437 9.99597175 32.0344436 7.47681934L32.2077 6.33449401 33.2184813 6.89404768C33.274745 6.92512407 38.8750341 10.0063305 42.1761933 10.2470833 42.6188009 10.2792313 42.9515603 10.6642928 42.919231 11.1070421 42.8869017 11.5496128 42.5021654 11.8810943 42.059022 11.8501965 39.4407073 11.6592732 35.7592772 9.98757755 33.7941569 9.00617078 34.2732018 10.5885664 35.571553 12.7451609 36.5019576 14.0280444 36.762378 14.3873875 36.6823586 14.8899678 36.3231642 15.1507237 36.1806295 15.2539545 36.0154108 15.3037839 35.8517996 15.3037839"/>
      <path fill="#1C1C1C" d="M96.4354473 56.4659127L96.4356259 56.4659127 96.4354473 56.4659127zM97.3044084 57.7775508C96.615491 57.7775508 95.996412 57.6371712 95.770107 57.4578568 95.538265 57.2740775 95.4991484 56.9370594 95.6831216 56.705058 95.8567352 56.4860945 96.1671678 56.4391227 96.3965092 56.5895038 96.7224813 56.7241682 98.1942674 56.844366 98.6901022 56.3296409 99.0216113 55.9853002 98.791734 55.3175149 98.5406016 54.8179709 98.126751 53.9948036 98.2701787 53.4216764 98.46344 53.0857299 98.9639187 52.2161267 100.230119 52.1150391 100.372654 52.1064663 100.668976 52.0884277 100.922073 52.3136422 100.940113 52.608868 100.957975 52.9042723 100.733099 53.1582414 100.43767 53.1761014 100.170105 53.19414 99.5597778 53.3268398 99.3917012 53.6213511 99.2804242 53.8163823 99.3881289 54.117859 99.497977 54.336644 100.301208 55.934042 99.8360949 56.7850708 99.3043586 57.2176399 98.8001289 57.6280626 98.0151168 57.7775508 97.3044084 57.7775508L97.3044084 57.7775508zM65.9487547 104.45865C65.0051326 104.45865 64.2783488 104.058944 63.7757267 103.63977 62.9783902 102.974663 62.5934752 102.130064 62.5775785 102.094523 62.456299 101.82448 62.5770426 101.507465 62.8469296 101.386195 63.1168166 101.265105 63.4329649 101.385302 63.5546016 101.654274 63.5604959 101.666776 63.8723574 102.335811 64.4871496 102.83732 65.2553719 103.464206 66.1598774 103.550648 67.1754813 103.094861 67.4453683 102.973592 67.7624096 103.094504 67.8836891 103.364368 68.0049685 103.634412 67.8842249 103.951427 67.6143379 104.072696 67.0000815 104.348276 66.4444108 104.45865 65.9487547 104.45865"/>
      <path fill="#FEBB27" d="M146.051823,155.381963 L146.051823,155.381963 C145.607787,155.381963 145.248057,155.021906 145.248057,154.578085 C145.249128,145.978497 142.892663,137.934355 138.244391,130.669087 C134.513127,124.837263 129.30329,119.484979 122.759736,114.760832 C113.814884,108.303193 104.788584,104.797097 101.485996,103.637805 C101.738914,105.825119 101.001771,108.02672 99.3129678,110.080798 C93.5721087,117.064235 78.1712242,121.222042 68.7534004,120.139905 C61.873336,119.349065 58.5721768,115.248052 57.0146555,111.947168 C55.3471075,108.413389 55.2915583,105.10286 55.2901294,104.963552 C55.2851282,104.519732 55.6409289,104.152173 56.0849654,104.152173 L56.0938961,104.152173 C56.5336458,104.152173 56.8923044,104.504729 56.8974842,104.945335 C56.8983773,104.996772 56.9626786,108.101018 58.4919787,111.311352 C60.5088973,115.545421 64.023144,117.978489 68.9370164,118.543222 C73.4365024,119.060269 79.4618949,118.321579 85.0555753,116.567549 C90.9159277,114.729934 95.6599374,111.993425 98.0712375,109.060278 C99.7954064,106.9628 100.323213,104.814064 99.6394757,102.674258 L99.1747199,101.219204 L100.637218,101.660168 C100.752603,101.694995 112.310947,105.234846 123.700679,113.457588 C130.409094,118.300504 135.757894,123.799954 139.59847,129.802699 C144.414997,137.331044 146.856662,145.666662 146.85559,154.578442 C146.85559,155.022085 146.495681,155.381963 146.051823,155.381963"/>
      <path fill="#1C1C1C" d="M54.2241026,42.5601199 C49.5193881,41.8403621 45.5148437,41.6099682 42.3408583,41.9582381 C41.7692909,42.0189621 41.2245157,42.101118 40.7083188,42.201134 C40.7494002,41.6564042 40.7940539,41.1241763 40.8369215,40.6098084 C40.9244428,39.5810726 41.0137502,38.6148469 41.0994853,37.7218471 C41.1137745,37.5789671 41.1280637,37.4378731 41.1423529,37.2985652 C41.6478328,37.2092652 42.1979665,37.1485412 42.7766785,37.1128212 C47.2634829,36.8342053 53.4310527,38.005821 53.4310527,38.005821 L54.2241026,42.5601199 Z"/>
    </g>
  </g>
</svg>
