<?xml version="1.0" encoding="UTF-8" standalone="no"?>
<svg width="967px" height="941px" viewBox="0 0 967 941" version="1.1" xmlns="http://www.w3.org/2000/svg" xmlns:xlink="http://www.w3.org/1999/xlink">
    <!-- Generator: Sketch 39 (31667) - http://www.bohemiancoding.com/sketch -->
    <title>Group 246 Copy 2</title>
    <desc>Created with Sketch.</desc>
    <defs>
        <polygon id="path-1" points="0 7892 5267 7892 5267 0.403 0 0.403"></polygon>
    </defs>
    <g id="Welcome" stroke="none" stroke-width="1" fill="none" fill-rule="evenodd">
        <g id="Styleguide-Copy" transform="translate(-696.000000, -7941.000000)">
            <g id="Group-246-Copy-2" transform="translate(4.000000, 990.000000)">
                <path d="M824.5121,7181.045 C829.4771,7184.643 834.2921,7186.153 838.9551,7185.575 C843.6191,7184.998 847.3941,7182.716 850.2841,7178.728 C853.0651,7174.893 854.0171,7170.651 853.1421,7166 C852.2681,7161.352 849.3101,7157.199 844.2701,7153.547 C839.3061,7149.949 834.5351,7148.499 829.9561,7149.195 C825.3781,7149.895 821.6991,7152.16 818.9181,7155.996 C816.1381,7159.832 815.1341,7164.068 815.9071,7168.699 C816.6781,7173.333 819.5471,7177.447 824.5121,7181.045 L824.5121,7181.045 Z M872.7571,7151.993 C874.6391,7153.357 876.5281,7154.669 878.4241,7155.928 C880.3221,7157.191 881.8891,7158.153 883.1271,7158.82 L872.7421,7173.149 C872.0301,7172.864 871.0341,7172.341 869.7471,7171.581 C868.4631,7170.822 867.1821,7169.98 865.9021,7169.052 C867.1561,7171.914 867.5681,7175.224 867.1381,7178.982 C866.7051,7182.743 865.1281,7186.504 862.4031,7190.264 C859.5131,7194.252 856.1351,7197.368 852.2701,7199.614 C848.4041,7201.862 844.3161,7203.228 840.0051,7203.717 C835.6921,7204.206 831.2591,7203.832 826.7051,7202.596 C822.1511,7201.362 817.7681,7199.218 813.5551,7196.164 C809.4931,7193.22 806.1731,7189.81 803.5911,7185.931 C801.0091,7182.053 799.2661,7178.007 798.3611,7173.795 C797.4551,7169.583 797.4381,7165.295 798.3041,7160.932 C799.1711,7156.571 801.0221,7152.433 803.8561,7148.521 C805.6011,7146.115 807.3391,7144.192 809.0721,7142.75 C810.8031,7141.311 812.4711,7140.196 814.0761,7139.408 C815.6791,7138.62 817.1631,7138.117 818.5251,7137.899 C819.8871,7137.682 821.0801,7137.659 822.1051,7137.827 L790.4011,7114.849 L801.1121,7100.068 L872.7571,7151.993 L872.7571,7151.993 Z" id="Fill-137" fill="#FFFFFF"></path>
                <path d="M908.4461,7077.6891 C907.2811,7076.4861 905.9391,7075.4681 904.4191,7074.6331 C902.8981,7073.8011 901.2531,7073.3171 899.4851,7073.1901 C897.7151,7073.0621 895.8531,7073.3241 893.8961,7073.9721 C891.9401,7074.6231 889.9761,7075.7981 888.0111,7077.4991 C886.1841,7079.0801 884.8421,7080.7941 883.9841,7082.6411 C883.1261,7084.4901 882.6311,7086.3321 882.5001,7088.1651 C882.3661,7090.0021 882.5551,7091.7431 883.0601,7093.3931 C883.5681,7095.0431 884.3011,7096.4961 885.2651,7097.7491 L908.4461,7077.6891 Z M936.1921,7083.3461 C937.5061,7086.1431 938.3431,7089.1321 938.7061,7092.3201 C939.0691,7095.5071 938.9041,7098.6911 938.2141,7101.8671 C937.5231,7105.0451 936.2421,7108.2131 934.3671,7111.3691 C932.4921,7114.5261 929.9741,7117.4731 926.8151,7120.2091 C923.2321,7123.3091 919.2911,7125.6431 914.9981,7127.2101 C910.7031,7128.7781 906.2921,7129.4311 901.7671,7129.1701 C897.2421,7128.9101 892.7691,7127.6821 888.3501,7125.4841 C883.9331,7123.2901 879.8391,7120.0141 876.0691,7115.6571 C872.4841,7111.5141 869.9321,7107.1491 868.4211,7102.5601 C866.9071,7097.9731 866.3091,7093.4861 866.6261,7089.0941 C866.9431,7084.7061 868.0841,7080.5251 870.0511,7076.5491 C872.0171,7072.5751 874.6491,7069.1601 877.9531,7066.3021 C886.0291,7059.3121 894.3851,7056.2601 903.0141,7057.1441 C911.6421,7058.0331 919.5751,7062.6541 926.8081,7071.0121 C927.6611,7071.9971 928.4291,7072.9591 929.1191,7073.8961 C929.8081,7074.8371 930.2151,7075.3751 930.3361,7075.5151 L893.2471,7107.6121 C894.7751,7109.2381 896.5341,7110.4511 898.5161,7111.2521 C900.5011,7112.0551 902.5271,7112.4801 904.5981,7112.5301 C906.6691,7112.5811 908.7361,7112.2381 910.7981,7111.4961 C912.8591,7110.7571 914.7681,7109.6261 916.5251,7108.1051 C919.8261,7105.2501 921.7691,7102.2771 922.3541,7099.1911 C922.9381,7096.1061 922.6501,7093.0391 921.4871,7089.9911 L936.1921,7083.3461 Z" id="Fill-139" fill="#FFFFFF"></path>
                <path d="M967.8003,7060.2866 C969.2693,7062.5546 971.4153,7064.1246 974.2393,7065.0016 C977.0613,7065.8816 980.2603,7065.3276 983.8363,7063.3446 C986.5163,7061.8586 988.1803,7060.1666 988.8283,7058.2666 C989.4733,7056.3696 989.3473,7054.6076 988.4463,7052.9806 C987.6803,7051.6006 986.5293,7050.6736 984.9893,7050.1966 C983.4523,7049.7236 981.3693,7049.8946 978.7443,7050.7136 L969.8093,7053.2776 C963.2393,7055.2226 957.7243,7055.3326 953.2633,7053.6096 C948.8023,7051.8876 945.4013,7048.9146 943.0593,7044.6886 C941.5723,7042.0086 940.7323,7039.1556 940.5413,7036.1266 C940.3493,7033.1006 940.7653,7030.1626 941.7863,7027.3096 C942.8083,7024.4606 944.3873,7021.7536 946.5243,7019.1866 C948.6603,7016.6226 951.3523,7014.4376 954.6013,7012.6356 C958.8253,7010.2936 962.7283,7008.9016 966.3053,7008.4556 C969.8833,7008.0136 973.0833,7008.1786 975.9013,7008.9506 C978.7203,7009.7266 981.1273,7010.8606 983.1253,7012.3546 C985.1223,7013.8506 986.6533,7015.3656 987.7173,7016.8986 L975.8803,7027.4456 C975.2203,7026.6436 974.4513,7025.8756 973.5673,7025.1426 C972.6833,7024.4126 971.6093,7023.8656 970.3473,7023.5036 C969.0843,7023.1426 967.7273,7023.0436 966.2803,7023.2086 C964.8313,7023.3746 963.2553,7023.9296 961.5493,7024.8756 C959.4353,7026.0486 957.9443,7027.6196 957.0723,7029.5896 C956.1993,7031.5616 956.2363,7033.3986 957.1833,7035.1046 C957.9933,7036.5666 959.1543,7037.4646 960.6653,7037.7946 C962.1773,7038.1266 963.8343,7038.0046 965.6393,7037.4256 L975.1833,7034.5236 C981.7883,7032.4536 987.4993,7032.2626 992.3113,7033.9486 C997.1233,7035.6366 1000.7463,7038.6726 1003.1793,7043.0586 C1004.5303,7045.4956 1005.3913,7048.1536 1005.7643,7051.0266 C1006.1363,7053.9016 1005.8663,7056.8126 1004.9523,7059.7616 C1004.0393,7062.7126 1002.4353,7065.5666 1000.1403,7068.3256 C997.8463,7071.0836 994.7493,7073.5446 990.8513,7075.7076 C986.2993,7078.2306 982.1203,7079.6956 978.3143,7080.1086 C974.5053,7080.5236 971.1093,7080.3346 968.1233,7079.5456 C965.1373,7078.7596 962.5803,7077.5486 960.4523,7075.9126 C958.3243,7074.2796 956.7053,7072.6536 955.5973,7071.0366 L967.8003,7060.2866 Z" id="Fill-141" fill="#FFFFFF"></path>
                <path d="M1036.5432,7051.9069 L1013.2922,6987.4129 L1030.7262,6981.1279 L1053.9772,7045.6219 L1036.5432,7051.9069 Z M1003.5872,6967.0639 C1002.4852,6964.0059 1002.6042,6961.0499 1003.9462,6958.1959 C1005.2872,6955.3429 1007.4412,6953.3809 1010.4142,6952.3089 C1013.4722,6951.2069 1016.4062,6951.3349 1019.2172,6952.6909 C1022.0252,6954.0489 1023.9832,6956.2569 1025.0852,6959.3149 C1026.1252,6962.1979 1025.9952,6965.0599 1024.6992,6967.8969 C1023.4002,6970.7349 1021.2222,6972.7049 1018.1642,6973.8079 C1015.1912,6974.8789 1012.2802,6974.7439 1009.4272,6973.4029 C1006.5732,6972.0609 1004.6272,6969.9479 1003.5872,6967.0639 L1003.5872,6967.0639 Z" id="Fill-143" fill="#FFFFFF"></path>
                <path d="M1108.7086,7012.6132 C1113.3836,7011.8422 1116.9526,7009.6532 1119.4176,7006.0452 C1121.8816,7002.4392 1122.6836,6998.0212 1121.8226,6992.7972 C1120.9606,6987.5722 1118.7166,6983.6832 1115.0946,6981.1252 C1111.4716,6978.5702 1107.4606,6977.6542 1103.0616,6978.3792 C1100.7686,6978.7582 1098.7026,6979.5002 1096.8616,6980.6032 C1095.0176,6981.7082 1093.4876,6983.1362 1092.2726,6984.8902 C1091.0556,6986.6452 1090.2086,6988.6452 1089.7306,6990.8882 C1089.2546,6993.1342 1089.2276,6995.5392 1089.6506,6998.1042 C1090.5276,7003.4202 1092.7316,7007.3642 1096.2626,7009.9362 C1099.7946,7012.5082 1103.9416,7013.3992 1108.7086,7012.6132 L1108.7086,7012.6132 Z M1093.5316,7033.6182 C1094.7916,7037.2692 1096.9956,7040.0592 1100.1386,7041.9902 C1103.2806,7043.9182 1107.0526,7044.5212 1111.4516,7043.7952 C1117.2266,7042.8432 1121.4256,7040.6192 1124.0506,7037.1272 C1126.6746,7033.6342 1127.4436,7028.5882 1126.3546,7021.9892 L1125.5386,7017.0392 C1124.5266,7019.4662 1122.6086,7021.8302 1119.7876,7024.1312 C1116.9666,7026.4332 1113.0816,7027.9912 1108.1326,7028.8082 C1103.6406,7029.5502 1099.3336,7029.4122 1095.2126,7028.3972 C1091.0906,7027.3832 1087.3896,7025.6402 1084.1116,7023.1672 C1080.8296,7020.6962 1078.0606,7017.5982 1075.7996,7013.8752 C1073.5376,7010.1542 1072.0136,7005.9102 1071.2266,7001.1432 C1070.4866,6996.6532 1070.5646,6992.2852 1071.4676,6988.0402 C1072.3666,6983.7962 1073.9426,6979.9352 1076.1936,6976.4572 C1078.4446,6972.9782 1081.3506,6970.0522 1084.9136,6967.6742 C1088.4766,6965.2992 1092.5936,6963.7242 1097.2686,6962.9532 C1102.6756,6962.0612 1107.0956,6962.3212 1110.5296,6963.7312 C1113.9636,6965.1422 1116.4656,6966.8962 1118.0366,6968.9892 L1116.7196,6961.0152 L1134.3186,6958.1122 L1144.2746,7018.4682 C1145.0466,7023.1432 1145.1176,7027.7202 1144.4926,7032.2022 C1143.8656,7036.6832 1142.4006,7040.7842 1140.0966,7044.5072 C1137.7916,7048.2292 1134.5546,7051.4462 1130.3916,7054.1582 C1126.2236,7056.8692 1120.9806,7058.7482 1114.6546,7059.7902 C1109.9806,7060.5612 1105.6306,7060.5952 1101.6096,7059.8952 C1097.5856,7059.1932 1093.9666,7057.9542 1090.7566,7056.1772 C1087.5446,7054.3992 1084.8206,7052.1652 1082.5906,7049.4752 C1080.3566,7046.7822 1078.7456,7043.8712 1077.7596,7040.7382 L1093.5316,7033.6182 Z" id="Fill-145" fill="#FFFFFF"></path>
                <path d="M1191.3644,7026.0029 L1172.8764,7024.7009 L1177.6934,6956.3129 L1195.6234,6957.5759 L1195.0264,6966.0549 C1197.4044,6962.6849 1200.4824,6960.2929 1204.2614,6958.8829 C1208.0384,6957.4729 1211.7804,6956.8979 1215.4884,6957.1589 C1219.7494,6957.4589 1223.3834,6958.4379 1226.3874,6960.0919 C1229.3894,6961.7479 1231.8254,6963.8509 1233.6954,6966.4029 C1235.5624,6968.9569 1236.8684,6971.9349 1237.6054,6975.3389 C1238.3444,6978.7439 1238.5824,6982.3009 1238.3224,6986.0059 L1235.2874,7029.0959 L1216.8004,7027.7939 L1219.6094,6987.9009 C1219.8844,6984.0089 1219.1144,6980.6969 1217.3064,6977.9609 C1215.4954,6975.2279 1212.3684,6973.7019 1207.9194,6973.3879 C1203.8414,6973.1009 1200.5954,6974.2479 1198.1784,6976.8239 C1195.7624,6979.4009 1194.4144,6982.6829 1194.1334,6986.6659 L1191.3644,7026.0029 Z" id="Fill-147" fill="#FFFFFF"></path>
                <path d="M1316.8649,7007.1707 C1317.2659,7005.5447 1317.4149,7003.8667 1317.3149,7002.1357 C1317.2129,7000.4047 1316.7479,6998.7547 1315.9169,6997.1887 C1315.0849,6995.6227 1313.8739,6994.1827 1312.2839,6992.8687 C1310.6949,6991.5577 1308.6559,6990.5187 1306.1709,6989.7567 C1303.8589,6989.0487 1301.6949,6988.8227 1299.6749,6989.0787 C1297.6519,6989.3327 1295.8289,6989.8927 1294.2059,6990.7547 C1292.5799,6991.6177 1291.2049,6992.7017 1290.0759,6994.0077 C1288.9459,6995.3137 1288.1049,6996.7077 1287.5549,6998.1897 L1316.8649,7007.1707 Z M1326.8129,7033.6827 C1325.1429,7036.2817 1323.0539,7038.5787 1320.5469,7040.5797 C1318.0379,7042.5797 1315.2539,7044.1317 1312.1969,7045.2357 C1309.1389,7046.3387 1305.7739,7046.9357 1302.1029,7047.0247 C1298.4329,7047.1137 1294.5979,7046.5467 1290.6019,7045.3227 C1286.0719,7043.9337 1282.0009,7041.8357 1278.3919,7039.0307 C1274.7809,7036.2257 1271.8869,7032.8357 1269.7039,7028.8627 C1267.5179,7024.8917 1266.1829,7020.4497 1265.6979,7015.5387 C1265.2099,7010.6297 1265.8099,7005.4217 1267.4979,6999.9137 C1269.1039,6994.6737 1271.4459,6990.1937 1274.5319,6986.4757 C1277.6119,6982.7557 1281.0959,6979.8657 1284.9849,6977.8007 C1288.8719,6975.7377 1293.0199,6974.4837 1297.4339,6974.0367 C1301.8449,6973.5907 1306.1369,6974.0067 1310.3119,6975.2867 C1320.5259,6978.4157 1327.5509,6983.8727 1331.3849,6991.6537 C1335.2169,6999.4357 1335.5159,7008.6117 1332.2779,7019.1807 C1331.8959,7020.4247 1331.4889,7021.5877 1331.0619,7022.6697 C1330.6319,7023.7547 1330.3909,7024.3837 1330.3369,7024.5617 L1283.4409,7010.1917 C1282.8749,7012.3497 1282.7809,7014.4837 1283.1559,7016.5887 C1283.5299,7018.6967 1284.2469,7020.6397 1285.3029,7022.4207 C1286.3609,7024.2017 1287.7499,7025.7717 1289.4739,7027.1237 C1291.1939,7028.4777 1293.1679,7029.4947 1295.3879,7030.1757 C1299.5629,7031.4537 1303.1119,7031.5217 1306.0379,7030.3777 C1308.9619,7029.2327 1311.4079,7027.3597 1313.3719,7024.7547 L1326.8129,7033.6827 Z" id="Fill-149" fill="#FFFFFF"></path>
                <path d="M1372.337,7039.3879 C1369.231,7044.6739 1368.189,7049.6119 1369.211,7054.1979 C1370.233,7058.7859 1372.866,7062.3239 1377.112,7064.8189 C1381.197,7067.2189 1385.51,7067.7599 1390.056,7066.4439 C1394.599,7065.1289 1398.45,7061.7869 1401.602,7056.4199 C1404.708,7051.1339 1405.693,7046.2449 1404.561,7041.7539 C1403.427,7037.2649 1400.82,7033.8189 1396.735,7031.4199 C1392.651,7029.0199 1388.337,7028.4249 1383.802,7029.6389 C1379.263,7030.8519 1375.443,7034.1019 1372.337,7039.3879 L1372.337,7039.3879 Z M1405.878,7084.6279 C1404.701,7086.6309 1403.576,7088.6369 1402.504,7090.6459 C1401.429,7092.6549 1400.62,7094.3069 1400.075,7095.6029 L1384.818,7086.6389 C1385.033,7085.9039 1385.458,7084.8609 1386.092,7083.5079 C1386.723,7082.1579 1387.44,7080.8009 1388.241,7079.4379 C1385.512,7080.9609 1382.257,7081.6879 1378.474,7081.6199 C1374.69,7081.5489 1370.795,7080.3389 1366.79,7077.9869 C1362.544,7075.4919 1359.119,7072.4289 1356.513,7068.7979 C1353.905,7065.1639 1352.153,7061.2259 1351.254,7056.9799 C1350.354,7052.7349 1350.301,7048.2869 1351.095,7043.6349 C1351.888,7038.9839 1353.602,7034.4159 1356.238,7029.9299 C1358.779,7025.6039 1361.855,7021.9719 1365.47,7019.0299 C1369.081,7016.0889 1372.941,7013.9659 1377.05,7012.6619 C1381.154,7011.3559 1385.42,7010.9289 1389.847,7011.3729 C1394.271,7011.8189 1398.566,7013.2629 1402.732,7015.7109 C1405.295,7017.2159 1407.375,7018.7619 1408.976,7020.3489 C1410.574,7021.9339 1411.844,7023.4879 1412.783,7025.0099 C1413.721,7026.5299 1414.364,7027.9589 1414.71,7029.2939 C1415.057,7030.6289 1415.194,7031.8149 1415.126,7032.8509 L1434.961,6999.0909 L1450.698,7008.3369 L1405.878,7084.6279 Z" id="Fill-151" fill="#FFFFFF"></path>
                <path d="M1515.2965,7162.5474 C1520.2035,7158.5714 1522.9005,7154.2624 1523.3885,7149.6254 C1523.8725,7144.9874 1522.6275,7140.8274 1519.6435,7137.1454 C1518.1815,7135.3404 1516.4685,7133.8904 1514.5035,7132.7924 C1512.5385,7131.6944 1510.4405,7131.0634 1508.2135,7130.8944 C1505.9855,7130.7274 1503.6395,7131.0414 1501.1795,7131.8404 C1498.7165,7132.6394 1496.2585,7134.0334 1493.8055,7136.0204 C1491.4235,7137.9504 1489.5855,7140.0354 1488.2945,7142.2784 C1487.0005,7144.5204 1486.1905,7146.7634 1485.8555,7149.0074 C1485.5215,7151.2514 1485.6685,7153.4624 1486.2985,7155.6414 C1486.9275,7157.8224 1487.9735,7159.8134 1489.4365,7161.6184 C1492.4195,7165.2994 1496.2465,7167.3674 1500.9215,7167.8264 C1505.5955,7168.2824 1510.3855,7166.5244 1515.2965,7162.5474 L1515.2965,7162.5474 Z M1455.7475,7143.7194 L1534.1365,7080.2144 L1545.6265,7094.3974 L1514.6615,7119.4844 C1517.5305,7119.1904 1520.8325,7119.8344 1524.5635,7121.4144 C1528.2925,7122.9944 1531.7685,7125.7694 1534.9845,7129.7404 C1538.1425,7133.6374 1540.2455,7137.6724 1541.2935,7141.8444 C1542.3425,7146.0164 1542.4835,7150.1754 1541.7185,7154.3224 C1540.9535,7158.4674 1539.3135,7162.4584 1536.7975,7166.2884 C1534.2815,7170.1214 1531.0395,7173.6454 1527.0695,7176.8594 C1523.0275,7180.1354 1518.8085,7182.5664 1514.4165,7184.1514 C1510.0235,7185.7384 1505.6715,7186.4544 1501.3615,7186.2994 C1497.0495,7186.1444 1492.9355,7185.0844 1489.0145,7183.1224 C1485.0915,7181.1584 1481.6095,7178.2984 1478.5695,7174.5464 C1475.5885,7170.8654 1473.7235,7167.0864 1472.9725,7163.2104 C1472.2235,7159.3344 1472.4165,7155.7384 1473.5595,7152.4234 L1467.0625,7157.6864 L1455.7475,7143.7194 Z" id="Fill-153" fill="#FFFFFF"></path>
                <polygon id="Fill-155" fill="#FFFFFF" points="1487.7384 7231.6643 1526.8864 7230.5353 1567.9474 7178.0753 1577.0574 7196.7313 1549.0074 7230.7433 1592.4664 7228.2843 1601.1484 7246.0643 1496.3604 7249.3193"></polygon>
                <path d="M1645.2952,7324.3149 C1648.5052,7323.7999 1651.3892,7324.4649 1653.9432,7326.3129 C1656.4982,7328.1599 1658.0262,7330.6429 1658.5272,7333.7619 C1659.0432,7336.9709 1658.3732,7339.8309 1656.5172,7342.3409 C1654.6632,7344.8479 1652.1292,7346.3619 1648.9202,7346.8779 C1645.8002,7347.3789 1642.9892,7346.7229 1640.4912,7344.9159 C1637.9872,7343.1049 1636.4802,7340.5959 1635.9642,7337.3859 C1635.4632,7334.2669 1636.1132,7331.4349 1637.9152,7328.8869 C1639.7152,7326.3399 1642.1762,7324.8159 1645.2952,7324.3149 L1645.2952,7324.3149 Z M1623.3612,7330.0969 L1626.3012,7348.3949 L1552.6962,7360.2189 C1549.3932,7360.7489 1546.3122,7360.7489 1543.4522,7360.2209 C1540.5942,7359.6929 1538.0292,7358.6689 1535.7612,7357.1519 C1533.4952,7355.6329 1531.6012,7353.6569 1530.0812,7351.2199 C1528.5602,7348.7819 1527.5352,7345.9129 1527.0042,7342.6109 C1526.5772,7339.9499 1526.4182,7337.6469 1526.5292,7335.7009 C1526.6412,7333.7569 1526.7502,7332.5389 1526.8602,7332.0499 L1542.1312,7329.5969 C1542.0512,7330.2689 1542.0162,7331.0749 1542.0252,7332.0119 C1542.0362,7332.9529 1542.1432,7334.0619 1542.3502,7335.3479 C1542.7922,7338.0989 1543.8162,7339.9329 1545.4222,7340.8519 C1547.0292,7341.7689 1549.0682,7342.0299 1551.5452,7341.6329 L1623.3612,7330.0969 Z" id="Fill-157" fill="#FFFFFF"></path>
                <path d="M1561.684,7433.4438 C1562.43,7433.2718 1563.502,7433.1538 1564.897,7433.0908 C1566.292,7433.0258 1567.686,7433.0088 1569.079,7433.0368 C1565.865,7431.1118 1563.576,7428.3478 1562.21,7424.7438 C1560.843,7421.1378 1560.196,7417.5248 1560.27,7413.9028 C1560.355,7409.7238 1561.15,7406.0468 1562.655,7402.8708 C1564.158,7399.6958 1566.14,7397.0188 1568.602,7394.8388 C1571.061,7392.6588 1573.952,7391.0218 1577.273,7389.9278 C1580.592,7388.8328 1584.111,7388.3258 1587.827,7388.4008 L1631.154,7389.2828 L1630.777,7407.8118 L1591.211,7407.0068 C1587.31,7406.9268 1584.016,7407.8568 1581.329,7409.8018 C1578.641,7411.7438 1577.253,7414.8968 1577.164,7419.2638 C1577.079,7423.4428 1578.268,7426.6738 1580.73,7428.9528 C1583.192,7431.2328 1586.419,7432.4138 1590.414,7432.4958 L1630.257,7433.3068 L1629.88,7451.8358 L1573.736,7450.6928 C1571.042,7450.6378 1568.602,7450.6568 1566.419,7450.7528 C1564.232,7450.8478 1562.533,7450.9738 1561.324,7451.1368 L1561.684,7433.4438 Z" id="Fill-159" fill="#FFFFFF"></path>
                <path d="M1576.4769,7493.8789 C1573.8109,7493.4399 1571.2049,7493.9699 1568.6559,7495.4699 C1566.1069,7496.9659 1564.3639,7499.7049 1563.4249,7503.6849 C1562.7209,7506.6679 1562.8539,7509.0369 1563.8239,7510.7939 C1564.7919,7512.5479 1566.1809,7513.6409 1567.9909,7514.0679 C1569.5269,7514.4309 1570.9879,7514.2019 1572.3759,7513.3849 C1573.7609,7512.5659 1575.0349,7510.9089 1576.1969,7508.4159 L1580.3109,7500.0809 C1583.2909,7493.9119 1586.9209,7489.7569 1591.1979,7487.6169 C1595.4719,7485.4759 1599.9599,7484.9599 1604.6629,7486.0689 C1607.6459,7486.7739 1610.3219,7488.0719 1612.6909,7489.9679 C1615.0579,7491.8619 1616.9539,7494.1459 1618.3759,7496.8209 C1619.7959,7499.4949 1620.7369,7502.4839 1621.1989,7505.7909 C1621.6579,7509.0969 1621.4619,7512.5579 1620.6089,7516.1759 C1619.4999,7520.8749 1617.9039,7524.6999 1615.8259,7527.6459 C1613.7469,7530.5909 1611.4719,7532.8459 1609.0049,7534.4109 C1606.5349,7535.9759 1604.0749,7536.9939 1601.6259,7537.4669 C1599.1749,7537.9369 1597.0249,7538.0499 1595.1749,7537.8059 L1595.3369,7521.9519 C1596.3739,7522.0039 1597.4599,7521.9519 1598.5969,7521.7909 C1599.7299,7521.6289 1600.8579,7521.2009 1601.9759,7520.5119 C1603.0919,7519.8199 1604.0789,7518.8829 1604.9309,7517.7009 C1605.7819,7516.5179 1606.4309,7514.9769 1606.8789,7513.0789 C1607.4349,7510.7269 1607.2749,7508.5659 1606.4039,7506.5959 C1605.5329,7504.6229 1604.1489,7503.4149 1602.2499,7502.9669 C1600.6229,7502.5829 1599.1779,7502.8369 1597.9179,7503.7339 C1596.6549,7504.6279 1595.6299,7505.9369 1594.8429,7507.6619 L1590.5689,7516.6749 C1587.6549,7522.9529 1583.9559,7527.3069 1579.4709,7529.7339 C1574.9829,7532.1579 1570.2999,7532.7949 1565.4179,7531.6439 C1562.7059,7531.0029 1560.1609,7529.8529 1557.7859,7528.1959 C1555.4069,7526.5359 1553.4359,7524.3779 1551.8689,7521.7179 C1550.2999,7519.0559 1549.2679,7515.9489 1548.7699,7512.3959 C1548.2729,7508.8429 1548.5359,7504.8959 1549.5599,7500.5559 C1550.7559,7495.4909 1552.4829,7491.4139 1554.7379,7488.3199 C1556.9939,7485.2239 1559.4189,7482.8389 1562.0119,7481.1599 C1564.6019,7479.4799 1567.2189,7478.4019 1569.8599,7477.9289 C1572.5009,7477.4539 1574.7929,7477.3499 1576.7339,7477.6179 L1576.4769,7493.8789 Z" id="Fill-161" fill="#FFFFFF"></path>
                <path d="M1590.6371,7598.3081 L1585.1601,7610.9701 L1570.0691,7604.4411 L1575.5461,7591.7801 L1549.2001,7580.3841 C1546.4701,7579.2031 1544.3071,7579.0001 1542.7071,7579.7771 C1541.1051,7580.5501 1539.7711,7582.1741 1538.7021,7584.6481 C1538.2591,7585.6721 1537.8581,7586.7131 1537.5021,7587.7741 C1537.1431,7588.8331 1536.9581,7589.6111 1536.9451,7590.1131 L1522.8771,7584.0281 C1522.8671,7583.1131 1523.0351,7581.7931 1523.3751,7580.0681 C1523.7181,7578.3431 1524.4221,7576.2451 1525.4911,7573.7721 C1528.1471,7567.6341 1531.9541,7563.5111 1536.9131,7561.4061 C1541.8721,7559.2991 1547.4221,7559.5751 1553.5621,7562.2311 L1582.8481,7574.8991 L1587.7721,7563.5171 L1602.8631,7570.0441 L1601.4801,7573.2421 C1600.0411,7576.5671 1599.9411,7579.4321 1601.1771,7581.8401 C1602.4131,7584.2471 1604.4371,7586.0591 1607.2501,7587.2761 L1616.0761,7591.0941 L1609.4371,7606.4411 L1590.6371,7598.3081 Z" id="Fill-163" fill="#FFFFFF"></path>
                <path d="M1587.8932,7652.6281 C1590.6562,7654.3401 1592.3992,7656.7311 1593.1222,7659.8011 C1593.8432,7662.8701 1593.3712,7665.7461 1591.7082,7668.4321 C1589.9962,7671.1951 1587.6182,7672.9181 1584.5732,7673.6001 C1581.5292,7674.2811 1578.6232,7673.7671 1575.8592,7672.0551 C1573.2532,7670.4401 1571.5782,7668.1171 1570.8312,7665.0891 C1570.0852,7662.0581 1570.5692,7659.1611 1572.2812,7656.3981 C1573.9452,7653.7121 1576.3112,7652.0101 1579.3802,7651.2881 C1582.4492,7650.5671 1585.2872,7651.0141 1587.8932,7652.6281 L1587.8932,7652.6281 Z M1509.3662,7606.6091 L1567.6462,7642.7101 L1557.8882,7658.4651 L1499.6072,7622.3641 L1509.3662,7606.6091 Z" id="Fill-165" fill="#FFFFFF"></path>
                <path d="M1470.9768,7660.8616 L1483.4018,7647.1106 L1534.2708,7693.0716 L1522.2198,7706.4086 L1515.9128,7700.7106 C1517.0988,7704.6616 1517.0848,7708.5586 1515.8648,7712.4036 C1514.6458,7716.2476 1512.7908,7719.5476 1510.2988,7722.3046 C1507.4348,7725.4746 1504.4248,7727.7316 1501.2698,7729.0766 C1498.1148,7730.4186 1494.9568,7731.0396 1491.7938,7730.9376 C1488.6318,7730.8336 1485.4838,7730.0246 1482.3468,7728.5056 C1479.2118,7726.9886 1476.2658,7724.9826 1473.5098,7722.4926 L1441.4568,7693.5336 L1453.8818,7679.7826 L1483.5558,7706.5926 C1486.4508,7709.2086 1489.5328,7710.6466 1492.8008,7710.9086 C1496.0708,7711.1686 1499.1998,7709.6476 1502.1888,7706.3386 C1504.9298,7703.3056 1506.0278,7700.0426 1505.4908,7696.5526 C1504.9508,7693.0596 1503.2008,7689.9756 1500.2378,7687.2986 L1470.9768,7660.8616 Z" id="Fill-167" fill="#FFFFFF"></path>
                <path d="M1385.834,7739.7201 L1414.7,7801.9041 L1398.648,7809.3541 L1395.127,7801.7721 C1394.991,7803.6791 1394.519,7805.5341 1393.719,7807.3411 C1392.919,7809.1461 1391.872,7810.8101 1390.582,7812.3311 C1389.291,7813.8521 1387.838,7815.2421 1386.222,7816.5061 C1384.605,7817.7671 1382.956,7818.7901 1381.269,7819.5721 C1376.972,7821.5671 1372.813,7822.4221 1368.788,7822.1401 C1364.766,7821.8571 1361.171,7820.4011 1358.005,7817.7741 C1357.323,7822.7001 1355.698,7826.7041 1353.137,7829.7901 C1350.573,7832.8741 1347.229,7835.3741 1343.1,7837.2911 C1340.236,7838.6211 1337.251,7839.4691 1334.141,7839.8371 C1331.036,7840.2031 1327.978,7839.9051 1324.973,7838.9471 C1321.966,7837.9841 1319.136,7836.3031 1316.484,7833.9001 C1313.831,7831.4941 1311.547,7828.2271 1309.631,7824.1001 L1290.915,7783.7811 L1307.219,7776.2131 L1324.351,7813.1181 C1325.915,7816.4881 1328.081,7818.8881 1330.844,7820.3201 C1333.608,7821.7511 1336.929,7821.5671 1340.803,7819.7681 C1344.427,7818.0871 1346.692,7815.5761 1347.599,7812.2361 C1348.506,7808.8961 1348.178,7805.5391 1346.613,7802.1701 L1329.716,7765.7701 L1346.4,7758.0261 L1363.532,7794.9311 C1365.096,7798.3001 1367.282,7800.6911 1370.088,7802.1041 C1372.893,7803.5141 1376.192,7803.3411 1379.983,7801.5811 C1383.693,7799.8591 1386.008,7797.3491 1386.936,7794.0521 C1387.863,7790.7531 1387.525,7787.3771 1385.921,7783.9231 L1369.023,7747.5231 L1385.834,7739.7201 Z" id="Fill-169" fill="#FFFFFF"></path>
                <path d="M1243.3292,7803.5377 C1241.4022,7803.8437 1239.5842,7804.3897 1237.8752,7805.1787 C1236.1662,7805.9667 1234.7212,7807.0907 1233.5422,7808.5477 C1232.3632,7810.0047 1231.5172,7811.7837 1231.0042,7813.8887 C1230.4922,7815.9917 1230.4752,7818.5577 1230.9562,7821.5857 L1231.4372,7824.6127 L1246.3422,7819.8497 C1248.6702,7819.1017 1250.5312,7817.9357 1251.9242,7816.3527 C1253.3192,7814.7657 1253.8042,7812.6427 1253.3812,7809.9837 C1253.0612,7807.9637 1252.0402,7806.2677 1250.3172,7804.8977 C1248.5952,7803.5237 1246.2662,7803.0707 1243.3292,7803.5377 M1271.5102,7805.9767 C1271.9912,7809.0047 1271.8902,7811.7717 1271.2052,7814.2787 C1270.5232,7816.7857 1269.4032,7819.0547 1267.8432,7821.0907 C1266.2852,7823.1237 1264.3712,7824.8387 1262.0992,7826.2357 C1259.8292,7827.6297 1257.3082,7828.7817 1254.5362,7829.6937 L1238.2772,7834.8147 C1236.3942,7835.3957 1235.1562,7836.1787 1234.5592,7837.1687 C1233.9642,7838.1557 1233.7602,7839.2467 1233.9502,7840.4397 C1234.3292,7842.8247 1235.5982,7844.7387 1237.7542,7846.1847 C1239.9122,7847.6277 1242.9172,7848.0457 1246.7702,7847.4337 C1250.8092,7846.7927 1253.7312,7845.1997 1255.5362,7842.6557 C1257.3432,7840.1127 1258.1502,7837.3497 1257.9582,7834.3697 L1274.7442,7835.2327 C1274.8912,7837.9367 1274.4882,7840.7277 1273.5342,7843.6077 C1272.5802,7846.4867 1271.0792,7849.1697 1269.0282,7851.6607 C1266.9782,7854.1487 1264.3172,7856.3347 1261.0392,7858.2197 C1257.7652,7860.1017 1253.8352,7861.4087 1249.2462,7862.1377 C1243.9262,7862.9817 1239.2712,7862.9917 1235.2832,7862.1677 C1231.2952,7861.3407 1227.9462,7859.9457 1225.2362,7857.9777 C1222.5242,7856.0097 1220.3942,7853.5477 1218.8432,7850.5977 C1217.2942,7847.6457 1216.2482,7844.4717 1215.7092,7841.0787 L1210.4222,7807.7747 C1210.1312,7805.9377 1209.7322,7804.0047 1209.2182,7801.9697 C1208.7082,7799.9337 1208.2662,7798.3327 1207.8912,7797.1707 L1224.6812,7794.5057 C1225.0122,7795.3917 1225.3722,7796.6287 1225.7642,7798.2137 C1226.1562,7799.7957 1226.4542,7801.2297 1226.6592,7802.5157 C1227.9802,7799.5767 1230.1092,7796.8397 1233.0452,7794.3067 C1235.9822,7791.7717 1239.9742,7790.1017 1245.0182,7789.3007 C1248.5962,7788.7327 1251.9222,7788.7947 1254.9942,7789.4807 C1258.0672,7790.1687 1260.7622,7791.2927 1263.0782,7792.8547 C1265.3962,7794.4127 1267.2752,7796.3247 1268.7152,7798.5897 C1270.1572,7800.8527 1271.0872,7803.3147 1271.5102,7805.9767" id="Fill-171" fill="#FFFFFF"></path>
                <path d="M1137.0822,7846.4078 C1138.9282,7846.8408 1140.7782,7847.0908 1142.6352,7847.1528 C1145.0502,7847.2348 1147.3342,7846.9858 1149.4902,7846.4088 C1151.6502,7845.8308 1153.5422,7844.8248 1155.1702,7843.3948 C1156.8002,7841.9618 1158.1412,7840.0308 1159.1992,7837.6048 C1160.2572,7835.1768 1160.8502,7832.1058 1160.9752,7828.3938 L1162.0352,7797.0598 L1180.5572,7797.6858 L1178.2402,7866.2038 L1160.2752,7865.5958 L1160.6182,7855.4298 C1159.5222,7857.6228 1158.1382,7859.4108 1156.4642,7860.7968 C1154.7912,7862.1788 1153.0352,7863.2108 1151.2002,7863.8948 C1149.3642,7864.5758 1147.5372,7865.0258 1145.7172,7865.2428 C1143.8982,7865.4608 1142.2452,7865.5438 1140.7592,7865.4938 C1140.0172,7865.4688 1139.2972,7865.4198 1138.6032,7865.3508 C1137.9082,7865.2798 1137.1932,7865.1858 1136.4512,7865.0688 L1137.0822,7846.4078 Z" id="Fill-173" fill="#FFFFFF"></path>
                <polygon id="Fill-175" fill="#FFFFFF" points="1069.3701 7823.5499 1051.1431 7778.5019 1073.2591 7783.6749 1084.9311 7813.3089 1094.2341 7807.1849 1098.3611 7789.5469 1116.4051 7793.7679 1093.4271 7891.9999 1075.3811 7887.7789 1088.5541 7831.4719 1059.6801 7850.9059 1036.0711 7845.3839"></polygon>
                <path d="M920.1299,7807.6035 C921.0089,7808.1285 922.0159,7808.5695 923.1549,7808.9255 C924.2959,7809.2835 925.4429,7809.4015 926.5969,7809.2795 C927.7529,7809.1595 928.8999,7808.7345 930.0359,7808.0085 C931.1759,7807.2825 932.2439,7806.0815 933.2459,7804.4085 L937.1079,7797.9505 L923.8349,7790.0105 L931.9919,7776.3785 L945.2639,7784.3185 L972.3039,7739.1185 L988.3289,7748.7045 L961.2879,7793.9045 L971.0929,7799.7715 L962.9379,7813.4025 L953.1319,7807.5365 L949.1269,7814.2325 C947.1229,7817.5815 944.8259,7820.2925 942.2309,7822.3665 C939.6379,7824.4415 936.8309,7825.8755 933.8119,7826.6675 C930.7959,7827.4605 927.6609,7827.5865 924.4089,7827.0505 C921.1599,7826.5115 917.9009,7825.2665 914.6299,7823.3105 C912.9559,7822.3095 911.4549,7821.2485 910.1219,7820.1265 C908.7899,7819.0055 907.9029,7818.0935 907.4539,7817.3935 L915.4659,7804.0005 C915.7709,7804.3985 916.2839,7804.8965 917.0089,7805.4925 C917.7349,7806.0895 918.7749,7806.7925 920.1299,7807.6035" id="Fill-177" fill="#FFFFFF"></path>
                <path d="M916.6873,7712.7127 C915.2253,7711.4217 913.6463,7710.3667 911.9503,7709.5507 C910.2553,7708.7327 908.4693,7708.3347 906.5943,7708.3517 C904.7193,7708.3697 902.8083,7708.8487 900.8593,7709.7927 C898.9103,7710.7357 896.9213,7712.3567 894.8913,7714.6547 L892.8613,7716.9517 L906.0213,7725.4157 C908.0793,7726.7377 910.1623,7727.4307 912.2713,7727.4977 C914.3813,7727.5647 916.3293,7726.5877 918.1113,7724.5697 C919.4653,7723.0377 920.1243,7721.1697 920.0853,7718.9687 C920.0483,7716.7667 918.9163,7714.6817 916.6873,7712.7127 M932.7383,7736.0037 C930.7093,7738.3017 928.5113,7739.9847 926.1403,7741.0517 C923.7743,7742.1207 921.3093,7742.7017 918.7453,7742.7937 C916.1863,7742.8857 913.6453,7742.4997 911.1233,7741.6367 C908.6023,7740.7727 906.1093,7739.5607 903.6413,7738.0027 L889.3463,7728.7187 C887.6993,7727.6367 886.3073,7727.1797 885.1633,7727.3497 C884.0233,7727.5187 883.0523,7728.0547 882.2523,7728.9607 C880.6533,7730.7707 879.9843,7732.9677 880.2413,7735.5517 C880.5013,7738.1347 882.0923,7740.7177 885.0163,7743.3017 C888.0803,7746.0087 891.1673,7747.2487 894.2783,7747.0227 C897.3913,7746.7977 900.0363,7745.6617 902.2123,7743.6187 L912.2293,7757.1157 C910.2373,7758.9507 907.8273,7760.4147 904.9993,7761.5127 C902.1713,7762.6077 899.1453,7763.1577 895.9203,7763.1597 C892.6953,7763.1627 889.3153,7762.5007 885.7763,7761.1717 C882.2403,7759.8437 878.7303,7757.6437 875.2493,7754.5677 C871.2113,7751.0017 868.2423,7747.4167 866.3403,7743.8157 C864.4413,7740.2147 863.3853,7736.7427 863.1783,7733.3997 C862.9713,7730.0557 863.5153,7726.8457 864.8033,7723.7717 C866.0963,7720.6987 867.8773,7717.8717 870.1523,7715.2967 L892.4783,7690.0247 C893.7093,7688.6317 894.9473,7687.0927 896.1913,7685.4017 C897.4363,7683.7127 898.3893,7682.3537 899.0483,7681.3257 L911.7883,7692.5817 C911.3153,7693.3997 910.5893,7694.4647 909.6173,7695.7757 C908.6453,7697.0847 907.7293,7698.2277 906.8673,7699.2037 C909.9753,7698.3517 913.4413,7698.2537 917.2633,7698.9057 C921.0873,7699.5587 924.9163,7701.5757 928.7443,7704.9577 C931.4593,7707.3557 933.5293,7709.9597 934.9533,7712.7667 C936.3773,7715.5737 937.2263,7718.3687 937.4963,7721.1487 C937.7683,7723.9277 937.4883,7726.5947 936.6583,7729.1467 C935.8313,7731.6997 934.5233,7733.9847 932.7383,7736.0037" id="Fill-179" fill="#FFFFFF"></path>
                <path d="M815.9481,7658.1112 C816.7901,7659.8092 817.7771,7661.3942 818.9111,7662.8642 C820.3871,7664.7782 822.0361,7666.3802 823.8531,7667.6752 C825.6751,7668.9702 827.6561,7669.7882 829.7961,7670.1312 C831.9381,7670.4742 834.2811,7670.2782 836.8251,7669.5472 C839.3711,7668.8162 842.1151,7667.3152 845.0551,7665.0472 L869.8801,7645.8972 L881.2001,7660.5722 L826.9171,7702.4442 L815.9371,7688.2122 L823.9911,7681.9992 C821.6031,7682.5522 819.3431,7682.6242 817.2071,7682.2162 C815.0761,7681.8092 813.1631,7681.1132 811.4661,7680.1342 C809.7721,7679.1532 808.2611,7678.0312 806.9331,7676.7672 C805.6071,7675.5032 804.4901,7674.2832 803.5811,7673.1052 C803.1281,7672.5172 802.7061,7671.9332 802.3171,7671.3532 C801.9301,7670.7722 801.5461,7670.1612 801.1641,7669.5152 L815.9481,7658.1112 Z" id="Fill-181" fill="#FFFFFF"></path>
                <path d="M779.749,7594.3519 C780.294,7596.1679 781,7597.8959 781.871,7599.5359 C783.004,7601.6709 784.36,7603.5269 785.934,7605.1099 C787.512,7606.6929 789.327,7607.8309 791.379,7608.5299 C793.433,7609.2289 795.775,7609.4289 798.406,7609.1369 C801.039,7608.8429 803.996,7607.8249 807.277,7606.0829 L834.967,7591.3809 L843.658,7607.7489 L783.108,7639.8989 L774.678,7624.0229 L783.662,7619.2529 C781.214,7619.3969 778.974,7619.0869 776.939,7618.3259 C774.906,7617.5659 773.135,7616.5589 771.629,7615.3079 C770.123,7614.0569 768.822,7612.6969 767.727,7611.2279 C766.63,7609.7579 765.735,7608.3679 765.037,7607.0549 C764.689,7606.3989 764.372,7605.7509 764.086,7605.1139 C763.801,7604.4759 763.526,7603.8089 763.258,7603.1089 L779.749,7594.3519 Z" id="Fill-183" fill="#FFFFFF"></path>
                <path d="M802.4008,7507.4324 C801.7418,7507.8214 800.7548,7508.2574 799.4438,7508.7374 C798.1338,7509.2204 796.8098,7509.6584 795.4728,7510.0504 C799.1188,7510.9164 802.1348,7512.8624 804.5248,7515.8854 C806.9138,7518.9114 808.6208,7522.1604 809.6438,7525.6364 C810.8228,7529.6474 811.1728,7533.3934 810.6968,7536.8734 C810.2208,7540.3544 809.1398,7543.5054 807.4498,7546.3254 C805.7618,7549.1464 803.5008,7551.5794 800.6638,7553.6234 C797.8298,7555.6684 794.6278,7557.2144 791.0618,7558.2624 L749.4878,7570.4914 L744.2578,7552.7114 L782.2228,7541.5444 C785.9658,7540.4444 788.8268,7538.5634 790.8028,7535.8994 C792.7788,7533.2364 793.1508,7529.8104 791.9188,7525.6204 C790.7398,7521.6104 788.6318,7518.8904 785.5968,7517.4584 C782.5608,7516.0274 779.1278,7515.8754 775.2948,7517.0024 L737.0618,7528.2484 L731.8328,7510.4684 L785.7068,7494.6224 C788.2928,7493.8624 790.6118,7493.1074 792.6658,7492.3584 C794.7218,7491.6084 796.3028,7490.9744 797.4068,7490.4554 L802.4008,7507.4324 Z" id="Fill-185" fill="#FFFFFF"></path>
                <path d="M772.3072,7434.2219 C772.0612,7429.4909 770.2832,7425.6999 766.9712,7422.8489 C763.6622,7419.9989 759.3602,7418.7099 754.0732,7418.9849 C748.7852,7419.2599 744.6702,7421.0569 741.7262,7424.3709 C738.7832,7427.6879 737.4262,7431.5719 737.6582,7436.0249 C737.7782,7438.3439 738.2862,7440.4819 739.1772,7442.4339 C740.0702,7444.3889 741.3192,7446.0679 742.9272,7447.4719 C744.5352,7448.8759 746.4292,7449.9399 748.6052,7450.6639 C750.7832,7451.3879 753.1712,7451.6819 755.7672,7451.5469 C761.1482,7451.2679 765.3132,7449.5159 768.2612,7446.2929 C771.2112,7443.0699 772.5582,7439.0469 772.3072,7434.2219 L772.3072,7434.2219 Z M791.4922,7451.6419 C795.2612,7450.7959 798.2782,7448.9169 800.5472,7446.0079 C802.8142,7443.0999 803.8332,7439.4189 803.6012,7434.9669 C803.2972,7429.1219 801.5542,7424.7009 798.3762,7421.7039 C795.1962,7418.7069 790.2682,7417.3809 783.5882,7417.7289 L778.5792,7417.9889 C780.8772,7419.2649 783.0132,7421.4339 784.9862,7424.4929 C786.9602,7427.5539 788.0772,7431.5879 788.3382,7436.5969 C788.5742,7441.1439 787.9592,7445.4069 786.4912,7449.3909 C785.0242,7453.3739 782.8812,7456.8579 780.0592,7459.8419 C777.2382,7462.8259 773.8502,7465.2359 769.8992,7467.0669 C765.9492,7468.9019 761.5622,7469.9439 756.7372,7470.1949 C752.1932,7470.4309 747.8602,7469.8669 743.7422,7468.4979 C739.6242,7467.1309 735.9632,7465.1359 732.7562,7462.5119 C729.5512,7459.8879 726.9652,7456.6729 724.9992,7452.8689 C723.0352,7449.0639 721.9282,7444.7969 721.6822,7440.0649 C721.3972,7434.5919 722.1472,7430.2279 723.9312,7426.9719 C725.7152,7423.7179 727.7372,7421.4259 729.9922,7420.0979 L721.9212,7420.5179 L720.9942,7402.7059 L782.0832,7399.5279 C786.8142,7399.2819 791.3722,7399.7209 795.7562,7400.8399 C800.1402,7401.9619 804.0522,7403.8749 807.4962,7406.5779 C810.9372,7409.2829 813.7742,7412.8569 816.0072,7417.2979 C818.2372,7421.7409 819.5202,7427.1609 819.8542,7433.5619 C820.1002,7438.2939 819.6482,7442.6209 818.5062,7446.5399 C817.3592,7450.4599 815.7252,7453.9169 813.6022,7456.9099 C811.4782,7459.9049 808.9542,7462.3629 806.0332,7464.2809 C803.1092,7466.2009 800.0352,7467.4769 796.8142,7468.1089 L791.4922,7451.6419 Z" id="Fill-187" fill="#FFFFFF"></path>
                <path d="M792.6799,7370.7407 L724.6959,7361.8927 L727.0879,7343.5147 L795.0719,7352.3637 L792.6799,7370.7407 Z M702.1609,7361.2067 C698.9379,7360.7877 696.3639,7359.3287 694.4409,7356.8307 C692.5169,7354.3317 691.7599,7351.5167 692.1679,7348.3837 C692.5879,7345.1607 694.0429,7342.6097 696.5359,7340.7327 C699.0289,7338.8577 701.8879,7338.1267 705.1109,7338.5467 C708.1509,7338.9417 710.6349,7340.3677 712.5639,7342.8187 C714.4939,7345.2727 715.2479,7348.1107 714.8289,7351.3337 C714.4209,7354.4667 712.9679,7356.9937 710.4699,7358.9167 C707.9709,7360.8397 705.2009,7361.6027 702.1609,7361.2067 L702.1609,7361.2067 Z" id="Fill-189" fill="#FFFFFF"></path>
                <path d="M795.478,7297.2852 C796.058,7295.4232 796.374,7293.5512 796.424,7291.6692 C796.476,7289.7882 796.108,7287.9952 795.325,7286.2922 C794.543,7284.5892 793.323,7283.0422 791.663,7281.6492 C790.005,7280.2572 787.712,7279.1062 784.785,7278.1952 L781.858,7277.2832 L779.522,7292.7552 C779.159,7295.1732 779.379,7297.3582 780.181,7299.3092 C780.984,7301.2622 782.672,7302.6392 785.244,7303.4392 C787.196,7304.0462 789.169,7303.8842 791.161,7302.9462 C793.156,7302.0122 794.594,7300.1262 795.478,7297.2852 M780.799,7321.4652 C777.872,7320.5542 775.436,7319.2372 773.492,7317.5122 C771.547,7315.7892 770.01,7313.7782 768.876,7311.4782 C767.744,7309.1802 767.056,7306.7042 766.811,7304.0492 C766.568,7301.3962 766.653,7298.6252 767.064,7295.7362 L769.682,7278.8922 C769.996,7276.9462 769.843,7275.4902 769.22,7274.5152 C768.599,7273.5452 767.712,7272.8782 766.558,7272.5202 C764.253,7271.8012 761.973,7272.0912 759.722,7273.3832 C757.471,7274.6772 755.765,7277.1862 754.605,7280.9112 C753.39,7284.8152 753.522,7288.1402 755.002,7290.8852 C756.482,7293.6332 758.6,7295.5812 761.355,7296.7312 L753.14,7311.3952 C750.652,7310.3282 748.329,7308.7292 746.17,7306.5972 C744.013,7304.4662 742.273,7301.9322 740.949,7298.9892 C739.628,7296.0482 738.849,7292.6932 738.612,7288.9202 C738.376,7285.1502 738.947,7281.0482 740.327,7276.6122 C741.929,7271.4692 743.984,7267.2932 746.491,7264.0822 C748.999,7260.8752 751.734,7258.4912 754.7,7256.9332 C757.666,7255.3762 760.817,7254.5582 764.149,7254.4762 C767.483,7254.3962 770.792,7254.8662 774.072,7255.8862 L806.269,7265.9112 C808.044,7266.4632 809.955,7266.9632 812.005,7267.4052 C814.056,7267.8502 815.687,7268.1642 816.894,7268.3442 L811.84,7284.5752 C810.9,7284.4782 809.631,7284.2522 808.037,7283.9012 C806.445,7283.5522 805.027,7283.1842 803.784,7282.7962 C805.833,7285.2842 807.342,7288.4052 808.311,7292.1592 C809.281,7295.9162 809.008,7300.2342 807.49,7305.1112 C806.413,7308.5712 804.884,7311.5242 802.906,7313.9732 C800.929,7316.4222 798.726,7318.3402 796.3,7319.7242 C793.875,7321.1112 791.327,7321.9472 788.659,7322.2342 C785.993,7322.5232 783.372,7322.2672 780.799,7321.4652" id="Fill-191" fill="#FFFFFF"></path>
                <path d="M1023.2601,7411.1959 L1023.2601,7341.7339 C1023.2601,7271.4609 1071.7091,7214.4939 1131.4731,7214.4939 L1223.6751,7214.4939 C1283.4401,7214.4939 1331.8881,7271.4609 1331.8881,7341.7339 L1331.8881,7411.1959 L1023.2601,7411.1959 Z" id="Fill-193" fill="#2A2A34"></path>
                <path d="M1309,7356.05 L1309,7518.001 C1309,7554.484 1266.76,7586.731 1236.123,7605.298 C1218.111,7616.211 1197.485,7621.947 1176.421,7621.947 C1155.363,7621.947 1134.837,7616.211 1116.819,7605.298 C1086.188,7586.731 1044,7554.484 1044,7518.001 L1044,7356.05 C1044,7335.45 1060.608,7318.644 1081.214,7318.644 L1271.728,7318.644 C1292.327,7318.644 1309,7335.45 1309,7356.05" id="Fill-195" fill="#FFFFFF"></path>
                <path d="M1342.37,7434.848 C1340.983,7450.423 1328.873,7462.596 1314.245,7462.596 C1312.484,7462.596 1311,7462.421 1309,7462.077 L1309,7464.731 C1296,7462.089 1286.087,7452.932 1286.087,7437.864 C1286.087,7436.845 1286.176,7435.843 1286.266,7434.848 C1287.485,7421.149 1296.955,7410.074 1309.164,7407.613 C1310.835,7407.269 1312.565,7407.094 1314.327,7407.094 C1328.955,7407.094 1340.983,7419.273 1342.37,7434.848" id="Fill-197" fill="#D8DDE9"></path>
                <path d="M1010.5115,7434.848 C1011.8985,7450.423 1024.0675,7462.596 1038.6955,7462.596 C1040.4575,7462.596 1042.0005,7462.421 1044.0005,7462.077 L1044.0005,7464.731 C1057.0005,7462.089 1066.8535,7452.932 1066.8535,7437.864 C1066.8535,7436.845 1066.7355,7435.843 1066.6445,7434.848 C1065.4265,7421.149 1055.9415,7410.074 1043.7325,7407.613 C1042.0615,7407.269 1040.3235,7407.094 1038.5625,7407.094 C1023.9345,7407.094 1011.8985,7419.273 1010.5115,7434.848" id="Fill-199" fill="#D8DDE9"></path>
                <path d="M1324.4041,7368.3068 L1151.5791,7368.3068 C1118.3391,7368.3068 1091.1421,7341.1108 1091.1421,7307.8708 L1091.1421,7273.0598 C1091.1421,7269.0788 1094.4001,7265.8208 1098.3811,7265.8208 L1317.1651,7265.8208 C1321.1471,7265.8208 1324.4041,7269.0788 1324.4041,7273.0598 L1324.4041,7368.3068 Z" id="Fill-201" fill="#D8DDE9"></path>
                <path d="M1198.6167,7201.2471 L1262.0747,7201.2471 C1287.9857,7201.2471 1309.1867,7222.4471 1309.1867,7248.3591 L1309.1867,7248.3591 C1309.1867,7252.3401 1305.9287,7255.5981 1301.9477,7255.5981 L1158.7437,7255.5981 C1154.7617,7255.5981 1151.5047,7252.3401 1151.5047,7248.3591 L1151.5047,7248.3591 C1151.5047,7222.4471 1172.7047,7201.2471 1198.6167,7201.2471" id="Fill-203" fill="#2A2A34"></path>
                <path d="M1295.3885,7350.2103 L1156.3505,7350.2103 C1130.4395,7350.2103 1109.2385,7329.0103 1109.2385,7303.0983 L1109.2385,7254.9633 C1109.2385,7250.9823 1112.4965,7247.7243 1116.4775,7247.7243 L1335.2615,7247.7243 C1339.2435,7247.7243 1342.5005,7250.9823 1342.5005,7254.9633 L1342.5005,7303.0983 C1342.5005,7329.0103 1321.3005,7350.2103 1295.3885,7350.2103" id="Fill-205" fill="#2A2A34"></path>
                <mask id="mask-2" fill="white">
                    <use xlink:href="#path-1"></use>
                </mask>
                <g id="Clip-208"></g>
                <polygon id="Fill-207" fill="#2A2A34" mask="url(#mask-2)" points="1084.571 7318.376 1119.256 7318.376 1119.256 7260.015 1084.571 7260.015"></polygon>
                <polygon id="Fill-209" fill="#2A2A34" mask="url(#mask-2)" points="1309.186 7374.369 1331.888 7374.369 1331.888 7318.572 1309.186 7318.572"></polygon>
                <path d="M1059.0061,7476.8919 C1065.6841,7497.5049 1075.7651,7516.8459 1088.7741,7534.1689 C1091.5371,7537.8489 1097.8251,7534.2449 1095.0241,7530.5149 C1082.3871,7513.6879 1072.4751,7494.9979 1065.9861,7474.9679 C1064.5561,7470.5549 1057.5651,7472.4429 1059.0061,7476.8919" id="Fill-210" fill="#FFFFFF" mask="url(#mask-2)"></path>
                <path d="M1079.1123,7490.2379 L1079.1123,7490.2379 C1077.3523,7491.8579 1074.4733,7491.8579 1072.7133,7490.2379 L1066.2343,7484.2739 C1064.4743,7482.6549 1064.4743,7480.0039 1066.2343,7478.3849 C1067.9933,7476.7649 1070.8733,7476.7649 1072.6323,7478.3849 L1079.1123,7484.3489 C1080.8723,7485.9679 1080.8723,7488.6179 1079.1123,7490.2379" id="Fill-211" fill="#2A2A34" mask="url(#mask-2)"></path>
                <path d="M1074.8442,7519.2646 L1074.8442,7519.2646 C1073.0842,7520.8846 1070.2052,7520.8846 1068.4452,7519.2646 L1061.9662,7513.3006 C1060.2062,7511.6816 1060.2062,7509.0306 1061.9662,7507.4116 C1063.7252,7505.7916 1066.6052,7505.7916 1068.3642,7507.4116 L1074.8442,7513.3756 C1076.6042,7514.9946 1076.6042,7517.6446 1074.8442,7519.2646" id="Fill-212" fill="#2A2A34" mask="url(#mask-2)"></path>
                <path d="M1079.1123,7549.2946 L1079.1123,7549.2946 C1077.3523,7550.9146 1074.4733,7550.9146 1072.7133,7549.2946 L1066.2343,7543.3306 C1064.4743,7541.7116 1064.4743,7539.0606 1066.2343,7537.4416 L1066.2343,7537.4416 C1067.9933,7535.8216 1070.8733,7535.8216 1072.6323,7537.4416 L1079.1123,7543.4056 C1080.8723,7545.0246 1080.8723,7547.6746 1079.1123,7549.2946" id="Fill-213" fill="#2A2A34" mask="url(#mask-2)"></path>
                <path d="M1112.6506,7557.8239 L1112.6506,7557.8239 C1110.8906,7559.4439 1108.0116,7559.4439 1106.2516,7557.8239 L1099.7726,7551.8599 C1098.0126,7550.2409 1098.0126,7547.5899 1099.7726,7545.9709 C1101.5316,7544.3509 1104.4116,7544.3509 1106.1706,7545.9709 L1112.6506,7551.9349 C1114.4106,7553.5539 1114.4106,7556.2039 1112.6506,7557.8239" id="Fill-214" fill="#2A2A34" mask="url(#mask-2)"></path>
                <path d="M1139.9965,7582.9927 L1139.9965,7582.9927 C1138.2365,7584.6127 1135.3575,7584.6127 1133.5975,7582.9927 L1127.1175,7577.0287 C1125.3585,7575.4097 1125.3585,7572.7587 1127.1175,7571.1397 C1128.8775,7569.5197 1131.7565,7569.5197 1133.5165,7571.1397 L1139.9965,7577.1037 C1141.7565,7578.7227 1141.7565,7581.3727 1139.9965,7582.9927" id="Fill-215" fill="#2A2A34" mask="url(#mask-2)"></path>
                <path d="M1276.4686,7490.2379 L1276.4686,7490.2379 C1278.2286,7491.8579 1281.1076,7491.8579 1282.8676,7490.2379 L1289.3466,7484.2739 C1291.1066,7482.6549 1291.1066,7480.0039 1289.3466,7478.3849 C1287.5876,7476.7649 1284.7076,7476.7649 1282.9486,7478.3849 L1276.4686,7484.3489 C1274.7086,7485.9679 1274.7086,7488.6179 1276.4686,7490.2379" id="Fill-216" fill="#2A2A34" mask="url(#mask-2)"></path>
                <path d="M1280.7366,7519.2646 L1280.7366,7519.2646 C1282.4966,7520.8846 1285.3756,7520.8846 1287.1356,7519.2646 L1293.6156,7513.3006 C1295.3746,7511.6816 1295.3746,7509.0306 1293.6156,7507.4116 C1291.8556,7505.7916 1288.9766,7505.7916 1287.2166,7507.4116 L1280.7366,7513.3756 C1278.9766,7514.9946 1278.9766,7517.6446 1280.7366,7519.2646" id="Fill-217" fill="#2A2A34" mask="url(#mask-2)"></path>
                <path d="M1276.4685,7549.2946 L1276.4685,7549.2946 C1278.2285,7550.9146 1281.1075,7550.9146 1282.8675,7549.2946 L1289.3475,7543.3306 C1291.1065,7541.7116 1291.1065,7539.0606 1289.3475,7537.4416 L1289.3475,7537.4416 C1287.5875,7535.8216 1284.7085,7535.8216 1282.9485,7537.4416 L1276.4685,7543.4056 C1274.7085,7545.0246 1274.7085,7547.6746 1276.4685,7549.2946" id="Fill-218" fill="#2A2A34" mask="url(#mask-2)"></path>
                <path d="M1242.9302,7557.8239 L1242.9302,7557.8239 C1244.6902,7559.4439 1247.5692,7559.4439 1249.3292,7557.8239 L1255.8092,7551.8599 C1257.5682,7550.2409 1257.5682,7547.5899 1255.8092,7545.9709 C1254.0492,7544.3509 1251.1702,7544.3509 1249.4102,7545.9709 L1242.9302,7551.9349 C1241.1702,7553.5539 1241.1702,7556.2039 1242.9302,7557.8239" id="Fill-219" fill="#2A2A34" mask="url(#mask-2)"></path>
                <path d="M1215.531,7583.0419 L1215.531,7583.0419 C1217.291,7584.6619 1220.17,7584.6619 1221.93,7583.0419 L1228.41,7577.0779 C1230.169,7575.4589 1230.169,7572.8079 1228.41,7571.1889 C1226.65,7569.5689 1223.77,7569.5689 1222.011,7571.1889 L1215.531,7577.1529 C1213.771,7578.7719 1213.771,7581.4219 1215.531,7583.0419" id="Fill-220" fill="#2A2A34" mask="url(#mask-2)"></path>
                <path d="M1184.451,7437.1512 C1187.899,7443.7492 1191.27,7451.1812 1191.247,7458.7822 C1191.233,7463.1452 1189.86,7466.7072 1186.903,7469.4262 C1181.894,7474.0312 1173.707,7475.1092 1166.603,7475.1182 C1164.678,7475.1212 1162.732,7475.0682 1160.82,7474.8352 C1156.206,7474.2732 1156.247,7481.5172 1160.82,7482.0732 C1176.241,7483.9502 1196.868,7479.0652 1198.406,7460.6942 C1199.198,7451.2292 1194.972,7441.6702 1190.701,7433.4982 C1188.543,7429.3672 1182.294,7433.0232 1184.451,7437.1512" id="Fill-221" fill="#2A2A34" mask="url(#mask-2)"></path>
                <path d="M1209.2164,7528.0265 C1207.9854,7528.4605 1206.7494,7528.8835 1205.5064,7529.2755 C1197.3994,7531.8755 1189.0144,7533.6185 1180.4974,7534.0825 C1168.9884,7534.7165 1157.2614,7532.6895 1146.9704,7527.3995 C1142.9594,7525.3365 1138.7064,7522.6635 1135.6904,7519.2495 C1135.6244,7519.1715 1135.5574,7519.0925 1135.4974,7519.0205 C1131.2994,7513.8025 1138.7974,7506.4015 1143.3694,7511.5705 C1143.6654,7511.9085 1143.9904,7512.2165 1144.3164,7512.5235 C1144.7024,7512.8915 1145.1004,7513.2415 1145.5044,7513.5855 C1145.7344,7513.7785 1145.9694,7513.9655 1146.1984,7514.1585 C1146.2104,7514.1645 1146.2164,7514.1705 1146.2284,7514.1765 C1146.2584,7514.2005 1146.2954,7514.2255 1146.3314,7514.2495 C1147.9474,7515.3715 1149.5644,7516.4565 1151.2954,7517.4095 C1151.5974,7517.5725 1151.8984,7517.7355 1152.2064,7517.8985 C1152.9724,7518.2905 1153.7504,7518.6645 1154.5294,7519.0325 C1154.7214,7519.1165 1154.9154,7519.2075 1155.1144,7519.2915 C1155.1504,7519.3105 1155.1864,7519.3285 1155.2284,7519.3405 C1155.2404,7519.3465 1155.2464,7519.3465 1155.2584,7519.3525 C1155.2774,7519.3645 1155.2954,7519.3705 1155.3134,7519.3765 C1155.3734,7519.4005 1155.4394,7519.4245 1155.5184,7519.4605 C1156.1694,7519.7145 1156.8274,7519.9675 1157.4844,7520.1965 C1173.3794,7525.8185 1190.5714,7523.1465 1206.3264,7517.5545 C1209.7834,7516.3305 1212.2024,7518.6105 1212.7874,7521.4035 C1213.3304,7523.9425 1212.3414,7526.9165 1209.2164,7528.0265" id="Fill-222" fill="#2A2A34" mask="url(#mask-2)"></path>
                <path d="M1257.5315,7418.585 C1257.5315,7428.329 1249.6325,7436.228 1239.8885,7436.228 C1230.1445,7436.228 1222.2455,7428.329 1222.2455,7418.585 C1222.2455,7408.841 1230.1445,7400.942 1239.8885,7400.942 C1249.6325,7400.942 1257.5315,7408.841 1257.5315,7418.585" id="Fill-223" fill="#2A2A34" mask="url(#mask-2)"></path>
                <path d="M1131.7595,7418.5259 C1131.7595,7428.2699 1123.8605,7436.1689 1114.1165,7436.1689 C1104.3725,7436.1689 1096.4735,7428.2699 1096.4735,7418.5259 C1096.4735,7408.7819 1104.3725,7400.8829 1114.1165,7400.8829 C1123.8605,7400.8829 1131.7595,7408.7819 1131.7595,7418.5259" id="Fill-224" fill="#2A2A34" mask="url(#mask-2)"></path>
                <path d="M1139.3413,7389.1198 L1088.8913,7389.1198 C1085.4083,7389.1198 1082.5583,7386.2698 1082.5583,7382.7868 L1082.5583,7382.7868 C1082.5583,7379.3028 1085.4083,7376.4528 1088.8913,7376.4528 L1139.3413,7376.4528 C1142.8243,7376.4528 1145.6743,7379.3028 1145.6743,7382.7868 L1145.6743,7382.7868 C1145.6743,7386.2698 1142.8243,7389.1198 1139.3413,7389.1198" id="Fill-225" fill="#2A2A34" mask="url(#mask-2)"></path>
                <path d="M1265.1133,7389.1197 L1214.6633,7389.1197 C1211.1803,7389.1197 1208.3303,7386.2697 1208.3303,7382.7867 C1208.3303,7379.3027 1211.1803,7376.4527 1214.6633,7376.4527 L1265.1133,7376.4527 C1268.5963,7376.4527 1271.4463,7379.3027 1271.4463,7382.7867 C1271.4463,7386.2697 1268.5963,7389.1197 1265.1133,7389.1197" id="Fill-226" fill="#2A2A34" mask="url(#mask-2)"></path>
                <path d="M1342.5027,7431.8319 C1342.5027,7432.8509 1342.4607,7433.8529 1342.3697,7434.8479 C1340.9827,7450.4229 1328.9667,7462.5959 1314.3387,7462.5959 C1312.5767,7462.5959 1310.8577,7462.4209 1309.1867,7462.0769 C1296.9777,7459.6159 1275.4677,7448.5469 1274.2487,7434.8479 C1274.1587,7433.8529 1274.1167,7432.8509 1274.1167,7431.8319 C1274.1167,7416.7639 1296.0977,7404.2229 1309.1867,7401.5809 C1310.8577,7401.2369 1312.5767,7401.0619 1314.3387,7401.0619 C1329.8957,7401.0619 1342.5027,7414.8389 1342.5027,7431.8319" id="Fill-227" fill="#FFFFFF" mask="url(#mask-2)"></path>
                <path d="M1315.0092,7427.1224 C1317.4512,7428.8574 1320.4792,7431.2314 1318.2862,7433.5984 C1317.6112,7434.3274 1316.7892,7434.8344 1315.8402,7435.3614 C1315.2372,7435.6954 1313.6832,7436.3414 1314.7862,7435.9144 C1310.4862,7437.5754 1312.3552,7444.5774 1316.7102,7442.8944 C1319.9632,7441.6384 1323.2182,7439.6234 1325.0892,7436.6024 C1329.0242,7430.2484 1323.6492,7424.4154 1318.6622,7420.8724 C1314.8582,7418.1684 1311.2392,7424.4434 1315.0092,7427.1224" id="Fill-228" fill="#2A2A34" mask="url(#mask-2)"></path>
                <path d="M1078.511,7431.8307 C1078.511,7448.8227 1053.839,7462.5977 1038.286,7462.5977 C1022.734,7462.5977 1010.126,7448.8227 1010.126,7431.8307 C1010.126,7414.8387 1022.734,7401.0637 1038.286,7401.0637 C1053.839,7401.0637 1078.511,7414.8387 1078.511,7431.8307" id="Fill-229" fill="#FFFFFF" mask="url(#mask-2)"></path>
                <path d="M1032.1287,7422.7232 C1029.1667,7428.1942 1027.2837,7435.7552 1033.6567,7439.6202 C1036.3517,7441.2542 1039.9787,7441.7752 1043.0917,7441.4792 C1047.6887,7441.0412 1047.7337,7433.7982 1043.0917,7434.2402 C1042.4277,7434.3032 1041.7527,7434.3032 1041.0867,7434.2782 C1040.7717,7434.2662 1039.2337,7434.0842 1040.0697,7434.2202 C1039.3387,7434.1012 1038.6037,7433.9432 1037.9077,7433.6862 C1037.3157,7433.4672 1036.7537,7433.0982 1036.5797,7432.5092 C1036.4727,7432.1462 1036.4737,7431.3482 1036.6557,7430.5022 C1036.9727,7429.0322 1037.6697,7427.6872 1038.3787,7426.3762 C1040.5967,7422.2792 1034.3497,7418.6212 1032.1287,7422.7232" id="Fill-230" fill="#2A2A34" mask="url(#mask-2)"></path>
            </g>
        </g>
    </g>
</svg>