<?xml version="1.0" encoding="UTF-8" standalone="no"?>
<svg width="38px" height="48px" viewBox="0 0 38 48" version="1.1" xmlns="http://www.w3.org/2000/svg" xmlns:xlink="http://www.w3.org/1999/xlink">
    <!-- Generator: Sketch 39 (31667) - http://www.bohemiancoding.com/sketch -->
    <title>Page 1</title>
    <desc>Created with Sketch.</desc>
    <defs>
        <polygon id="path-1" points="0.11884661 34.3603188 30.3808551 34.3603188 30.3808551 0.0458830117 0.11884661 0.0458830117 0.11884661 34.3603188"></polygon>
        <polygon id="path-3" points="0 47.5856854 37.885839 47.5856854 37.885839 0 0 0"></polygon>
    </defs>
    <g id="Welcome" stroke="none" stroke-width="1" fill="none" fill-rule="evenodd">
        <g id="About" transform="translate(-249.000000, -91.000000)">
            <g id="Page-1" transform="translate(249.000000, 91.000000)">
                <path d="M1.49866525,23.7450898 L1.49866525,15.8914397 C1.49866525,7.9423797 7.01897034,1.50117836 13.8317585,1.50117836 L24.3429449,1.50117836 C31.1557331,1.50117836 36.6760381,7.9423797 36.6760381,15.8914397 L36.6760381,23.7519619 L1.49866525,23.7519619 L1.49866525,23.7450898 L1.49866525,23.7450898 Z" id="Fill-1" fill="#2A2A34"></path>
                <g id="Group-5" transform="translate(3.703390, 13.225367)">
                    <mask id="mask-2" fill="white">
                        <use xlink:href="#path-1"></use>
                    </mask>
                    <g id="Clip-4"></g>
                    <path d="M30.3808551,4.28322949 L30.3808551,22.6038318 C30.3808551,26.7318646 25.5548551,30.3754967 22.0625585,32.4770697 C20.0070161,33.7121234 17.6560076,34.3603348 15.2499314,34.3603348 C12.8506178,34.3603348 10.4926856,33.7121234 8.43714322,32.4770697 C4.94484661,30.3754967 0.11884661,26.7318646 0.11884661,22.6038318 L0.11884661,4.28322949 C0.11884661,1.94960449 2.03688051,0.0458830117 4.38805,0.0458830117 L26.1118127,0.0458830117 C28.4628212,0.0458830117 30.3808551,1.95647655 30.3808551,4.28322949" id="Fill-3" fill="#FFFFFF" mask="url(#mask-2)"></path>
                </g>
                <path d="M37.8652771,26.4198249 C37.7071585,28.1801919 36.3391585,29.5586001 34.6686076,29.5586001 C34.4692686,29.5586001 34.2699297,29.5381437 34.0842771,29.4970711 L34.0842771,29.7973643 C32.5924551,29.4970711 31.4650144,28.4600288 31.4650144,26.7610309 C31.4650144,26.6450049 31.4719381,26.5358509 31.4787008,26.4198249 C31.6162093,24.8708937 32.6955059,23.6153836 34.0842771,23.3425787 C34.2766924,23.3015061 34.4692686,23.2810497 34.6686076,23.2810497 C36.3391585,23.2810497 37.7071585,24.6594579 37.8652771,26.4198249" id="Fill-6" fill="#D8DDE9"></path>
                <path d="M0.0481279661,26.4198249 C0.20624661,28.1801919 1.57424661,29.5586001 3.24479746,29.5586001 C3.44413644,29.5586001 3.64347542,29.5381437 3.82912797,29.4970711 L3.82912797,29.7973643 C5.32095,29.4970711 6.44839068,28.4600288 6.44839068,26.7610309 C6.44839068,26.6450049 6.44146695,26.5358509 6.43470424,26.4198249 C6.29719576,24.8708937 5.21789915,23.6153836 3.82912797,23.3425787 C3.63671271,23.3015061 3.44413644,23.2810497 3.24479746,23.2810497 C1.57424661,23.2810497 0.20624661,24.6594579 0.0481279661,26.4198249" id="Fill-8" fill="#D8DDE9"></path>
                <path d="M35.8166424,18.8937165 L16.1208881,18.8937165 C12.3329644,18.8937165 9.23258305,15.8164703 9.23258305,12.0568121 L9.23258305,8.11975885 C9.23258305,7.66939895 9.60388814,7.30086456 10.0574729,7.30086456 L34.9917525,7.30086456 C35.4453373,7.30086456 35.8166424,7.66939895 35.8166424,8.11975885 L35.8166424,18.8937165 Z" id="Fill-10" fill="#D8DDE9"></path>
                <path d="M21.4831068,1.59815436e-05 L28.7151831,1.59815436e-05 C31.6712932,1.59815436e-05 34.0842932,2.39501011 34.0842932,5.3290617 C34.0842932,5.7794216 33.7129881,6.14779618 33.2592424,6.14779618 L16.9390475,6.14779618 C16.4853017,6.14779618 16.1139966,5.7794216 16.1139966,5.3290617 C16.1139966,2.39501011 18.5339203,1.59815436e-05 21.4831068,1.59815436e-05" id="Fill-12" fill="#2A2A34"></path>
                <path d="M32.5099661,16.8467365 L16.6708898,16.8467365 C13.7147797,16.8467365 11.3017797,14.4517423 11.3017797,11.5176907 L11.3017797,6.07277882 C11.3017797,5.62241892 11.6730847,5.25388452 12.1268305,5.25388452 L37.0609492,5.25388452 C37.5146949,5.25388452 37.885839,5.62241892 37.885839,6.07277882 L37.885839,11.5176907 C37.8790763,14.4517423 35.4660763,16.8467365 32.5099661,16.8467365" id="Fill-14" fill="#2A2A34"></path>
                <mask id="mask-4" fill="white">
                    <use xlink:href="#path-3"></use>
                </mask>
                <g id="Clip-17"></g>
                <polygon id="Fill-16" fill="#2A2A34" mask="url(#mask-4)" points="8.49010169 13.2509371 12.4430678 13.2509371 12.4430678 6.64592492 8.49010169 6.64592492"></polygon>
                <polygon id="Fill-18" fill="#2A2A34" mask="url(#mask-4)" points="34.0842288 19.5829845 36.6690339 19.5829845 36.6690339 13.2713935 34.0842288 13.2713935"></polygon>
                <path d="M5.57529237,31.1756606 C6.33835169,33.5092856 7.48640254,35.6926841 8.96453814,37.6577747 C9.28077542,38.0739341 9.99569068,37.6646468 9.67945339,37.2416153 C8.24269915,35.3378938 7.10833475,33.2225767 6.37280932,30.9573527 C6.20776695,30.459208 5.41025,30.6775159 5.57529237,31.1756606" id="Fill-19" fill="#FFFFFF" mask="url(#mask-4)"></path>
                <path d="M7.86453475,32.6904233 L7.86453475,32.6904233 C7.66519576,32.8746905 7.33511102,32.8746905 7.13577203,32.6904233 L6.40024661,32.0148834 C6.20090763,31.8306162 6.20090763,31.5304828 6.40024661,31.3462156 C6.59958559,31.1619484 6.92950932,31.1619484 7.12900932,31.3462156 L7.86453475,32.0217555 C8.06387373,32.2060227 8.06387373,32.5061561 7.86453475,32.6904233" id="Fill-20" fill="#2A2A34" mask="url(#mask-4)"></path>
                <path d="M7.37644407,35.972441 L7.37644407,35.972441 C7.17710508,36.1567082 6.84702034,36.1567082 6.64768136,35.972441 L5.91215593,35.2969012 C5.71281695,35.112634 5.71281695,34.8125006 5.91215593,34.6282334 C6.11149492,34.4439662 6.44141864,34.4439662 6.64091864,34.6282334 L7.37644407,35.3037732 C7.58270678,35.4880404 7.58270678,35.7881738 7.37644407,35.972441" id="Fill-21" fill="#2A2A34" mask="url(#mask-4)"></path>
                <path d="M7.86453475,39.3704368 L7.86453475,39.3704368 C7.66519576,39.554704 7.33511102,39.554704 7.13577203,39.3704368 L6.40024661,38.694897 C6.20090763,38.5106298 6.20090763,38.2104964 6.40024661,38.0262292 C6.59958559,37.841962 6.92950932,37.841962 7.12900932,38.0262292 L7.86453475,38.701769 C8.06387373,38.8860362 8.06387373,39.1861696 7.86453475,39.3704368" id="Fill-22" fill="#2A2A34" mask="url(#mask-4)"></path>
                <path d="M11.6868195,40.3325258 L11.6868195,40.3325258 C11.4874805,40.516793 11.1573958,40.516793 10.9580568,40.3325258 L10.2225314,39.6569859 C10.0231924,39.4727187 10.0231924,39.1725853 10.2225314,38.9883181 C10.4218703,38.8040509 10.7517941,38.8040509 10.9512941,38.9883181 L11.6868195,39.663858 C11.8861585,39.8481252 11.8861585,40.1482586 11.6868195,40.3325258" id="Fill-23" fill="#2A2A34" mask="url(#mask-4)"></path>
                <path d="M14.801,43.1778318 L14.801,43.1778318 C14.601661,43.362099 14.2715763,43.362099 14.0722373,43.1778318 L13.3367119,42.502292 C13.1373729,42.3180248 13.1373729,42.0178914 13.3367119,41.8336242 C13.5360508,41.649357 13.8659746,41.649357 14.0654746,41.8336242 L14.801,42.5091641 C15.0072627,42.7001435 15.0072627,43.0004367 14.801,43.1778318" id="Fill-24" fill="#2A2A34" mask="url(#mask-4)"></path>
                <path d="M30.3582161,32.6904233 L30.3582161,32.6904233 C30.5575551,32.8746905 30.8876398,32.8746905 31.0869788,32.6904233 L31.8225042,32.0148834 C32.0218432,31.8306162 32.0218432,31.5304828 31.8225042,31.3462156 C31.6231653,31.1619484 31.2930805,31.1619484 31.0937415,31.3462156 L30.3582161,32.0217555 C30.1588771,32.2060227 30.1588771,32.5061561 30.3582161,32.6904233" id="Fill-25" fill="#2A2A34" mask="url(#mask-4)"></path>
                <path d="M30.8463068,35.972441 L30.8463068,35.972441 C31.0456458,36.1567082 31.3757305,36.1567082 31.5750695,35.972441 L32.3105949,35.2969012 C32.5099339,35.112634 32.5099339,34.8125006 32.3105949,34.6282334 C32.1112559,34.4439662 31.7811712,34.4439662 31.5818322,34.6282334 L30.8463068,35.3037732 C30.6400441,35.4880404 30.6400441,35.7881738 30.8463068,35.972441" id="Fill-26" fill="#2A2A34" mask="url(#mask-4)"></path>
                <path d="M30.3582161,39.3704368 L30.3582161,39.3704368 C30.5575551,39.554704 30.8876398,39.554704 31.0869788,39.3704368 L31.8225042,38.694897 C32.0218432,38.5106298 32.0218432,38.2104964 31.8225042,38.0262292 C31.6231653,37.841962 31.2930805,37.841962 31.0937415,38.0262292 L30.3582161,38.701769 C30.1588771,38.8860362 30.1588771,39.1861696 30.3582161,39.3704368" id="Fill-27" fill="#2A2A34" mask="url(#mask-4)"></path>
                <path d="M26.5359314,40.3325258 L26.5359314,40.3325258 C26.7352703,40.516793 27.0653551,40.516793 27.2646941,40.3325258 L28.0002195,39.6569859 C28.1995585,39.4727187 28.1995585,39.1725853 28.0002195,38.9883181 C27.8008805,38.8040509 27.4709568,38.8040509 27.2714568,38.9883181 L26.5359314,39.663858 C26.3365924,39.8481252 26.3365924,40.1482586 26.5359314,40.3325258" id="Fill-28" fill="#2A2A34" mask="url(#mask-4)"></path>
                <path d="M23.4148754,43.184656 L23.4148754,43.184656 C23.6142144,43.3689232 23.9442992,43.3689232 24.1436381,43.184656 L24.8791636,42.5091161 C25.0785025,42.3248489 25.0785025,42.0247155 24.8791636,41.8404483 C24.6798246,41.6561811 24.3499008,41.6561811 24.1504008,41.8404483 L23.4148754,42.5159882 C23.2086127,42.7002554 23.2086127,43.0003888 23.4148754,43.184656" id="Fill-29" fill="#2A2A34" mask="url(#mask-4)"></path>
                <path d="M19.8675754,26.6859336 C20.2594907,27.4297146 20.6444822,28.2757776 20.6444822,29.1354248 C20.6444822,29.6266974 20.4863636,30.0292725 20.1493551,30.3364378 C19.578872,30.8550389 18.6438466,30.9777771 17.8326432,30.9777771 C17.6126941,30.9777771 17.3927449,30.9709051 17.1727958,30.9437365 C16.6502958,30.8822075 16.6502958,31.7011018 17.1727958,31.7624709 C18.93255,31.9740666 21.2837195,31.421265 21.4555246,29.3470204 C21.54505,28.2757776 21.0637703,27.1976626 20.575728,26.2697742 C20.3350076,25.8056702 19.6270161,26.2151173 19.8675754,26.6859336" id="Fill-30" fill="#2A2A34" mask="url(#mask-4)"></path>
                <path d="M22.6930364,36.9618104 C22.555528,37.0095953 22.4110958,37.0573801 22.2668246,37.1051649 C21.3456466,37.3984262 20.390011,37.5964375 19.4139263,37.6509346 C18.1008331,37.7260479 16.7671297,37.4939958 15.5915449,36.8935693 C15.1310364,36.6615172 14.6497568,36.3545118 14.3059856,35.9723931 C14.2992229,35.9656808 14.2922992,35.9519367 14.2853754,35.9450646 C13.8042568,35.3583822 14.6634432,34.5190315 15.1859432,35.0990017 C15.2204008,35.1399145 15.2546975,35.174115 15.2959178,35.2081557 C15.3371381,35.2492282 15.3852822,35.290141 15.4334263,35.3310537 C15.4609602,35.3515101 15.4884941,35.3719665 15.5091042,35.3924229 L15.516028,35.3924229 C15.5227907,35.3924229 15.5227907,35.3992949 15.5297144,35.3992949 C15.7153669,35.5289052 15.9008585,35.6518033 16.0934347,35.7540852 C16.1277314,35.7745416 16.162189,35.7881259 16.1964856,35.8087421 C16.28585,35.8496548 16.3752144,35.8974396 16.4645788,35.9383524 C16.48535,35.9450646 16.5059602,35.9588088 16.5333331,35.9656808 C16.5402568,35.9656808 16.5402568,35.9723931 16.5471805,35.9723931 L16.5541042,35.9723931 L16.5608669,35.9723931 C16.5677907,35.9723931 16.5747144,35.9792651 16.5814771,35.9792651 C16.6571551,36.0065936 16.7328331,36.0337622 16.80835,36.0610906 C18.6233331,36.6957177 20.5825873,36.3954245 22.3767992,35.7609573 C22.7687144,35.6244749 23.0435703,35.8836955 23.1123246,36.197573 C23.1604686,36.4978662 23.0504941,36.8389124 22.6930364,36.9618104" id="Fill-31" fill="#2A2A34" mask="url(#mask-4)"></path>
                <path d="M26.1853331,22.5919416 C27.2939347,22.5919416 28.1927314,23.4840313 28.1927314,24.5843606 C28.1927314,25.6846899 27.2939347,26.5767797 26.1853331,26.5767797 C25.0767314,26.5767797 24.1779347,25.6846899 24.1779347,24.5843606 C24.1779347,23.4840313 25.0767314,22.5919416 26.1853331,22.5919416" id="Fill-32" fill="#2A2A34" mask="url(#mask-4)"></path>
                <path d="M11.8517975,22.5851334 C12.9603992,22.5851334 13.8591958,23.4772232 13.8591958,24.5775525 C13.8591958,25.6778818 12.9603992,26.5699715 11.8517975,26.5699715 C10.7431958,26.5699715 9.84439915,25.6778818 9.84439915,24.5775525 C9.84439915,23.4772232 10.7431958,22.5851334 11.8517975,22.5851334" id="Fill-33" fill="#2A2A34" mask="url(#mask-4)"></path>
                <path d="M14.7322619,21.2477659 L8.9850839,21.2477659 C8.58640593,21.2477659 8.26324492,20.9270163 8.26324492,20.5313133 C8.26324492,20.1356103 8.58640593,19.8148607 8.9850839,19.8148607 L14.7322619,19.8148607 C15.1309398,19.8148607 15.4541008,20.1356103 15.4541008,20.5313133 C15.4541008,20.9270163 15.1241771,21.2477659 14.7322619,21.2477659" id="Fill-34" fill="#2A2A34" mask="url(#mask-4)"></path>
                <path d="M29.0657814,21.2477659 L23.3186034,21.2477659 C22.9199254,21.2477659 22.5967644,20.9270163 22.5967644,20.5313133 C22.5967644,20.1356103 22.9199254,19.8148607 23.3186034,19.8148607 L29.0657814,19.8148607 C29.4644593,19.8148607 29.7876203,20.1356103 29.7876203,20.5313133 C29.7876203,20.9270163 29.4576966,21.2477659 29.0657814,21.2477659" id="Fill-35" fill="#2A2A34" mask="url(#mask-4)"></path>
                <path d="M37.8859034,26.0786509 C37.8859034,26.1946769 37.8789797,26.3107029 37.8722169,26.4198569 C37.7140983,28.1802239 36.3459373,29.5584722 34.6753864,29.5584722 C34.4760475,29.5584722 34.2767085,29.5380159 34.0910559,29.4971031 C32.7024458,29.2174261 30.2482254,27.9686283 30.1107169,26.4198569 C30.0970305,26.3107029 30.0970305,26.1946769 30.0970305,26.0786509 C30.0970305,24.372781 32.5993949,22.9536199 34.0910559,22.6601987 C34.2836322,22.619286 34.4760475,22.5988296 34.6753864,22.5988296 C36.4491492,22.5988296 37.8859034,24.1613451 37.8859034,26.0786509" id="Fill-36" fill="#FFFFFF" mask="url(#mask-4)"></path>
                <path d="M34.7510805,25.5464336 C35.0260975,25.7442851 35.3766314,26.0103778 35.1223856,26.2764705 C35.0467076,26.3584558 34.9504195,26.4198249 34.8404449,26.4744818 C34.7716907,26.5153945 34.5929619,26.5836357 34.7235466,26.5358509 C34.2355042,26.7268304 34.4485297,27.5183962 34.9434958,27.327257 C35.3148008,27.1840623 35.6861059,26.9588824 35.8991314,26.6176764 C36.3459534,25.9012238 35.734089,25.2394281 35.1636059,24.836853 C34.7304703,24.5365598 34.3179449,25.2461404 34.7510805,25.5464336" id="Fill-37" fill="#2A2A34" mask="url(#mask-4)"></path>
                <path d="M7.79579661,26.0786509 C7.79579661,28.0028288 4.98411864,29.5584722 3.21051695,29.5584722 C1.43675424,29.5584722 0,28.0028288 0,26.0786509 C0,24.1544731 1.43675424,22.5988296 3.21051695,22.5988296 C4.98411864,22.5988296 7.79579661,24.1613451 7.79579661,26.0786509" id="Fill-38" fill="#FFFFFF" mask="url(#mask-4)"></path>
                <path d="M2.50922373,25.0483368 C2.17237627,25.6692198 1.95918983,26.5221547 2.68102881,26.9589303 C2.99050339,27.1430377 3.4028678,27.2045667 3.75356271,27.1703661 C4.27606271,27.1225813 4.28282542,26.3038469 3.75356271,26.3516317 C3.67788475,26.3583439 3.60220678,26.3583439 3.52668983,26.3583439 C3.4922322,26.3583439 3.31350339,26.3378875 3.40979153,26.3516317 C3.32735085,26.3378875 3.24474915,26.3174312 3.16230847,26.2901027 C3.09355424,26.2629341 3.03172373,26.2218615 3.01111356,26.1537802 C2.9972661,26.1127076 2.9972661,26.02401 3.01787627,25.9286002 C3.0523339,25.7647894 3.13477458,25.6078506 3.21737627,25.4644962 C3.47854576,25.000552 2.76363051,24.5843926 2.50922373,25.0483368" id="Fill-39" fill="#2A2A34" mask="url(#mask-4)"></path>
            </g>
        </g>
    </g>
</svg>